<?xml version="1.0" encoding="UTF-8" standalone="no"?>
<!-- Created with Inkscape (http://www.inkscape.org/) -->
<svg
   xmlns:dc="http://purl.org/dc/elements/1.1/"
   xmlns:cc="http://creativecommons.org/ns#"
   xmlns:rdf="http://www.w3.org/1999/02/22-rdf-syntax-ns#"
   xmlns:svg="http://www.w3.org/2000/svg"
   xmlns="http://www.w3.org/2000/svg"
   xmlns:xlink="http://www.w3.org/1999/xlink"
   xmlns:sodipodi="http://sodipodi.sourceforge.net/DTD/sodipodi-0.dtd"
   xmlns:inkscape="http://www.inkscape.org/namespaces/inkscape"
   width="128"
   height="128"
   id="svg1256"
   sodipodi:version="0.32"
   inkscape:version="0.46"
   sodipodi:docbase="/home/jimmac/src/cvs/tango-icon-theme/scalable/mimetypes"
   sodipodi:docname="address.svg"
   inkscape:output_extension="org.inkscape.output.svg.inkscape"
   version="1.0">
  <defs
     id="defs3">
    <inkscape:perspective
       sodipodi:type="inkscape:persp3d"
       inkscape:vp_x="0 : 24 : 1"
       inkscape:vp_y="0 : 1000 : 0"
       inkscape:vp_z="48 : 24 : 1"
       inkscape:persp3d-origin="24 : 16 : 1"
       id="perspective3025" />
    <radialGradient
       inkscape:collect="always"
       xlink:href="#linearGradient5060"
       id="radialGradient6719"
       gradientUnits="userSpaceOnUse"
       gradientTransform="matrix(-2.774389,0,0,1.969706,112.7623,-872.8854)"
       cx="605.71429"
       cy="486.64789"
       fx="605.71429"
       fy="486.64789"
       r="117.14286" />
    <linearGradient
       inkscape:collect="always"
       id="linearGradient5060">
      <stop
         style="stop-color:black;stop-opacity:1;"
         offset="0"
         id="stop5062" />
      <stop
         style="stop-color:black;stop-opacity:0;"
         offset="1"
         id="stop5064" />
    </linearGradient>
    <radialGradient
       inkscape:collect="always"
       xlink:href="#linearGradient5060"
       id="radialGradient6717"
       gradientUnits="userSpaceOnUse"
       gradientTransform="matrix(2.774389,0,0,1.969706,-1891.633,-872.8854)"
       cx="605.71429"
       cy="486.64789"
       fx="605.71429"
       fy="486.64789"
       r="117.14286" />
    <linearGradient
       id="linearGradient5048">
      <stop
         style="stop-color:black;stop-opacity:0;"
         offset="0"
         id="stop5050" />
      <stop
         id="stop5056"
         offset="0.5"
         style="stop-color:black;stop-opacity:1;" />
      <stop
         style="stop-color:black;stop-opacity:0;"
         offset="1"
         id="stop5052" />
    </linearGradient>
    <linearGradient
       inkscape:collect="always"
       xlink:href="#linearGradient5048"
       id="linearGradient6715"
       gradientUnits="userSpaceOnUse"
       gradientTransform="matrix(2.774389,0,0,1.969706,-1892.179,-872.8854)"
       x1="302.85715"
       y1="366.64789"
       x2="302.85715"
       y2="609.50507" />
    <linearGradient
       id="linearGradient12512">
      <stop
         style="stop-color:#ffffff;stop-opacity:1.0000000;"
         offset="0.0000000"
         id="stop12513" />
      <stop
         style="stop-color:#fff520;stop-opacity:0.89108908;"
         offset="0.50000000"
         id="stop12517" />
      <stop
         style="stop-color:#fff300;stop-opacity:0.0000000;"
         offset="1.0000000"
         id="stop12514" />
    </linearGradient>
    <radialGradient
       inkscape:collect="always"
       xlink:href="#linearGradient12512"
       id="radialGradient278"
       gradientUnits="userSpaceOnUse"
       cx="55"
       cy="125"
       fx="55"
       fy="125"
       r="14.375" />
    <linearGradient
       inkscape:collect="always"
       id="linearGradient21644">
      <stop
         style="stop-color:#000000;stop-opacity:1;"
         offset="0"
         id="stop21646" />
      <stop
         style="stop-color:#000000;stop-opacity:0;"
         offset="1"
         id="stop21648" />
    </linearGradient>
    <linearGradient
       inkscape:collect="always"
       id="linearGradient2116">
      <stop
         style="stop-color:#ffffff;stop-opacity:1;"
         offset="0"
         id="stop2118" />
      <stop
         style="stop-color:#ffffff;stop-opacity:0;"
         offset="1"
         id="stop2120" />
    </linearGradient>
    <linearGradient
       id="linearGradient2094">
      <stop
         style="stop-color:#d6e3f0;stop-opacity:1.0000000;"
         offset="0.0000000"
         id="stop2096" />
      <stop
         style="stop-color:#95b1cf;stop-opacity:1.0000000;"
         offset="1.0000000"
         id="stop2098" />
    </linearGradient>
    <linearGradient
       id="linearGradient2803">
      <stop
         id="stop2805"
         offset="0"
         style="stop-color:#ffffff;stop-opacity:1;" />
      <stop
         id="stop2807"
         offset="1.0000000"
         style="stop-color:#cbcbcb;stop-opacity:1.0000000;" />
    </linearGradient>
    <linearGradient
       id="linearGradient2795">
      <stop
         id="stop2797"
         offset="0.0000000"
         style="stop-color:#000000;stop-opacity:0.068627454;" />
      <stop
         id="stop2799"
         offset="1.0000000"
         style="stop-color:#ffffff;stop-opacity:1.0000000;" />
    </linearGradient>
    <linearGradient
       gradientUnits="userSpaceOnUse"
       y2="4.9530048"
       x2="41.219128"
       y1="4.9530048"
       x1="35.433037"
       gradientTransform="matrix(0.6940984,0,0,10.274332,-2.7314797,-2.9905946)"
       id="linearGradient2801"
       xlink:href="#linearGradient2795"
       inkscape:collect="always" />
    <linearGradient
       gradientUnits="userSpaceOnUse"
       y2="84.287079"
       x2="10.219901"
       y1="93.338043"
       x1="10.496115"
       gradientTransform="matrix(6.1833295,0,0,1.2076821,-2.032182,-5.7854859)"
       id="linearGradient2813"
       xlink:href="#linearGradient2803"
       inkscape:collect="always" />
    <linearGradient
       inkscape:collect="always"
       xlink:href="#linearGradient2094"
       id="linearGradient2100"
       gradientTransform="matrix(2.6172157,0,0,2.8091558,-2.032182,-4.9572433)"
       x1="6.5871811"
       y1="22.132999"
       x2="14.511404"
       y2="22.132999"
       gradientUnits="userSpaceOnUse" />
    <linearGradient
       inkscape:collect="always"
       xlink:href="#linearGradient2116"
       id="linearGradient2112"
       gradientTransform="matrix(2.8021574,0,0,2.6159941,-4.764853,-5.5990029)"
       x1="73.361984"
       y1="26.652197"
       x2="-2.7582901"
       y2="21.270376"
       gradientUnits="userSpaceOnUse" />
    <radialGradient
       inkscape:collect="always"
       xlink:href="#linearGradient21644"
       id="radialGradient21650"
       cx="25.125"
       cy="36.75"
       fx="25.125"
       fy="36.75"
       r="15.75"
       gradientTransform="matrix(1,0,0,0.595238,0,14.875)"
       gradientUnits="userSpaceOnUse" />
  </defs>
  <sodipodi:namedview
     id="base"
     pagecolor="#ffffff"
     bordercolor="#666666"
     borderopacity="0.27843137"
     inkscape:pageopacity="0.0"
     inkscape:pageshadow="2"
     inkscape:zoom="5.5390625"
     inkscape:cx="64"
     inkscape:cy="64"
     inkscape:current-layer="layer1"
     showgrid="false"
     inkscape:grid-bbox="true"
     inkscape:document-units="px"
     inkscape:window-width="1280"
     inkscape:window-height="939"
     inkscape:window-x="0"
     inkscape:window-y="31"
     fill="#ef2929"
     stroke="#cc0000"
     inkscape:showpageshadow="false" />
  <metadata
     id="metadata4">
    <rdf:RDF>
      <cc:Work
         rdf:about="">
        <dc:format>image/svg+xml</dc:format>
        <dc:type
           rdf:resource="http://purl.org/dc/dcmitype/StillImage" />
        <dc:title>Addess Book</dc:title>
        <dc:date />
        <dc:creator>
          <cc:Agent>
            <dc:title>Jakub Steiner</dc:title>
          </cc:Agent>
        </dc:creator>
        <dc:source>http://jimmac.musichall.cz</dc:source>
        <dc:subject>
          <rdf:Bag>
            <rdf:li>address</rdf:li>
            <rdf:li>contact</rdf:li>
            <rdf:li>book</rdf:li>
            <rdf:li>office</rdf:li>
          </rdf:Bag>
        </dc:subject>
        <cc:license
           rdf:resource="http://creativecommons.org/licenses/by-sa/2.0/" />
      </cc:Work>
      <cc:License
         rdf:about="http://creativecommons.org/licenses/by-sa/2.0/">
        <cc:permits
           rdf:resource="http://web.resource.org/cc/Reproduction" />
        <cc:permits
           rdf:resource="http://web.resource.org/cc/Distribution" />
        <cc:requires
           rdf:resource="http://web.resource.org/cc/Notice" />
        <cc:requires
           rdf:resource="http://web.resource.org/cc/Attribution" />
        <cc:permits
           rdf:resource="http://web.resource.org/cc/DerivativeWorks" />
        <cc:requires
           rdf:resource="http://web.resource.org/cc/ShareAlike" />
      </cc:License>
    </rdf:RDF>
  </metadata>
  <g
     id="layer1"
     inkscape:label="Layer 1"
     inkscape:groupmode="layer">
    <path
       style="opacity:1;fill:#edd400;fill-opacity:1;fill-rule:evenodd;stroke:#c4a000;stroke-width:2.73267102;stroke-linecap:round;stroke-linejoin:round;marker:none;marker-start:none;marker-mid:none;marker-end:none;stroke-miterlimit:4;stroke-dasharray:none;stroke-dashoffset:0;stroke-opacity:1;visibility:visible;display:inline;overflow:visible"
       d="M 85.676873,9.3180421 L 105.96592,9.3180421 C 107.89821,9.3180421 109.34743,9.8011147 109.8305,12.216476 L 112.24586,31.056308 C 112.4874,33.954743 111.21933,34.920887 108.62282,34.920887 L 85.1938,34.920887 L 85.676873,9.3180421 z"
       id="path21630"
       sodipodi:nodetypes="ccccccc" />
    <path
       sodipodi:nodetypes="ccccccc"
       id="path21632"
       d="M 88.42729,12.014792 L 105.8086,12.014792 C 106.65067,12.014792 107.11143,12.097214 107.23655,12.893613 L 109.39928,30.338919 C 109.58994,31.516624 109.89774,32.184442 109.01595,32.224167 L 88.045979,32.224167 L 88.42729,12.014792 z"
       style="opacity:0.48538011;fill:none;fill-opacity:1;fill-rule:evenodd;stroke:#ffffff;stroke-width:2.73267269;stroke-linecap:round;stroke-linejoin:round;marker:none;marker-start:none;marker-mid:none;marker-end:none;stroke-miterlimit:4;stroke-dasharray:none;stroke-dashoffset:0;stroke-opacity:1;visibility:visible;display:inline;overflow:visible" />
    <path
       sodipodi:nodetypes="ccccccc"
       id="path21634"
       d="M 92.508551,30.496242 L 112.7976,30.496242 C 114.72989,30.496242 116.1791,30.979315 116.66218,33.394677 L 119.07754,52.234509 C 119.31908,55.132944 118.05101,56.099088 115.4545,56.099088 L 92.025478,56.099088 L 92.508551,30.496242 z"
       style="opacity:1;fill:#9db029;fill-opacity:1;fill-rule:evenodd;stroke:#727e0a;stroke-width:2.73267102;stroke-linecap:round;stroke-linejoin:round;marker:none;marker-start:none;marker-mid:none;marker-end:none;stroke-miterlimit:4;stroke-dasharray:none;stroke-dashoffset:0;stroke-opacity:1;visibility:visible;display:inline;overflow:visible" />
    <path
       style="opacity:0.48538011;fill:none;fill-opacity:1;fill-rule:evenodd;stroke:#ffffff;stroke-width:2.73267269;stroke-linecap:round;stroke-linejoin:round;marker:none;marker-start:none;marker-mid:none;marker-end:none;stroke-miterlimit:4;stroke-dasharray:none;stroke-dashoffset:0;stroke-opacity:1;visibility:visible;display:inline;overflow:visible"
       d="M 95.258968,33.192992 L 112.64028,33.192992 C 113.48235,33.192992 113.9431,33.275415 114.06823,34.071814 L 116.23096,51.51712 C 116.42161,52.694825 116.72942,53.362643 115.84762,53.402368 L 94.877656,53.402368 L 95.258968,33.192992 z"
       id="path21636"
       sodipodi:nodetypes="ccccccc" />
    <path
       style="opacity:1;fill:#ef2929;fill-opacity:1;fill-rule:evenodd;stroke:#cc0000;stroke-width:2.73267078;stroke-linecap:round;stroke-linejoin:round;marker:none;marker-start:none;marker-mid:none;marker-end:none;stroke-miterlimit:4;stroke-dasharray:none;stroke-dashoffset:0;stroke-opacity:1;visibility:visible;display:inline;overflow:visible"
       d="M 93.787589,53.380935 L 116.86612,53.380935 C 119.06407,53.380935 120.71253,53.980478 121.26202,56.97818 L 124.00947,80.360277 C 124.28421,83.957521 122.8418,85.156603 119.8883,85.156603 L 93.238098,85.156603 L 93.787589,53.380935 z"
       id="path21638"
       sodipodi:nodetypes="ccccccc" />
    <path
       sodipodi:nodetypes="ccccccc"
       id="path21640"
       d="M 96.916153,56.078289 L 116.68717,56.078289 C 117.64501,56.078289 118.16911,56.183098 118.31144,57.195785 L 120.77152,79.378936 C 120.98839,80.876486 121.33851,81.725675 120.33548,81.776186 L 96.482415,81.776186 L 96.916153,56.078289 z"
       style="opacity:0.48538011;fill:none;fill-opacity:1;fill-rule:evenodd;stroke:#ffffff;stroke-width:2.73267293;stroke-linecap:round;stroke-linejoin:round;marker:none;marker-start:none;marker-mid:none;marker-end:none;stroke-miterlimit:4;stroke-dasharray:none;stroke-dashoffset:0;stroke-opacity:1;visibility:visible;display:inline;overflow:visible" />
    <g
       style="display:inline"
       transform="matrix(5.7535323e-2,0,0,5.7024231e-2,112.3348,107.13253)"
       id="g6707">
      <rect
         style="opacity:0.40206185;fill:url(#linearGradient6715);fill-opacity:1;fill-rule:nonzero;stroke:none;stroke-width:1;stroke-linecap:round;stroke-linejoin:miter;marker:none;marker-start:none;marker-mid:none;marker-end:none;stroke-miterlimit:4;stroke-dasharray:none;stroke-dashoffset:0;stroke-opacity:1;visibility:visible;display:inline;overflow:visible"
         id="rect6709"
         width="1339.6335"
         height="478.35718"
         x="-1559.2523"
         y="-150.69685" />
      <path
         style="opacity:0.40206185;fill:url(#radialGradient6717);fill-opacity:1;fill-rule:nonzero;stroke:none;stroke-width:1;stroke-linecap:round;stroke-linejoin:miter;marker:none;marker-start:none;marker-mid:none;marker-end:none;stroke-miterlimit:4;stroke-dasharray:none;stroke-dashoffset:0;stroke-opacity:1;visibility:visible;display:inline;overflow:visible"
         d="M -219.61876,-150.68038 C -219.61876,-150.68038 -219.61876,327.65041 -219.61876,327.65041 C -76.744594,328.55086 125.78146,220.48075 125.78138,88.454235 C 125.78138,-43.572302 -33.655436,-150.68036 -219.61876,-150.68038 z"
         id="path6711"
         sodipodi:nodetypes="cccc" />
      <path
         sodipodi:nodetypes="cccc"
         id="path6713"
         d="M -1559.2523,-150.68038 C -1559.2523,-150.68038 -1559.2523,327.65041 -1559.2523,327.65041 C -1702.1265,328.55086 -1904.6525,220.48075 -1904.6525,88.454235 C -1904.6525,-43.572302 -1745.2157,-150.68036 -1559.2523,-150.68038 z"
         style="opacity:0.40206185;fill:url(#radialGradient6719);fill-opacity:1;fill-rule:nonzero;stroke:none;stroke-width:1;stroke-linecap:round;stroke-linejoin:miter;marker:none;marker-start:none;marker-mid:none;marker-end:none;stroke-miterlimit:4;stroke-dasharray:none;stroke-dashoffset:0;stroke-opacity:1;visibility:visible;display:inline;overflow:visible" />
    </g>
    <path
       style="fill:#5b6b94;fill-opacity:1;fill-rule:nonzero;stroke:#364878;stroke-width:2.73267126;stroke-linecap:round;stroke-linejoin:round;marker:none;marker-start:none;marker-mid:none;marker-end:none;stroke-miterlimit:4;stroke-dashoffset:0;stroke-opacity:1;visibility:visible;display:inline;overflow:visible"
       d="M 12.626746,11.686091 C 12.874825,6.4530554 15.380332,3.5856121 20.044735,3.5713 L 100.1855,3.325397 C 100.85933,3.3233295 101.73913,3.8723395 101.80662,4.5549107 L 110.71097,94.618936 L 107.11668,94.773698 L 108.83619,112.38755 C 109.00291,114.09542 108.34056,115.55555 105.90832,115.56706 L 21.986096,115.9645 C 15.065485,115.99728 7.9525755,110.28406 8.2862026,103.24646 L 12.626746,11.686091 z"
       id="rect1408"
       sodipodi:nodetypes="csssccsssss" />
    <path
       id="path2489"
       d="M 104.88357,91.907503 L 25.123736,92.249087 C 20.870284,92.735142 17.438099,96.064224 17.438099,100.4471 C 17.438099,104.82998 20.870284,108.15906 25.123736,108.64511 L 104.88357,108.9867 L 104.88357,108.81591 C 100.3593,108.60234 96.685559,105.02392 96.685559,100.4471 C 96.685559,95.870283 100.3593,92.291859 104.88357,92.078295 L 104.88357,91.907503 z"
       style="fill:url(#linearGradient2813);fill-opacity:1;fill-rule:nonzero;stroke:none;stroke-width:1;stroke-linecap:round;stroke-linejoin:round;marker:none;marker-start:none;marker-mid:none;marker-end:none;stroke-miterlimit:4;stroke-dashoffset:0;stroke-opacity:1;visibility:visible;display:inline;overflow:visible" />
    <path
       sodipodi:nodetypes="ccccccssc"
       id="path2784"
       d="M 21.707898,4.2912385 C 17.043473,4.2912385 14.500759,7.0485205 14.278448,12.11041 L 9.7524618,99.970992 C 9.5011654,108.38332 14.744705,113.16628 20.17077,114.53744 C 8.5569183,110.08135 10.094046,89.965818 24.611361,90.049894 L 109.04621,90.049894 L 99.994239,5.468318 C 99.923842,4.8105291 99.043521,4.2912385 98.371715,4.2912385 L 21.707898,4.2912385 z"
       style="fill:url(#linearGradient2100);fill-opacity:1;fill-rule:nonzero;stroke:none;stroke-width:1;stroke-linecap:round;stroke-linejoin:round;marker:none;marker-start:none;marker-mid:none;marker-end:none;stroke-miterlimit:4;stroke-dashoffset:0;stroke-opacity:1;visibility:visible;display:inline;overflow:visible" />
    <rect
       y="7.448132"
       x="21.862553"
       height="80.900154"
       width="5.465342"
       id="rect2793"
       style="opacity:0.48044691;fill:url(#linearGradient2801);fill-opacity:1;fill-rule:nonzero;stroke:none;stroke-width:1;stroke-linecap:round;stroke-linejoin:round;marker:none;marker-start:none;marker-mid:none;marker-end:none;stroke-miterlimit:4;stroke-dashoffset:0;stroke-opacity:0.60818715;visibility:visible;display:inline;overflow:visible"
       transform="matrix(1,0,-3.582731e-2,0.999358,0,0)" />
    <path
       style="fill:none;fill-opacity:1;fill-rule:nonzero;stroke:url(#linearGradient2112);stroke-width:2.73267126;stroke-linecap:round;stroke-linejoin:miter;marker:none;marker-start:none;marker-mid:none;marker-end:none;stroke-miterlimit:20;stroke-dasharray:none;stroke-dashoffset:0;stroke-opacity:1;visibility:visible;display:inline;overflow:visible"
       d="M 22.220549,5.7154605 C 17.619006,5.7154605 15.835179,7.7162206 15.615865,12.695106 L 12.066387,94.372914 C 14.616867,89.982203 18.733,88.408146 25.326405,88.408146 L 107.17377,88.408146 L 99.451511,6.8732386 C 99.390157,6.2254482 98.513609,5.7154605 97.850863,5.7154605 L 22.220549,5.7154605 z"
       id="path2104"
       sodipodi:nodetypes="cccscssc" />
    <path
       style="font-size:12px;font-style:normal;font-variant:normal;font-weight:normal;font-stretch:normal;line-height:120.00000477%;writing-mode:lr-tb;text-anchor:start;fill:#ad7fa8;fill-opacity:1;stroke:none;stroke-width:1pt;stroke-linecap:butt;stroke-linejoin:miter;stroke-opacity:1;font-family:Bitstream Vera Sans"
       d="M 52.964271,46.835614 C 52.758645,49.898889 53.357355,52.308791 54.760406,54.06533 C 56.164832,55.800472 58.19518,56.668038 60.851464,56.668035 C 63.486257,56.668038 65.61237,55.789763 67.229803,54.033202 C 68.868577,52.276663 69.790061,49.877465 69.994274,46.835614 C 70.195519,43.836647 69.583944,41.458868 68.159542,39.702296 C 66.736498,37.92435 64.718298,37.035357 62.104924,37.035332 C 59.512904,37.035357 57.38679,37.91364 55.726586,39.67016 C 54.087743,41.42674 53.166972,43.81522 52.964271,46.835614 M 69.831409,56.443104 C 68.435375,58.092555 66.875351,59.313572 65.151328,60.106164 C 63.450087,60.877332 61.496282,61.26292 59.289912,61.262918 C 55.605403,61.26292 52.695559,59.934793 50.560354,57.278541 C 48.447974,54.600873 47.535568,51.119907 47.823138,46.835614 C 48.110678,42.55136 49.501067,39.070394 51.99432,36.392693 C 54.487527,33.715047 57.565665,32.376213 61.228753,32.37618 C 63.43512,32.376213 65.346438,32.783225 66.962706,33.597198 C 68.58033,34.389823 69.966463,35.600131 71.121093,37.228125 L 71.403616,33.018828 L 75.998507,33.018828 L 74.411197,56.668035 C 77.570298,56.19677 80.107949,54.772245 82.024148,52.394468 C 83.963095,49.995282 85.059844,46.899898 85.31439,43.108295 C 85.468168,40.816234 85.269924,38.663381 84.719651,36.649747 C 84.190686,34.636168 83.298253,32.772508 82.042363,31.058771 C 80.002834,28.252607 77.426106,26.110469 74.312156,24.632356 C 71.220967,23.132901 67.790315,22.383152 64.020196,22.383108 C 61.385327,22.383152 58.833884,22.736604 56.365856,23.443467 C 53.899205,24.128993 51.591661,25.157215 49.443216,26.528144 C 45.933379,28.713166 43.105892,31.583626 40.960737,35.139539 C 38.838408,38.674096 37.638509,42.508515 37.361025,46.642824 C 37.132413,50.048837 37.528691,53.240621 38.549868,56.218178 C 39.592445,59.195756 41.205003,61.819877 43.387543,64.090535 C 45.48724,66.318362 47.976348,68.010648 50.854881,69.167404 C 53.731927,70.345576 56.852042,70.934663 60.215227,70.934671 C 62.978548,70.934663 65.71998,70.463392 68.439534,69.520864 C 71.178993,68.599735 73.720875,67.27161 76.065203,65.536485 L 78.717703,69.103142 C 75.900519,71.181013 72.870104,72.766192 69.626464,73.858687 C 66.402719,74.972592 63.162839,75.529546 59.906824,75.529556 C 55.943841,75.529546 52.25326,74.822642 48.835076,73.408843 C 45.415404,72.016443 42.424471,69.981414 39.862275,67.303747 C 37.300048,64.626073 35.419222,61.530689 34.219795,58.017573 C 33.021787,54.483063 32.558656,50.691476 32.830404,46.642824 C 33.092074,42.744155 34.069854,39.027548 35.763743,35.492991 C 37.457628,31.958497 39.743972,28.852401 42.622805,26.174692 C 45.568737,23.454217 48.899986,21.37635 52.616557,19.941072 C 56.334507,18.484459 60.217813,17.756136 64.266486,17.756088 C 68.807781,17.756136 72.954533,18.687966 76.706763,20.551579 C 80.480314,22.41528 83.569508,25.060823 85.974352,28.488202 C 87.439993,30.587527 88.507885,32.868908 89.178034,35.332337 C 89.869479,37.795816 90.126812,40.344958 89.950036,42.979769 C 89.571834,48.613602 87.5705,53.058538 83.946021,56.314575 C 80.321426,59.570632 75.505853,61.26292 69.499281,61.391446 L 69.831409,56.443104"
       id="text21625" />
  </g>
</svg>
