<?xml version="1.0" encoding="UTF-8" standalone="no"?>
<!-- Created with Inkscape (http://www.inkscape.org/) -->
<svg
   xmlns:dc="http://purl.org/dc/elements/1.1/"
   xmlns:cc="http://creativecommons.org/ns#"
   xmlns:rdf="http://www.w3.org/1999/02/22-rdf-syntax-ns#"
   xmlns:svg="http://www.w3.org/2000/svg"
   xmlns="http://www.w3.org/2000/svg"
   xmlns:xlink="http://www.w3.org/1999/xlink"
   xmlns:sodipodi="http://sodipodi.sourceforge.net/DTD/sodipodi-0.dtd"
   xmlns:inkscape="http://www.inkscape.org/namespaces/inkscape"
   width="128"
   height="128"
   id="svg3917"
   sodipodi:version="0.32"
   inkscape:version="0.46"
   sodipodi:docbase="/home/silvestre/Desktop/Neu/scalable/actions"
   sodipodi:docname="card.svg"
   inkscape:output_extension="org.inkscape.output.svg.inkscape"
   version="1.0">
  <defs
     id="defs3919">
    <inkscape:perspective
       sodipodi:type="inkscape:persp3d"
       inkscape:vp_x="0 : 24 : 1"
       inkscape:vp_y="0 : 1000 : 0"
       inkscape:vp_z="48 : 24 : 1"
       inkscape:persp3d-origin="24 : 16 : 1"
       id="perspective2911" />
    <linearGradient
       inkscape:collect="always"
       id="linearGradient13141">
      <stop
         style="stop-color:white;stop-opacity:1;"
         offset="0"
         id="stop13143" />
      <stop
         style="stop-color:white;stop-opacity:0.34117648"
         offset="1"
         id="stop13145" />
    </linearGradient>
    <linearGradient
       inkscape:collect="always"
       id="linearGradient13131">
      <stop
         style="stop-color:white;stop-opacity:1;"
         offset="0"
         id="stop13133" />
      <stop
         style="stop-color:white;stop-opacity:0.58823532"
         offset="1"
         id="stop13135" />
    </linearGradient>
    <linearGradient
       inkscape:collect="always"
       id="linearGradient11375">
      <stop
         style="stop-color:black;stop-opacity:0.51502144"
         offset="0"
         id="stop11377" />
      <stop
         style="stop-color:black;stop-opacity:0;"
         offset="1"
         id="stop11379" />
    </linearGradient>
    <linearGradient
       id="linearGradient9615"
       inkscape:collect="always">
      <stop
         id="stop9617"
         offset="0"
         style="stop-color:#f8f8f8;stop-opacity:1" />
      <stop
         id="stop9619"
         offset="1"
         style="stop-color:#e4e4e4;stop-opacity:1" />
    </linearGradient>
    <linearGradient
       inkscape:collect="always"
       id="linearGradient7854">
      <stop
         style="stop-color:#6e6e6e;stop-opacity:1"
         offset="0"
         id="stop7856" />
      <stop
         style="stop-color:#505050;stop-opacity:1"
         offset="1"
         id="stop7858" />
    </linearGradient>
    <linearGradient
       id="linearGradient4832">
      <stop
         id="stop4834"
         offset="0"
         style="stop-color:#fffdf5;stop-opacity:1;" />
      <stop
         style="stop-color:#ffe16f;stop-opacity:1;"
         offset="0.5"
         id="stop4840" />
      <stop
         id="stop4842"
         offset="0.75"
         style="stop-color:#c4a600;stop-opacity:1;" />
      <stop
         id="stop4836"
         offset="1"
         style="stop-color:#aa9000;stop-opacity:1;" />
    </linearGradient>
    <linearGradient
       id="linearGradient8342"
       inkscape:collect="always">
      <stop
         id="stop8344"
         offset="0"
         style="stop-color:white;stop-opacity:1;" />
      <stop
         id="stop8346"
         offset="1"
         style="stop-color:white;stop-opacity:0;" />
    </linearGradient>
    <linearGradient
       id="linearGradient10098"
       inkscape:collect="always">
      <stop
         id="stop10100"
         offset="0"
         style="stop-color:white;stop-opacity:1;" />
      <stop
         id="stop10102"
         offset="1"
         style="stop-color:white;stop-opacity:0.3004292" />
    </linearGradient>
    <linearGradient
       id="linearGradient12737"
       inkscape:collect="always">
      <stop
         id="stop12739"
         offset="0"
         style="stop-color:white;stop-opacity:1;" />
      <stop
         id="stop12741"
         offset="1"
         style="stop-color:white;stop-opacity:0;" />
    </linearGradient>
    <linearGradient
       id="linearGradient18874"
       inkscape:collect="always">
      <stop
         id="stop18876"
         offset="0"
         style="stop-color:#ddd;stop-opacity:1" />
      <stop
         id="stop18878"
         offset="1"
         style="stop-color:black;stop-opacity:1" />
    </linearGradient>
    <linearGradient
       id="linearGradient21548"
       inkscape:collect="always">
      <stop
         id="stop21550"
         offset="0"
         style="stop-color:white;stop-opacity:1;" />
      <stop
         id="stop21552"
         offset="1"
         style="stop-color:white;stop-opacity:0;" />
    </linearGradient>
    <linearGradient
       id="linearGradient22429"
       inkscape:collect="always">
      <stop
         id="stop22431"
         offset="0"
         style="stop-color:black;stop-opacity:1;" />
      <stop
         id="stop22433"
         offset="1"
         style="stop-color:black;stop-opacity:0;" />
    </linearGradient>
    <linearGradient
       id="linearGradient26840"
       inkscape:collect="always">
      <stop
         id="stop26842"
         offset="0"
         style="stop-color:#dd1a1a;stop-opacity:1" />
      <stop
         id="stop26844"
         offset="1"
         style="stop-color:#971212;stop-opacity:1" />
    </linearGradient>
    <linearGradient
       id="linearGradient4925">
      <stop
         id="stop4927"
         offset="0"
         style="stop-color:white;stop-opacity:1" />
      <stop
         style="stop-color:#f3f3f3;stop-opacity:1;"
         offset="0.5"
         id="stop4933" />
      <stop
         id="stop4929"
         offset="1"
         style="stop-color:#bfbfbf;stop-opacity:1;" />
    </linearGradient>
    <radialGradient
       inkscape:collect="always"
       xlink:href="#linearGradient4832"
       id="radialGradient5161"
       gradientUnits="userSpaceOnUse"
       gradientTransform="matrix(1.166794,0,0,1.166794,-14.1775,-2.918896)"
       cx="83.051956"
       cy="15.584253"
       fx="83.051956"
       fy="15.584253"
       r="21.75" />
    <linearGradient
       inkscape:collect="always"
       xlink:href="#linearGradient8342"
       id="linearGradient5163"
       gradientUnits="userSpaceOnUse"
       x1="85.622726"
       y1="-5.7974238"
       x2="85.622726"
       y2="45.035698" />
    <linearGradient
       inkscape:collect="always"
       xlink:href="#linearGradient10098"
       id="linearGradient5165"
       gradientUnits="userSpaceOnUse"
       x1="75.860703"
       y1="-0.11439113"
       x2="87.538048"
       y2="43.466064" />
    <linearGradient
       inkscape:collect="always"
       xlink:href="#linearGradient12737"
       id="linearGradient5167"
       gradientUnits="userSpaceOnUse"
       x1="82.341637"
       y1="22.807331"
       x2="75.412285"
       y2="18.754719" />
    <radialGradient
       inkscape:collect="always"
       xlink:href="#linearGradient4925"
       id="radialGradient5169"
       gradientUnits="userSpaceOnUse"
       gradientTransform="matrix(1.25531,0,0,0.640731,-19.4913,7.401295)"
       cx="76.34375"
       cy="18.108305"
       fx="76.34375"
       fy="18.108305"
       r="6" />
    <radialGradient
       inkscape:collect="always"
       xlink:href="#linearGradient18874"
       id="radialGradient5171"
       gradientUnits="userSpaceOnUse"
       gradientTransform="matrix(1,0,0,1.44898,0,-9.723214)"
       cx="97.03125"
       cy="21.656244"
       fx="97.03125"
       fy="20.5779"
       r="1.53125" />
    <linearGradient
       inkscape:collect="always"
       xlink:href="#linearGradient12737"
       id="linearGradient5173"
       gradientUnits="userSpaceOnUse"
       x1="82.341637"
       y1="22.807331"
       x2="75.412285"
       y2="18.754719" />
    <radialGradient
       inkscape:collect="always"
       xlink:href="#linearGradient4925"
       id="radialGradient5175"
       gradientUnits="userSpaceOnUse"
       gradientTransform="matrix(1.134321,-0.269128,0.271418,0.699749,-15.12345,27.06597)"
       cx="76.159027"
       cy="17.322357"
       fx="76.159027"
       fy="17.322357"
       r="6" />
    <radialGradient
       inkscape:collect="always"
       xlink:href="#linearGradient18874"
       id="radialGradient5177"
       gradientUnits="userSpaceOnUse"
       gradientTransform="matrix(1,-0.759933,0.680865,1.213188,-14.74497,69.12039)"
       cx="97.03125"
       cy="21.656244"
       fx="97.03125"
       fy="20.5779"
       r="1.53125" />
    <linearGradient
       inkscape:collect="always"
       xlink:href="#linearGradient22429"
       id="linearGradient5179"
       gradientUnits="userSpaceOnUse"
       gradientTransform="matrix(0.98655,0,0,1.019267,74.93026,-75.64526)"
       x1="89.283569"
       y1="30.661186"
       x2="89.283569"
       y2="42.931355" />
    <linearGradient
       inkscape:collect="always"
       xlink:href="#linearGradient21548"
       id="linearGradient5181"
       gradientUnits="userSpaceOnUse"
       gradientTransform="matrix(0.98655,0,0,1.019267,74.93026,-75.64526)"
       x1="91"
       y1="41.25"
       x2="88.553329"
       y2="32.118896" />
    <linearGradient
       inkscape:collect="always"
       xlink:href="#linearGradient26840"
       id="linearGradient5183"
       gradientUnits="userSpaceOnUse"
       gradientTransform="matrix(0.854894,0,0,1.189178,86.84086,-83.87492)"
       x1="88.379189"
       y1="39.938652"
       x2="88.379189"
       y2="36.394733" />
    <linearGradient
       inkscape:collect="always"
       xlink:href="#linearGradient7854"
       id="linearGradient7860"
       x1="15.6875"
       y1="31.620987"
       x2="15.6875"
       y2="36.003387"
       gradientUnits="userSpaceOnUse"
       gradientTransform="matrix(2.6560943,0,0,2.6560943,-5.3121883,-6.6243734)" />
    <linearGradient
       inkscape:collect="always"
       xlink:href="#linearGradient9615"
       id="linearGradient9624"
       gradientUnits="userSpaceOnUse"
       gradientTransform="matrix(2.9595504,0,0,2.6837469,-6.0708301,-4.6897513)"
       x1="22.124464"
       y1="22.509439"
       x2="22.124464"
       y2="36.63607" />
    <linearGradient
       inkscape:collect="always"
       xlink:href="#linearGradient11375"
       id="linearGradient11381"
       x1="50.348782"
       y1="22.6915"
       x2="43.209671"
       y2="22.6915"
       gradientUnits="userSpaceOnUse"
       gradientTransform="matrix(2.6560943,0,0,2.6560943,1.6888315e-7,-6.6243734)" />
    <linearGradient
       inkscape:collect="always"
       xlink:href="#linearGradient13131"
       id="linearGradient13137"
       x1="23.274334"
       y1="7.1232281"
       x2="23.274334"
       y2="46.824097"
       gradientUnits="userSpaceOnUse"
       gradientTransform="matrix(2.6560943,0,0,2.6560943,1.6888315e-7,-6.6243734)" />
    <linearGradient
       inkscape:collect="always"
       xlink:href="#linearGradient13141"
       id="linearGradient13147"
       x1="43.356365"
       y1="4.9198756"
       x2="43.356365"
       y2="33.896168"
       gradientUnits="userSpaceOnUse"
       gradientTransform="matrix(2.6560943,0,0,2.6560943,1.6888315e-7,-6.6243734)" />
    <linearGradient
       id="linearGradient7473">
      <stop
         id="stop7475"
         offset="0"
         style="stop-color:white;stop-opacity:1;" />
      <stop
         style="stop-color:#fffc9d;stop-opacity:0.97254902;"
         offset="0.5"
         id="stop7481" />
      <stop
         id="stop7483"
         offset="0.75"
         style="stop-color:#fff409;stop-opacity:0.67676765;" />
      <stop
         id="stop7477"
         offset="1"
         style="stop-color:#fff409;stop-opacity:0;" />
    </linearGradient>
    <radialGradient
       inkscape:collect="always"
       xlink:href="#linearGradient7473"
       id="radialGradient13266"
       gradientUnits="userSpaceOnUse"
       cx="27.930717"
       cy="18.124739"
       fx="27.930717"
       fy="18.124739"
       r="9.1923885" />
    <linearGradient
       inkscape:collect="always"
       xlink:href="#linearGradient26840"
       id="linearGradient2916"
       gradientUnits="userSpaceOnUse"
       gradientTransform="matrix(0.6874208,0,0,0.9596458,-33.596596,14.966221)"
       x1="88.379189"
       y1="39.938652"
       x2="88.379189"
       y2="36.394733" />
    <linearGradient
       inkscape:collect="always"
       xlink:href="#linearGradient22429"
       id="linearGradient2919"
       gradientUnits="userSpaceOnUse"
       gradientTransform="matrix(0.7932856,0,0,0.8225308,-43.173918,21.607412)"
       x1="89.283569"
       y1="30.661186"
       x2="89.283569"
       y2="42.931355" />
    <linearGradient
       inkscape:collect="always"
       xlink:href="#linearGradient21548"
       id="linearGradient2921"
       gradientUnits="userSpaceOnUse"
       gradientTransform="matrix(0.7932856,0,0,0.8225308,-43.173918,21.607412)"
       x1="91"
       y1="41.25"
       x2="88.553329"
       y2="32.118896" />
  </defs>
  <sodipodi:namedview
     id="base"
     pagecolor="#ffffff"
     bordercolor="#666666"
     borderopacity="1.0"
     inkscape:pageopacity="0.0"
     inkscape:pageshadow="2"
     inkscape:zoom="4.6796875"
     inkscape:cx="64"
     inkscape:cy="64"
     inkscape:current-layer="layer1"
     showgrid="false"
     inkscape:grid-bbox="true"
     inkscape:document-units="px"
     inkscape:showpageshadow="false"
     showborder="true"
     inkscape:window-width="1274"
     inkscape:window-height="829"
     inkscape:window-x="0"
     inkscape:window-y="31" />
  <metadata
     id="metadata3922">
    <rdf:RDF>
      <cc:Work
         rdf:about="">
        <dc:format>image/svg+xml</dc:format>
        <dc:type
           rdf:resource="http://purl.org/dc/dcmitype/StillImage" />
      </cc:Work>
    </rdf:RDF>
  </metadata>
  <g
     id="layer1"
     inkscape:label="Layer 1"
     inkscape:groupmode="layer">
    <path
       style="opacity:1;fill:url(#linearGradient9624);fill-opacity:1;stroke:#969696;stroke-width:2.65609264;stroke-linecap:round;stroke-linejoin:round;stroke-miterlimit:4;stroke-dashoffset:0;stroke-opacity:1"
       d="M 7.1343886,15.438353 L 117.53807,5.3280441 L 126.16442,11.730137 L 126.16442,99.27658 L 117.53807,106.25958 L 7.1343886,98.634504 C 3.9176749,98.634504 1.3280462,96.240601 1.3280462,93.26701 L 1.3280462,20.805845 C 1.3280462,17.832255 3.9176749,15.438353 7.1343886,15.438353 z"
       id="rect3925"
       sodipodi:nodetypes="ccccccccc" />
    <path
       transform="matrix(0.8124562,0,0,0.8124562,-44.833702,21.991124)"
       d="M 109.125,23.625 A 21.25,21.25 0 1 1 66.625,23.625 A 21.25,21.25 0 1 1 109.125,23.625 z"
       sodipodi:ry="21.25"
       sodipodi:rx="21.25"
       sodipodi:cy="23.625"
       sodipodi:cx="87.875"
       id="path28661"
       style="fill:url(#radialGradient5161);fill-opacity:1;stroke:#8e7d00;stroke-width:3.26920891;stroke-linecap:round;stroke-linejoin:round;stroke-miterlimit:4;stroke-dasharray:none;stroke-dashoffset:0;stroke-opacity:1"
       sodipodi:type="arc" />
    <path
       transform="matrix(0.6206926,0,0,0.3991021,-27.891646,24.300893)"
       d="M 109.125,23.625 A 21.25,21.25 0 1 1 66.625,23.625 A 21.25,21.25 0 1 1 109.125,23.625 z"
       sodipodi:ry="21.25"
       sodipodi:rx="21.25"
       sodipodi:cy="23.625"
       sodipodi:cx="87.875"
       id="path28663"
       style="fill:url(#linearGradient5163);fill-opacity:1;stroke:none;stroke-width:1;stroke-linecap:round;stroke-linejoin:round;stroke-miterlimit:4;stroke-dasharray:none;stroke-dashoffset:0;stroke-opacity:1"
       sodipodi:type="arc" />
    <path
       transform="matrix(0.6874593,0,0,0.6874596,-33.849557,24.94409)"
       d="M 109.125,23.625 A 21.25,21.25 0 1 1 66.625,23.625 A 21.25,21.25 0 1 1 109.125,23.625 z"
       sodipodi:ry="21.25"
       sodipodi:rx="21.25"
       sodipodi:cy="23.625"
       sodipodi:cx="87.875"
       id="path28665"
       style="fill:none;fill-opacity:1;stroke:url(#linearGradient5165);stroke-width:3.86362863;stroke-linecap:round;stroke-linejoin:round;stroke-miterlimit:4;stroke-dasharray:none;stroke-dashoffset:0;stroke-opacity:1"
       sodipodi:type="arc" />
    <g
       transform="matrix(0.9150271,0,0,0.8428626,-58.732966,20.62935)"
       id="g28667">
      <path
         sodipodi:type="arc"
         style="opacity:0.66527201;fill:#000000;fill-opacity:0.79399139;stroke:url(#linearGradient5167);stroke-width:1.73945773;stroke-linecap:round;stroke-linejoin:round;stroke-miterlimit:4;stroke-dasharray:none;stroke-dashoffset:0;stroke-opacity:1"
         id="path28669"
         sodipodi:cx="77.875"
         sodipodi:cy="19.9375"
         sodipodi:rx="6"
         sodipodi:ry="3.0625"
         d="M 83.875,19.9375 A 6,3.0625 0 1 1 71.875,19.9375 A 6,3.0625 0 1 1 83.875,19.9375 z"
         transform="matrix(1.185096,0,0,2.55102,3.773128,-29.67347)" />
      <path
         id="path28671"
         d="M 83.875,19.9375 C 83.875,21.628 81.187,23 77.875,23 C 74.563,23 71.875,21.628 71.875,19.9375 C 71.875,18.247 74.563,16.875 77.875,16.875 C 81.187,16.875 83.875,18.247 83.875,19.9375 z"
         style="fill:url(#radialGradient5169);fill-opacity:1;stroke:none;stroke-width:0.57513034;stroke-linecap:round;stroke-linejoin:round;stroke-miterlimit:4;stroke-dashoffset:0;stroke-opacity:1"
         transform="matrix(1.080929,0,0,2.326792,11.88511,-25.20293)" />
      <path
         sodipodi:type="arc"
         style="opacity:1;fill:url(#radialGradient5171);fill-opacity:1;stroke:none;stroke-width:1;stroke-linecap:round;stroke-linejoin:round;stroke-miterlimit:4;stroke-dasharray:none;stroke-dashoffset:0;stroke-opacity:1"
         id="path28673"
         sodipodi:cx="97.03125"
         sodipodi:cy="21.65625"
         sodipodi:rx="1.53125"
         sodipodi:ry="2.21875"
         d="M 98.5625,21.65625 A 1.53125,2.21875 0 1 1 95.5,21.65625 A 1.53125,2.21875 0 1 1 98.5625,21.65625 z"
         transform="matrix(1.693537,0,0,1.460974,-69.58096,-9.187924)" />
    </g>
    <g
       transform="matrix(0.6592402,0,0,1.4071297,-39.720086,9.1570356)"
       id="g28675">
      <path
         sodipodi:nodetypes="cssccssc"
         id="path28677"
         d="M 83.875,19.9375 C 83.875,21.628 81.187,23 77.875,23 C 76.220509,23 73.617112,22.799384 73.60083,21.885817 C 73.598575,21.75926 73.598253,21.635046 73.599969,21.513043 C 74.130782,21.571138 75.22073,18.599435 74.696801,17.882889 C 74.839131,17.689249 74.997277,17.498679 75.172348,17.309778 C 75.622549,16.824012 76.89588,16.875 77.875,16.875 C 81.187,16.875 83.875,18.247 83.875,19.9375 z"
         style="opacity:0.66527201;fill:#000000;fill-opacity:0.79399139;stroke:url(#linearGradient5173);stroke-width:2.05793929;stroke-linecap:round;stroke-linejoin:round;stroke-miterlimit:4;stroke-dasharray:none;stroke-dashoffset:0;stroke-opacity:1"
         transform="matrix(1.185096,0,0,1.515268,-12.91437,-9.335655)" />
      <path
         transform="matrix(1.080929,0,0,1.38208,-4.80239,-6.680221)"
         sodipodi:nodetypes="cscssc"
         id="path28679"
         d="M 83.875,19.9375 C 83.875,21.628 81.187,23 77.875,23 C 76.144565,23 73.445601,22.712646 73.489089,21.764069 C 72.913112,20.085941 73.752281,18.315767 75.067938,17.35527 C 75.685082,16.904724 76.861096,16.875 77.875,16.875 C 81.187,16.875 83.875,18.247 83.875,19.9375 z"
         style="fill:url(#radialGradient5175);fill-opacity:1;stroke:none;stroke-width:0.57513034;stroke-linecap:round;stroke-linejoin:round;stroke-miterlimit:4;stroke-dashoffset:0;stroke-opacity:1" />
      <path
         sodipodi:type="arc"
         style="fill:url(#radialGradient5177);fill-opacity:1;stroke:none;stroke-width:1;stroke-linecap:round;stroke-linejoin:round;stroke-miterlimit:4;stroke-dasharray:none;stroke-dashoffset:0;stroke-opacity:1"
         id="path28681"
         sodipodi:cx="97.03125"
         sodipodi:cy="21.65625"
         sodipodi:rx="1.53125"
         sodipodi:ry="2.21875"
         d="M 98.5625,21.65625 A 1.53125,2.21875 0 1 1 95.5,21.65625 A 1.53125,2.21875 0 1 1 98.5625,21.65625 z"
         transform="matrix(2.018976,0,0,0.97927,-116.1862,0.835945)" />
    </g>
    <path
       sodipodi:nodetypes="csssc"
       id="path28683"
       d="M 35.85719,50.318885 C 35.85719,52.518126 31.692437,55.793855 26.560877,55.793855 C 21.4293,55.793855 17.264549,52.518126 17.264549,50.318885 C 17.264549,48.119642 21.4293,47.825588 26.560877,47.825588 C 31.692437,47.825588 35.85719,48.119642 35.85719,50.318885 z"
       style="fill:url(#linearGradient2919);fill-opacity:1;stroke:url(#linearGradient2921);stroke-width:2.65608788;stroke-linecap:round;stroke-linejoin:round;stroke-miterlimit:4;stroke-dashoffset:0;stroke-opacity:1" />
    <path
       sodipodi:nodetypes="cssscc"
       id="path28685"
       d="M 24.017828,49.153606 C 22.013993,49.153606 20.812016,50.620038 21.397039,52.002554 C 22.814202,55.351549 29.982776,55.040034 31.66538,52.542355 C 32.453384,51.372635 30.921001,49.153606 28.400129,49.153606 C 27.726639,49.153606 26.688953,50.29089 26.187501,50.653054 C 25.68604,50.29089 24.691327,49.153606 24.017828,49.153606 z"
       style="fill:url(#linearGradient2916);fill-opacity:1;stroke:none;stroke-width:1;stroke-linecap:round;stroke-linejoin:round;stroke-miterlimit:4;stroke-dasharray:none;stroke-dashoffset:0;stroke-opacity:1" />
    <path
       id="text5185"
       d="M 49.681136,29.214322 L 52.059039,29.144263 L 52.059039,38.250121 C 52.059031,39.506568 51.746098,40.454743 51.120226,41.094652 C 50.498472,41.734436 49.55555,42.072953 48.291456,42.110196 L 47.809694,42.124391 L 47.809694,40.15866 L 48.180272,40.147744 C 48.674394,40.133183 49.04703,39.971342 49.298207,39.662215 C 49.553492,39.352966 49.681128,38.905621 49.681136,38.320181 L 49.681136,29.214322 M 57.568357,33.048506 C 57.078355,33.062947 56.70366,33.267634 56.44425,33.662563 C 56.188962,34.052876 56.061321,34.610555 56.061321,35.335594 C 56.061321,36.060644 56.188962,36.613054 56.44425,36.992822 C 56.70366,37.367969 57.078355,37.548323 57.568357,37.533884 C 58.050111,37.519693 58.418621,37.317439 58.673924,36.927129 C 58.92921,36.532319 59.056854,35.972388 59.056854,35.247338 C 59.056854,34.522296 58.92921,33.972141 58.673924,33.59687 C 58.418621,33.217107 58.050111,33.034317 57.568357,33.048506 M 57.568357,31.319203 C 58.758322,31.28415 59.686842,31.608058 60.353891,32.290927 C 61.025049,32.973686 61.360633,33.936531 61.360641,35.179464 C 61.360633,36.422402 61.025049,37.405021 60.353891,38.127322 C 59.686842,38.849506 58.758322,39.228127 57.568357,39.263185 C 56.374251,39.298367 55.439556,38.974643 54.764281,38.292008 C 54.093123,37.609256 53.757531,36.646411 53.757531,35.403471 C 53.757531,34.160541 54.093123,33.177921 54.764281,32.455613 C 55.439556,31.733195 56.374251,31.354391 57.568357,31.319203 M 69.927257,34.096192 L 69.927257,38.703161 L 67.703766,38.768671 L 67.703766,38.018855 L 67.703766,35.256026 C 67.703758,34.594031 67.689348,34.139614 67.660535,33.892772 C 67.635825,33.645819 67.590531,33.464766 67.524652,33.349614 C 67.438178,33.194546 67.320829,33.076414 67.1726,32.995209 C 67.024363,32.909515 66.855542,32.869456 66.666139,32.875031 C 66.204969,32.888622 65.842625,33.095197 65.579097,33.494751 C 65.31557,33.889811 65.18381,34.431848 65.18381,35.120862 L 65.18381,38.842916 L 62.972677,38.908062 L 62.972677,28.397146 L 65.18381,28.332 L 65.18381,32.385051 C 65.517335,31.9339 65.871446,31.599224 66.246146,31.381021 C 66.620842,31.158328 67.034656,31.040307 67.487592,31.026955 C 68.286401,31.003428 68.89168,31.253547 69.303452,31.77731 C 69.719308,32.300967 69.927249,33.073927 69.927257,34.096192 M 78.944755,33.830511 L 78.944755,38.437479 L 76.721264,38.502992 L 76.721264,37.753177 L 76.721264,34.976836 C 76.721264,34.323848 76.706847,33.873932 76.678026,33.627091 C 76.653316,33.380138 76.608022,33.199085 76.54215,33.083933 C 76.455676,32.928868 76.338327,32.810732 76.190098,32.72953 C 76.041854,32.643834 75.87304,32.603775 75.683637,32.60935 C 75.222459,32.622944 74.860115,32.829516 74.596596,33.22907 C 74.333061,33.624129 74.2013,34.166167 74.2013,34.855184 L 74.2013,38.577235 L 71.990168,38.642381 L 71.990168,31.076683 L 74.2013,31.011537 L 74.2013,32.119372 C 74.534826,31.668219 74.888936,31.333543 75.263637,31.115339 C 75.638332,30.892647 76.052146,30.774626 76.50509,30.761274 C 77.303892,30.737746 77.90917,30.987866 78.320942,31.511629 C 78.736815,32.035286 78.944747,32.808246 78.944755,33.830511 M 87.881954,30.054551 L 87.881954,36.208435 L 88.734295,36.183324 C 89.706032,36.154694 90.447189,35.869411 90.957786,35.327467 C 91.472473,34.785408 91.72982,34.012251 91.729828,33.00799 C 91.72982,32.008244 91.474532,31.254694 90.963961,30.747335 C 90.453372,30.239994 89.710149,30.000694 88.734295,30.029438 L 87.881954,30.054551 M 85.504051,28.158878 L 88.011657,28.084999 C 89.411628,28.04376 90.453372,28.123401 91.1369,28.32392 C 91.824517,28.519831 92.413336,28.871761 92.90333,29.379709 C 93.335673,29.821822 93.656845,30.337003 93.866844,30.925256 C 94.076835,31.513525 94.181835,32.183687 94.181843,32.935747 C 94.181835,33.696827 94.076835,34.379929 93.866844,34.985064 C 93.656845,35.585703 93.335673,36.119809 92.90333,36.587388 C 92.409219,37.124341 91.816283,37.513339 91.124549,37.754385 C 90.432788,37.990929 89.395153,38.129582 88.011657,38.170345 L 85.504051,38.244225 L 85.504051,28.158878 M 99.197059,31.822007 C 98.707063,31.83645 98.33236,32.041137 98.07295,32.436064 C 97.817665,32.826379 97.690013,33.384056 97.690021,34.109098 C 97.690013,34.834148 97.817665,35.386554 98.07295,35.766323 C 98.33236,36.141469 98.707063,36.321823 99.197059,36.307388 C 99.678811,36.293193 100.04732,36.090942 100.30262,35.700632 C 100.55791,35.30582 100.68555,34.745891 100.68555,34.020841 C 100.68555,33.295799 100.55791,32.745645 100.30262,32.370373 C 100.04732,31.990608 99.678811,31.80782 99.197059,31.822007 M 99.197059,30.092706 C 100.38702,30.057654 101.31554,30.381562 101.98259,31.06443 C 102.65375,31.74719 102.98934,32.710035 102.98934,33.952964 C 102.98934,35.195905 102.65375,36.178524 101.98259,36.900825 C 101.31554,37.623007 100.38702,38.001628 99.197059,38.036688 C 98.002954,38.071871 97.068258,37.748146 96.392991,37.065511 C 95.721823,36.382757 95.386233,35.419912 95.386233,34.176974 C 95.386233,32.934044 95.721823,31.951425 96.392991,31.229113 C 97.068258,30.506698 98.002954,30.127894 99.197059,30.092706 M 111.55596,32.869695 L 111.55596,37.476664 L 109.33247,37.542174 L 109.33247,36.792358 L 109.33247,34.029529 C 109.33246,33.367535 109.31805,32.913117 109.28924,32.666273 C 109.26453,32.41932 109.21923,32.23827 109.15335,32.123115 C 109.06687,31.968049 108.94952,31.849917 108.8013,31.768712 C 108.65306,31.683019 108.48424,31.642959 108.29484,31.648534 C 107.83366,31.662128 107.47132,31.868701 107.20779,32.268252 C 106.94427,32.663314 106.8125,33.205351 106.81251,33.894366 L 106.81251,37.61642 L 104.60137,37.681566 L 104.60137,27.170649 L 106.81251,27.105503 L 106.81251,31.158554 C 107.14603,30.707403 107.50014,30.372725 107.87485,30.154521 C 108.24954,29.931832 108.66336,29.813811 109.11629,29.800459 C 109.91509,29.776931 110.52038,30.027047 110.93214,30.550813 C 111.34801,31.07447 111.55595,31.847431 111.55596,32.869695"
       style="font-size:16.42194557px;font-style:normal;font-variant:normal;font-weight:bold;font-stretch:normal;text-align:start;line-height:125%;writing-mode:lr-tb;text-anchor:start;fill:#505050;fill-opacity:1;stroke:none;stroke-width:1px;stroke-linecap:butt;stroke-linejoin:miter;stroke-opacity:1;font-family:Bitstream Vera Sans" />
    <path
       id="rect5190"
       d="M 47.809723,46.497546 L 47.809723,49.236643 L 66.402383,49.236643 L 66.402383,46.497546 L 47.809723,46.497546 z M 74.370666,46.497546 L 74.370666,49.236643 L 111.55599,49.236643 L 111.55599,46.497546 L 74.370666,46.497546 z M 47.809723,54.382826 L 47.809723,57.121923 L 74.370666,57.121923 L 74.370666,54.382826 L 47.809723,54.382826 z M 82.338949,54.382826 L 82.338949,57.121923 L 111.55599,57.121923 L 111.55599,54.382826 L 82.338949,54.382826 z M 47.809723,62.351109 L 47.809723,65.090206 L 66.402383,65.090206 L 66.402383,62.351109 L 47.809723,62.351109 z M 74.370666,62.351109 L 74.370666,65.090206 L 111.55599,65.090206 L 111.55599,62.351109 L 74.370666,62.351109 z"
       style="opacity:0.5;fill:#000000;fill-opacity:0.71244632;stroke:none;stroke-width:1;stroke-linecap:round;stroke-linejoin:round;stroke-miterlimit:4;stroke-dasharray:none;stroke-dashoffset:0;stroke-opacity:1" />
    <path
       style="opacity:1;fill:url(#linearGradient7860);fill-opacity:1;stroke:none;stroke-width:1;stroke-linecap:round;stroke-linejoin:round;stroke-miterlimit:4;stroke-dasharray:none;stroke-dashoffset:0;stroke-opacity:1"
       d="M 13.280471,73.058454 L 13.280471,88.203844 L 15.936566,88.203844 L 15.936566,73.058454 L 13.280471,73.058454 z M 18.59266,73.058454 L 18.59266,88.99502 L 21.248754,88.99502 L 21.248754,73.058454 L 18.59266,73.058454 z M 23.904848,73.058454 L 23.904848,89.673171 L 29.217037,89.673171 L 29.217037,73.058454 L 23.904848,73.058454 z M 34.529225,73.058454 L 34.529225,90.012245 L 37.18532,90.012245 L 37.18532,73.058454 L 34.529225,73.058454 z M 39.841414,73.058454 L 39.841414,90.464347 L 42.497508,90.464347 L 42.497508,73.058454 L 39.841414,73.058454 z M 47.809697,73.058454 L 47.809697,90.916449 L 50.465791,90.916449 L 50.465791,73.058454 L 47.809697,73.058454 z M 53.121885,73.058454 L 53.121885,90.916449 L 55.77798,90.916449 L 55.77798,73.058454 L 53.121885,73.058454 z M 61.090168,73.058454 L 61.090168,91.820653 L 66.402357,91.820653 L 66.402357,73.058454 L 61.090168,73.058454 z M 69.058451,73.058454 L 69.058451,92.498804 L 71.714545,92.498804 L 71.714545,73.058454 L 69.058451,73.058454 z M 74.370639,73.058454 L 74.370639,92.498804 L 77.026734,92.498804 L 77.026734,73.058454 L 74.370639,73.058454 z M 82.338922,73.058454 L 82.338922,93.403005 L 84.995016,93.403005 L 84.995016,73.058454 L 82.338922,73.058454 z M 87.651111,73.058454 L 87.651111,93.403005 L 90.307205,93.403005 L 90.307205,73.058454 L 87.651111,73.058454 z M 92.963299,73.058454 L 92.963299,94.307208 L 98.275488,94.307208 L 98.275488,73.058454 L 92.963299,73.058454 z M 100.93158,73.058454 L 100.93158,94.307208 L 103.58768,94.307208 L 103.58768,73.058454 L 100.93158,73.058454 z"
       id="rect6949"
       sodipodi:nodetypes="cccccccccccccccccccccccccccccccccccccccccccccccccccccccccccccccccccccc" />
    <path
       style="fill:url(#linearGradient11381);fill-opacity:1;stroke:none;stroke-width:1;stroke-linecap:round;stroke-linejoin:round;stroke-miterlimit:4;stroke-dashoffset:0;stroke-opacity:1"
       d="M 116.86815,6.6560979 L 124.83643,12.410406 L 124.83643,98.697751 L 116.86815,104.93159 L 116.86815,6.6560979 z"
       id="rect10499"
       sodipodi:nodetypes="ccccc" />
    <path
       style="opacity:1;fill:none;fill-opacity:1;stroke:url(#linearGradient13137);stroke-width:2.65609288;stroke-linecap:round;stroke-linejoin:round;stroke-miterlimit:4;stroke-dashoffset:0;stroke-opacity:1"
       d="M 9.5434082,17.562344 L 116.54785,7.9841493 L 123.50841,13.010323 L 123.50841,98.286818 L 116.54785,103.60358 L 9.5434082,96.379817 C 6.4635737,96.379817 3.9841402,94.111906 3.9841402,91.294818 L 3.9841402,22.647339 C 3.9841402,19.830253 6.4635737,17.562344 9.5434082,17.562344 z"
       id="path12256"
       sodipodi:nodetypes="ccccccccc" />
    <path
       style="fill:none;fill-opacity:1;fill-rule:evenodd;stroke:url(#linearGradient13147);stroke-width:2.65609431px;stroke-linecap:butt;stroke-linejoin:miter;stroke-opacity:1"
       d="M 115.5401,9.4958504 L 115.5401,103.60354"
       id="path13139" />
  </g>
</svg>
