<?xml version="1.0" encoding="UTF-8" standalone="no"?>
<!-- Generator: Adobe Illustrator 10.0.3, SVG Export Plug-In . SVG Version: 3.0.0 Build 77)  -->
<svg
   xmlns:a="http://ns.adobe.com/AdobeSVGViewerExtensions/3.0/"
   xmlns:dc="http://purl.org/dc/elements/1.1/"
   xmlns:cc="http://creativecommons.org/ns#"
   xmlns:rdf="http://www.w3.org/1999/02/22-rdf-syntax-ns#"
   xmlns:svg="http://www.w3.org/2000/svg"
   xmlns="http://www.w3.org/2000/svg"
   xmlns:xlink="http://www.w3.org/1999/xlink"
   xmlns:sodipodi="http://sodipodi.sourceforge.net/DTD/sodipodi-0.dtd"
   xmlns:inkscape="http://www.inkscape.org/namespaces/inkscape"
   width="128"
   height="128"
   viewBox="0 0 128 128"
   overflow="visible"
   enable-background="new 0 0 128 128"
   xml:space="preserve"
   id="svg42952"
   sodipodi:version="0.32"
   inkscape:version="0.46"
   sodipodi:docname="date1.svg"
   inkscape:output_extension="org.inkscape.output.svg.inkscape"><metadata
   id="metadata43132"><rdf:RDF><cc:Work
       rdf:about=""><dc:format>image/svg+xml</dc:format><dc:type
         rdf:resource="http://purl.org/dc/dcmitype/StillImage" /></cc:Work></rdf:RDF></metadata><defs
   id="defs43130"><inkscape:perspective
   sodipodi:type="inkscape:persp3d"
   inkscape:vp_x="0 : 64 : 1"
   inkscape:vp_y="0 : 1000 : 0"
   inkscape:vp_z="128 : 64 : 1"
   inkscape:persp3d-origin="64 : 42.666667 : 1"
   id="perspective43134" />
		
		
	<linearGradient
   inkscape:collect="always"
   xlink:href="#XMLID_1_"
   id="linearGradient43232"
   gradientUnits="userSpaceOnUse"
   x1="63.920399"
   y1="154.5645"
   x2="63.920399"
   y2="-100.9347" /><linearGradient
   inkscape:collect="always"
   xlink:href="#XMLID_2_"
   id="linearGradient43234"
   gradientUnits="userSpaceOnUse"
   x1="-26.333"
   y1="-26.333"
   x2="56.166199"
   y2="56.166199" /><linearGradient
   inkscape:collect="always"
   xlink:href="#XMLID_3_"
   id="linearGradient43236"
   gradientUnits="userSpaceOnUse"
   x1="43.0229"
   y1="25.4214"
   x2="204.00729"
   y2="111.0652" /><linearGradient
   inkscape:collect="always"
   xlink:href="#XMLID_4_"
   id="linearGradient43238"
   gradientUnits="userSpaceOnUse"
   x1="-3.8062"
   y1="10.6514"
   x2="127.5141"
   y2="10.6514" /><linearGradient
   inkscape:collect="always"
   xlink:href="#XMLID_5_"
   id="linearGradient43240"
   gradientUnits="userSpaceOnUse"
   gradientTransform="matrix(1.0077,0,2.35e-2,1.0077,279.3983,-430.8782)"
   x1="-222.4521"
   y1="467.37891"
   x2="-229.62511"
   y2="535.62531" /><linearGradient
   inkscape:collect="always"
   xlink:href="#XMLID_6_"
   id="linearGradient43242"
   gradientUnits="userSpaceOnUse"
   gradientTransform="matrix(1,2.51e-2,-8.99e-2,1.0896,333.9921,-464.4864)"
   x1="-206.895"
   y1="471.56931"
   x2="-242.0762"
   y2="527.87097" /><linearGradient
   inkscape:collect="always"
   xlink:href="#XMLID_7_"
   id="linearGradient43244"
   gradientUnits="userSpaceOnUse"
   gradientTransform="matrix(1,2.51e-2,-8.99e-2,1.0896,333.9921,-464.4864)"
   x1="-228.34419"
   y1="467.44821"
   x2="-224.85609"
   y2="534.00562" /><linearGradient
   inkscape:collect="always"
   xlink:href="#XMLID_8_"
   id="linearGradient43246"
   gradientUnits="userSpaceOnUse"
   gradientTransform="matrix(1.0305,0,2.4e-2,1.0305,283.5052,-442.7468)"
   x1="-264.41849"
   y1="505.24899"
   x2="-246.439"
   y2="509.73181" /><linearGradient
   inkscape:collect="always"
   xlink:href="#XMLID_9_"
   id="linearGradient43248"
   gradientUnits="userSpaceOnUse"
   gradientTransform="matrix(1.1276,0.1664,0,0.8523,317.1191,-321.7438)"
   x1="-251.3535"
   y1="483.96289"
   x2="-262.96521"
   y2="470.6051" /><linearGradient
   inkscape:collect="always"
   xlink:href="#XMLID_10_"
   id="linearGradient43250"
   gradientUnits="userSpaceOnUse"
   gradientTransform="matrix(1.1276,0.1664,0,0.8523,317.1191,-327.1383)"
   x1="-196.3101"
   y1="465.82809"
   x2="-260.37161"
   y2="462.47079" /><linearGradient
   inkscape:collect="always"
   xlink:href="#XMLID_11_"
   id="linearGradient43252"
   gradientUnits="userSpaceOnUse"
   x1="16.730499"
   y1="57.568401"
   x2="107.3123"
   y2="17.0446" /><linearGradient
   inkscape:collect="always"
   xlink:href="#XMLID_12_"
   id="linearGradient43254"
   gradientUnits="userSpaceOnUse"
   x1="58.109402"
   y1="80.6035"
   x2="99.101799"
   y2="62.849602" /><linearGradient
   inkscape:collect="always"
   xlink:href="#XMLID_13_"
   id="linearGradient43256"
   gradientUnits="userSpaceOnUse"
   x1="54.158699"
   y1="38.597198"
   x2="102.8996"
   y2="34.124401" /><linearGradient
   inkscape:collect="always"
   xlink:href="#XMLID_14_"
   id="linearGradient43258"
   gradientUnits="userSpaceOnUse"
   x1="63.108398"
   y1="96.8311"
   x2="98.596901"
   y2="88.3806" /><linearGradient
   inkscape:collect="always"
   xlink:href="#XMLID_15_"
   id="linearGradient43260"
   gradientUnits="userSpaceOnUse"
   x1="56.617699"
   y1="52.4561"
   x2="104.6163"
   y2="47.517101" /><radialGradient
   inkscape:collect="always"
   xlink:href="#XMLID_16_"
   id="radialGradient43262"
   gradientUnits="userSpaceOnUse"
   cx="108.4668"
   cy="118.249"
   fx="108.4668"
   fy="118.249"
   r="34.736401" /><linearGradient
   inkscape:collect="always"
   xlink:href="#XMLID_17_"
   id="linearGradient43264"
   gradientUnits="userSpaceOnUse"
   x1="104.0166"
   y1="98.180702"
   x2="95.088303"
   y2="135.79379" /><linearGradient
   inkscape:collect="always"
   xlink:href="#XMLID_18_"
   id="linearGradient43266"
   gradientUnits="userSpaceOnUse"
   x1="82.308601"
   y1="88.092796"
   x2="96.104301"
   y2="101.8885" />
			
			<linearGradient
   id="XMLID_1_"
   gradientUnits="userSpaceOnUse"
   x1="63.920399"
   y1="154.5645"
   x2="63.920399"
   y2="-100.9347">
				<stop
   offset="0"
   style="stop-color:#FFFFFF"
   id="stop42960" />
				<stop
   offset="0.2457"
   style="stop-color:#F6F6F6"
   id="stop42962" />
				<stop
   offset="0.6374"
   style="stop-color:#DFDFDF"
   id="stop42964" />
				<stop
   offset="1"
   style="stop-color:#C4C4C4"
   id="stop42966" />
				<a:midPointStop
   offset="0"
   style="stop-color:#FFFFFF" />
				<a:midPointStop
   offset="0.6045"
   style="stop-color:#FFFFFF" />
				<a:midPointStop
   offset="1"
   style="stop-color:#C4C4C4" />
			</linearGradient>
			
			<linearGradient
   id="XMLID_2_"
   gradientUnits="userSpaceOnUse"
   x1="-26.333"
   y1="-26.333"
   x2="56.166199"
   y2="56.166199">
				<stop
   offset="0"
   style="stop-color:#B3B3B3"
   id="stop42971" />
				<stop
   offset="1"
   style="stop-color:#828282"
   id="stop42973" />
				<a:midPointStop
   offset="0"
   style="stop-color:#B3B3B3" />
				<a:midPointStop
   offset="0.5"
   style="stop-color:#B3B3B3" />
				<a:midPointStop
   offset="1"
   style="stop-color:#828282" />
			</linearGradient>
			
			<linearGradient
   id="XMLID_3_"
   gradientUnits="userSpaceOnUse"
   x1="43.0229"
   y1="25.4214"
   x2="204.00729"
   y2="111.0652">
				<stop
   offset="0"
   style="stop-color:#FFFFFF"
   id="stop42978" />
				<stop
   offset="0.8603"
   style="stop-color:#DADADA"
   id="stop42980" />
				<stop
   offset="1"
   style="stop-color:#D4D4D4"
   id="stop42982" />
				<a:midPointStop
   offset="0"
   style="stop-color:#FFFFFF" />
				<a:midPointStop
   offset="0.5254"
   style="stop-color:#FFFFFF" />
				<a:midPointStop
   offset="1"
   style="stop-color:#D4D4D4" />
			</linearGradient>
			
			<linearGradient
   id="XMLID_4_"
   gradientUnits="userSpaceOnUse"
   x1="-3.8062"
   y1="10.6514"
   x2="127.5141"
   y2="10.6514">
				<stop
   offset="0"
   style="stop-color:#B3CAFF"
   id="stop42987" />
				<stop
   offset="1"
   style="stop-color:#0053BD"
   id="stop42989" />
				<a:midPointStop
   offset="0"
   style="stop-color:#B3CAFF" />
				<a:midPointStop
   offset="0.5"
   style="stop-color:#B3CAFF" />
				<a:midPointStop
   offset="1"
   style="stop-color:#0053BD" />
			</linearGradient>
			
			
			
			
		<linearGradient
   inkscape:collect="always"
   xlink:href="#XMLID_4_"
   id="linearGradient43358"
   gradientUnits="userSpaceOnUse"
   x1="-3.8062"
   y1="10.6514"
   x2="127.5141"
   y2="10.6514" /><linearGradient
   inkscape:collect="always"
   xlink:href="#XMLID_3_"
   id="linearGradient43361"
   gradientUnits="userSpaceOnUse"
   x1="43.0229"
   y1="25.4214"
   x2="204.00729"
   y2="111.0652" /><linearGradient
   inkscape:collect="always"
   xlink:href="#XMLID_2_"
   id="linearGradient43364"
   gradientUnits="userSpaceOnUse"
   x1="-26.333"
   y1="-26.333"
   x2="56.166199"
   y2="56.166199" /><linearGradient
   inkscape:collect="always"
   xlink:href="#XMLID_1_"
   id="linearGradient43367"
   gradientUnits="userSpaceOnUse"
   x1="63.920399"
   y1="154.5645"
   x2="63.920399"
   y2="-100.9347" />
				
				
				
					<linearGradient
   gradientTransform="matrix(1.0077,0,2.35e-2,1.0077,279.3983,-430.8782)"
   y2="535.62531"
   x2="-229.62511"
   y1="467.37891"
   x1="-222.4521"
   gradientUnits="userSpaceOnUse"
   id="XMLID_5_">
					<stop
   id="stop43008"
   style="stop-color:#C5CAD1"
   offset="0.41" />
					<stop
   id="stop43010"
   style="stop-color:#DBE1E8"
   offset="0.5162" />
					<stop
   id="stop43012"
   style="stop-color:#FFFFFF"
   offset="0.59" />
					<a:midPointStop
   style="stop-color:#C5CAD1"
   offset="0.41" />
					<a:midPointStop
   style="stop-color:#C5CAD1"
   offset="0.5" />
					<a:midPointStop
   style="stop-color:#DBE1E8"
   offset="0.5162" />
					<a:midPointStop
   style="stop-color:#DBE1E8"
   offset="0.5" />
					<a:midPointStop
   style="stop-color:#FFFFFF"
   offset="0.59" />
				</linearGradient>
				
				
				
					<linearGradient
   gradientTransform="matrix(1.0305,0,2.4e-2,1.0305,283.5052,-442.7468)"
   y2="509.73181"
   x2="-246.439"
   y1="505.24899"
   x1="-264.41849"
   gradientUnits="userSpaceOnUse"
   id="XMLID_8_">
					<stop
   id="stop43039"
   style="stop-color:#AAAFB5"
   offset="0.33" />
					<stop
   id="stop43041"
   style="stop-color:#DAE0E6"
   offset="0.4932" />
					<stop
   id="stop43043"
   style="stop-color:#AAAFB5"
   offset="0.67" />
					<a:midPointStop
   style="stop-color:#AAAFB5"
   offset="0.33" />
					<a:midPointStop
   style="stop-color:#AAAFB5"
   offset="0.5" />
					<a:midPointStop
   style="stop-color:#DAE0E6"
   offset="0.4932" />
					<a:midPointStop
   style="stop-color:#DAE0E6"
   offset="0.5" />
					<a:midPointStop
   style="stop-color:#AAAFB5"
   offset="0.67" />
				</linearGradient>
				
				
				
				<linearGradient
   y2="62.849602"
   x2="99.101799"
   y1="80.6035"
   x1="58.109402"
   gradientUnits="userSpaceOnUse"
   id="XMLID_12_">
					<stop
   id="stop43075"
   style="stop-color:#FF0000"
   offset="0.08" />
					<stop
   id="stop43077"
   style="stop-color:#FFFFFF"
   offset="0.92" />
					<a:midPointStop
   style="stop-color:#FF0000"
   offset="0.08" />
					<a:midPointStop
   style="stop-color:#FF0000"
   offset="0.5" />
					<a:midPointStop
   style="stop-color:#FFFFFF"
   offset="0.92" />
				</linearGradient>
				
				<linearGradient
   y2="34.124401"
   x2="102.8996"
   y1="38.597198"
   x1="54.158699"
   gradientUnits="userSpaceOnUse"
   id="XMLID_13_">
					<stop
   id="stop43082"
   style="stop-color:#003399"
   offset="0.15" />
					<stop
   id="stop43084"
   style="stop-color:#FFFFFF"
   offset="0.85" />
					<a:midPointStop
   style="stop-color:#003399"
   offset="0.15" />
					<a:midPointStop
   style="stop-color:#003399"
   offset="0.5" />
					<a:midPointStop
   style="stop-color:#FFFFFF"
   offset="0.85" />
				</linearGradient>
				
				<linearGradient
   y2="88.3806"
   x2="98.596901"
   y1="96.8311"
   x1="63.108398"
   gradientUnits="userSpaceOnUse"
   id="XMLID_14_">
					<stop
   id="stop43089"
   style="stop-color:#003399"
   offset="0.09" />
					<stop
   id="stop43091"
   style="stop-color:#FFFFFF"
   offset="0.91" />
					<a:midPointStop
   style="stop-color:#003399"
   offset="0.09" />
					<a:midPointStop
   style="stop-color:#003399"
   offset="0.5" />
					<a:midPointStop
   style="stop-color:#FFFFFF"
   offset="0.91" />
				</linearGradient>
				
				<linearGradient
   y2="47.517101"
   x2="104.6163"
   y1="52.4561"
   x1="56.617699"
   gradientUnits="userSpaceOnUse"
   id="XMLID_15_">
					<stop
   id="stop43096"
   style="stop-color:#003399"
   offset="0.1" />
					<stop
   id="stop43098"
   style="stop-color:#FFFFFF"
   offset="0.9" />
					<a:midPointStop
   style="stop-color:#003399"
   offset="0.1" />
					<a:midPointStop
   style="stop-color:#003399"
   offset="0.5" />
					<a:midPointStop
   style="stop-color:#FFFFFF"
   offset="0.9" />
				</linearGradient>
				
			<linearGradient
   inkscape:collect="always"
   xlink:href="#XMLID_15_"
   id="linearGradient2679"
   gradientUnits="userSpaceOnUse"
   x1="56.617699"
   y1="52.4561"
   x2="104.6163"
   y2="47.517101"
   gradientTransform="matrix(1.4859442,0,0,1.42547,-26.865645,-35.754086)" /><linearGradient
   inkscape:collect="always"
   xlink:href="#XMLID_14_"
   id="linearGradient2682"
   gradientUnits="userSpaceOnUse"
   x1="63.108398"
   y1="96.8311"
   x2="98.596901"
   y2="88.3806"
   gradientTransform="matrix(1.4859442,0,0,1.42547,-26.865645,-35.754086)" /><linearGradient
   inkscape:collect="always"
   xlink:href="#XMLID_13_"
   id="linearGradient2685"
   gradientUnits="userSpaceOnUse"
   x1="54.158699"
   y1="38.597198"
   x2="102.8996"
   y2="34.124401"
   gradientTransform="matrix(1.4859442,0,0,1.42547,-26.865645,-35.754086)" /><linearGradient
   inkscape:collect="always"
   xlink:href="#XMLID_12_"
   id="linearGradient2688"
   gradientUnits="userSpaceOnUse"
   x1="58.109402"
   y1="80.6035"
   x2="99.101799"
   y2="62.849602"
   gradientTransform="matrix(1.4859442,0,0,1.42547,-26.865645,-35.754086)" /><linearGradient
   inkscape:collect="always"
   xlink:href="#XMLID_8_"
   id="linearGradient2706"
   gradientUnits="userSpaceOnUse"
   gradientTransform="matrix(1.5312655,0,3.5662661e-2,1.4689468,394.40726,-666.87637)"
   x1="-264.41849"
   y1="505.24899"
   x2="-246.439"
   y2="509.73181" /><linearGradient
   inkscape:collect="always"
   xlink:href="#XMLID_5_"
   id="linearGradient2721"
   gradientUnits="userSpaceOnUse"
   gradientTransform="matrix(1.497386,0,3.4919689e-2,1.4364461,388.30464,-649.95803)"
   x1="-222.4521"
   y1="467.37891"
   x2="-229.62511"
   y2="535.62531" />
					
					
						<linearGradient
   id="XMLID_9_"
   gradientUnits="userSpaceOnUse"
   x1="-251.3535"
   y1="483.96289"
   x2="-262.96521"
   y2="470.6051"
   gradientTransform="matrix(1.1276,0.1664,0,0.8523,317.1191,-321.7438)">
						<stop
   offset="0.3"
   style="stop-color:#6699FF"
   id="stop43052" />
						<stop
   offset="0.7"
   style="stop-color:#6666FF"
   id="stop43054" />
						<a:midPointStop
   offset="0.3"
   style="stop-color:#6699FF" />
						<a:midPointStop
   offset="0.5"
   style="stop-color:#6699FF" />
						<a:midPointStop
   offset="0.7"
   style="stop-color:#6666FF" />
					</linearGradient>
					
					
						<linearGradient
   id="XMLID_10_"
   gradientUnits="userSpaceOnUse"
   x1="-196.3101"
   y1="465.82809"
   x2="-260.37161"
   y2="462.47079"
   gradientTransform="matrix(1.1276,0.1664,0,0.8523,317.1191,-327.1383)">
						<stop
   offset="0.23"
   style="stop-color:#6699FF"
   id="stop43059" />
						<stop
   offset="0.77"
   style="stop-color:#CCCCFF"
   id="stop43061" />
						<a:midPointStop
   offset="0.23"
   style="stop-color:#6699FF" />
						<a:midPointStop
   offset="0.5"
   style="stop-color:#6699FF" />
						<a:midPointStop
   offset="0.77"
   style="stop-color:#CCCCFF" />
					</linearGradient>
					
					<linearGradient
   id="XMLID_11_"
   gradientUnits="userSpaceOnUse"
   x1="16.730499"
   y1="57.568401"
   x2="107.3123"
   y2="17.0446">
						<stop
   offset="0.17"
   style="stop-color:#6699FF"
   id="stop43066" />
						<stop
   offset="0.83"
   style="stop-color:#FFFFFF"
   id="stop43068" />
						<a:midPointStop
   offset="0.17"
   style="stop-color:#6699FF" />
						<a:midPointStop
   offset="0.5"
   style="stop-color:#6699FF" />
						<a:midPointStop
   offset="0.83"
   style="stop-color:#FFFFFF" />
					</linearGradient>
					
				<linearGradient
   inkscape:collect="always"
   xlink:href="#XMLID_11_"
   id="linearGradient3515"
   gradientUnits="userSpaceOnUse"
   x1="16.730499"
   y1="57.568401"
   x2="107.3123"
   y2="17.0446"
   gradientTransform="matrix(1.4859442,0,0,1.42547,-26.865645,-35.754086)" /><linearGradient
   inkscape:collect="always"
   xlink:href="#XMLID_10_"
   id="linearGradient3518"
   gradientUnits="userSpaceOnUse"
   gradientTransform="matrix(1.6755507,0.2371982,0,1.2149281,444.35564,-502.07992)"
   x1="-196.3101"
   y1="465.82809"
   x2="-260.37161"
   y2="462.47079" /><linearGradient
   inkscape:collect="always"
   xlink:href="#XMLID_9_"
   id="linearGradient3521"
   gradientUnits="userSpaceOnUse"
   gradientTransform="matrix(1.6755507,0.2371982,0,1.2149281,444.35564,-494.39022)"
   x1="-251.3535"
   y1="483.96289"
   x2="-262.96521"
   y2="470.6051" />
					
					
						<linearGradient
   id="XMLID_6_"
   gradientUnits="userSpaceOnUse"
   x1="-206.895"
   y1="471.56931"
   x2="-242.0762"
   y2="527.87097"
   gradientTransform="matrix(1,2.51e-2,-8.99e-2,1.0896,333.9921,-464.4864)">
						<stop
   offset="0"
   style="stop-color:#D8DEE6"
   id="stop43021" />
						<stop
   offset="0.72"
   style="stop-color:#FFFFFF"
   id="stop43023" />
						<stop
   offset="1"
   style="stop-color:#FEFEFD"
   id="stop43025" />
						<a:midPointStop
   offset="0"
   style="stop-color:#D8DEE6" />
						<a:midPointStop
   offset="0.5"
   style="stop-color:#D8DEE6" />
						<a:midPointStop
   offset="0.72"
   style="stop-color:#FFFFFF" />
						<a:midPointStop
   offset="0.5"
   style="stop-color:#FFFFFF" />
						<a:midPointStop
   offset="1"
   style="stop-color:#FEFEFD" />
					</linearGradient>
					
					
						<linearGradient
   id="XMLID_7_"
   gradientUnits="userSpaceOnUse"
   x1="-228.34419"
   y1="467.44821"
   x2="-224.85609"
   y2="534.00562"
   gradientTransform="matrix(1,2.51e-2,-8.99e-2,1.0896,333.9921,-464.4864)">
						<stop
   offset="0.27"
   style="stop-color:#C5CAD1"
   id="stop43030" />
						<stop
   offset="0.4632"
   style="stop-color:#DBE1E8"
   id="stop43032" />
						<stop
   offset="0.73"
   style="stop-color:#FFFFFF"
   id="stop43034" />
						<a:midPointStop
   offset="0.27"
   style="stop-color:#C5CAD1" />
						<a:midPointStop
   offset="0.5"
   style="stop-color:#C5CAD1" />
						<a:midPointStop
   offset="0.4632"
   style="stop-color:#DBE1E8" />
						<a:midPointStop
   offset="0.5"
   style="stop-color:#DBE1E8" />
						<a:midPointStop
   offset="0.73"
   style="stop-color:#FFFFFF" />
					</linearGradient>
					
				<linearGradient
   inkscape:collect="always"
   xlink:href="#XMLID_7_"
   id="linearGradient3533"
   gradientUnits="userSpaceOnUse"
   gradientTransform="matrix(1.4859442,3.5779297e-2,-0.1335864,1.5531921,469.42798,-697.86551)"
   x1="-228.34419"
   y1="467.44821"
   x2="-224.85609"
   y2="534.00562" /><linearGradient
   inkscape:collect="always"
   xlink:href="#XMLID_6_"
   id="linearGradient3536"
   gradientUnits="userSpaceOnUse"
   gradientTransform="matrix(1.4859442,3.5779297e-2,-0.1335864,1.5531921,469.42798,-697.86551)"
   x1="-206.895"
   y1="471.56931"
   x2="-242.0762"
   y2="527.87097" /></defs><sodipodi:namedview
   inkscape:window-height="939"
   inkscape:window-width="1280"
   inkscape:pageshadow="2"
   inkscape:pageopacity="0.0"
   guidetolerance="10.0"
   gridtolerance="10.0"
   objecttolerance="10.0"
   borderopacity="1.0"
   bordercolor="#666666"
   pagecolor="#ffffff"
   id="base"
   showgrid="false"
   inkscape:zoom="3.546875"
   inkscape:cx="12.123348"
   inkscape:cy="64"
   inkscape:window-x="0"
   inkscape:window-y="31"
   inkscape:current-layer="svg42952"
   borderlayer="false" />
	<path
   style="fill:#666e75;fill-rule:evenodd"
   id="path43003"
   d="M 12.571314,36.150897 C 11.866977,64.541983 13.452479,92.937346 15.115251,121.33556 C 21.671236,121.78601 25.400956,123.31554 28.503608,125.59486 C 26.054772,95.775456 23.601478,65.973155 21.152642,36.149472 C 18.290713,36.150897 15.431757,36.150897 12.571314,36.150897 z"
   clip-rule="evenodd" /><path
   style="fill:#666e75;fill-rule:evenodd"
   id="path43005"
   d="M 111.88885,18.510706 C 110.58419,43.861264 110.37913,69.208972 112.60062,94.565232 C 82.911455,103.0368 55.727591,114.33793 28.503608,125.59629 C 22.48702,96.339942 21.316096,66.322395 21.155614,36.150897 C 51.396064,30.269408 81.643944,24.389344 111.88885,18.510706 z"
   clip-rule="evenodd" /><path
   style="fill:url(#linearGradient2721);fill-rule:evenodd"
   id="path43014"
   d="M 111.90074,18.2641 C 110.62877,43.050172 110.42966,67.839095 112.60211,92.632295 C 83.5727,100.91428 56.987672,111.96452 30.369954,122.97057 C 24.487101,94.364241 23.339952,65.020941 23.182442,35.515138 C 52.755703,29.769068 82.328965,24.01302 111.90074,18.2641 z"
   clip-rule="evenodd" /><path
   clip-rule="evenodd"
   d="M 19.59983,36.82657 C 24.570313,65.529834 29.188628,95.27084 39.701683,124.07816 C 46.315621,117.19029 78.278281,107.75511 122.53118,98.734732 C 115.0866,73.046337 114.24705,47.493362 113.9662,21.94894 C 82.508764,26.912426 51.054297,31.865934 19.59983,36.82657 z"
   id="path43018"
   style="fill:#666e75;fill-rule:evenodd" /><path
   clip-rule="evenodd"
   d="M 22.753004,36.743893 C 27.294049,65.179168 31.016339,93.588785 40.774535,122.12384 C 47.043734,115.29014 77.709164,106.97965 119.46271,97.994913 C 112.57982,72.545997 111.91709,47.218246 111.78335,21.909026 C 82.109045,26.852556 52.424338,31.798937 22.753004,36.743893 z"
   id="path43027"
   style="fill:url(#linearGradient3536);fill-rule:evenodd" /><path
   clip-rule="evenodd"
   d="M 22.753004,36.743893 C 27.294049,65.179168 31.016339,93.588785 40.774535,122.12384 C 42.61562,120.11536 46.566745,117.97715 52.286145,115.73061 C 22.650474,61.143663 29.020716,35.774573 111.80415,25.475552 C 111.80118,24.281009 111.78781,23.093592 111.78186,21.909026 C 82.109045,26.852556 52.424338,31.798937 22.753004,36.743893 z"
   id="path43036"
   style="fill:url(#linearGradient3533);fill-rule:evenodd" /><path
   style="fill:url(#linearGradient2706);fill-rule:evenodd"
   id="path43045"
   d="M 14.155331,34.781021 C 13.449507,63.16783 15.036495,91.561767 16.697781,119.9557 C 17.648785,120.0284 18.503203,120.09683 19.275894,120.1795 C 19.665212,120.22084 18.099026,90.451326 18.448223,90.498366 C 18.800392,90.545407 21.066457,120.41898 21.381477,120.47172 C 22.371116,120.64563 23.210675,120.85518 23.964048,121.10748 C 24.354852,121.23578 19.733565,72.751265 20.090192,72.910918 C 20.44979,73.074847 25.782844,121.88009 26.121639,122.06683 C 26.840836,122.47593 27.551118,122.96059 28.325294,123.52936 C 23.990795,93.711376 20.828706,64.865565 20.269991,35.053285 C 18.79742,35.053285 17.975693,34.977735 17.134649,34.903611 C 17.295131,35.171599 17.153966,68.392178 16.360472,67.920347 C 16.161355,67.907518 16.136094,34.829487 15.910231,34.820934 C 15.433243,34.798126 14.868584,34.781021 14.155331,34.781021 z"
   clip-rule="evenodd" /><path
   clip-rule="evenodd"
   d="M 7.006453,36.709681 L 17.179227,38.138002 L 116.38235,21.515597 L 116.37343,1.9624247 L 104.57652,0.91042787 L 7.0480595,10.984224 L 7.006453,36.709681 z"
   id="path43049"
   style="fill:#003399;fill-rule:evenodd" /><path
   clip-rule="evenodd"
   d="M 8.9887026,12.421098 L 8.9887026,35.499457 L 17.948946,36.535774 L 17.948946,13.448862 L 8.9887026,12.421098 z"
   id="path43056"
   style="fill:url(#linearGradient3521);fill-rule:evenodd" /><path
   clip-rule="evenodd"
   d="M 105.5721,1.8711946 L 8.9887026,12.429651 L 17.948946,13.461691 L 114.52938,2.9032349 L 105.5721,1.8711946 z"
   id="path43063"
   style="fill:url(#linearGradient3518);fill-rule:evenodd" /><path
   clip-rule="evenodd"
   d="M 114.22178,20.704504 L 17.858304,36.408907 L 17.948946,13.460266 L 114.52938,2.9018095 L 114.22178,20.704504 z"
   id="path43070"
   style="fill:url(#linearGradient3515);fill-rule:evenodd" /><path
   style="opacity:0.4;fill:#003399;fill-rule:evenodd"
   id="path43072"
   d="M 29.787464,51.202435 C 30.123287,52.707731 30.445737,54.210177 30.775616,55.712622 C 56.754379,50.844642 82.736113,45.982364 108.71339,41.112958 C 108.7015,39.985412 108.69556,38.857865 108.68813,37.730318 C 82.382459,42.216272 56.085704,46.709353 29.787464,51.202435 z"
   clip-rule="evenodd" /><path
   style="fill:url(#linearGradient2688);fill-rule:evenodd"
   id="path43079"
   d="M 77.603662,83.492181 C 73.362777,84.5342 69.013419,85.597601 64.622453,86.679532 C 60.161649,87.781421 55.61466,88.898989 50.978514,90.033663 C 51.009719,86.735126 51.052811,83.447992 51.085502,80.176538 C 55.699359,74.892321 60.219601,69.730694 64.632855,64.701636 C 68.927234,59.792317 73.141372,54.97993 77.260409,50.285858 C 81.149125,49.591654 84.988805,48.907428 88.773505,48.23033 C 88.84483,52.131841 88.920613,56.057586 88.993424,60.008989 C 89.069207,63.984624 89.155392,67.985919 89.232661,72.015722 C 91.200051,71.573827 93.161498,71.126229 95.099169,70.680057 C 95.157121,73.496786 95.22696,76.303536 95.301257,79.13452 C 93.347241,79.619179 91.376879,80.108116 89.400573,80.59135 C 89.437722,83.090199 89.491216,85.597601 89.54471,88.122108 C 85.651536,89.137043 81.690009,90.171934 77.673501,91.223931 C 77.649726,88.636703 77.627437,86.056602 77.603662,83.492181 M 77.50559,74.69133 C 77.459525,70.46196 77.423863,66.265376 77.377798,62.088749 C 75.196432,64.62466 72.983861,67.199059 70.746029,69.801967 C 68.485908,72.43196 66.196068,75.107567 63.882453,77.804556 C 68.497796,76.749708 73.043299,75.70769 77.50559,74.69133"
   clip-rule="evenodd" /><path
   style="fill:url(#linearGradient2685);fill-rule:evenodd"
   id="path43086"
   d="M 56.697913,25.793432 C 52.911727,26.369322 49.0453,26.946637 45.109034,27.54676 C 45.260601,26.403533 45.687067,25.291667 46.394376,24.205459 C 47.101685,23.127803 48.406344,21.799265 50.302409,20.209866 C 51.448072,19.253376 52.188072,18.539215 52.50755,18.080214 C 52.828514,17.621213 53.000884,17.199274 53.000884,16.822949 C 53.006828,16.41384 52.856747,16.087407 52.550643,15.836524 C 52.250482,15.589918 51.855221,15.494411 51.382691,15.552856 C 50.886385,15.6113 50.473293,15.812291 50.156787,16.150128 C 49.840281,16.483688 49.615903,17.043897 49.498513,17.820778 C 48.192368,17.887776 46.874336,17.959049 45.557789,18.026046 C 45.728673,16.939838 46.028834,16.074578 46.456786,15.42884 C 46.884738,14.780251 47.474657,14.259954 48.229517,13.849419 C 48.984377,13.448862 50.018594,13.165193 51.318795,13.009817 C 52.67992,12.85159 53.721567,12.871547 54.466025,13.081091 C 55.201567,13.284933 55.77217,13.674086 56.180804,14.23287 C 56.587953,14.797357 56.797471,15.451647 56.77964,16.208572 C 56.764781,17.019664 56.51217,17.825055 56.020322,18.619042 C 55.526989,19.420156 54.617591,20.353839 53.311446,21.415814 C 52.52984,22.041595 52.005301,22.467811 51.742289,22.710141 C 51.479277,22.95247 51.164257,23.268925 50.800201,23.653802 C 52.809197,23.370133 54.788475,23.086465 56.754379,22.801371 C 56.739519,23.796349 56.718716,24.798454 56.697913,25.793432 M 58.421608,18.915539 C 58.442412,17.666828 58.585062,16.584896 58.827271,15.682573 C 59.06205,14.7774 59.427593,14.046134 59.897151,13.490201 C 60.828838,12.384036 62.210766,11.719767 64.051851,11.505946 C 64.928558,11.401887 65.647755,11.421844 66.204984,11.572943 C 66.753297,11.719767 67.200567,11.944991 67.545306,12.245765 C 67.887073,12.542263 68.161973,12.871547 68.347716,13.219361 C 68.539402,13.57858 68.699884,13.996242 68.812816,14.485179 C 69.026792,15.411734 69.12635,16.393883 69.108519,17.4302 C 69.084744,18.594809 68.956953,19.618296 68.74892,20.497811 C 68.537916,21.375901 68.22884,22.118571 67.826149,22.711566 C 67.019281,23.914663 65.647755,24.658758 63.699682,24.949554 C 62.59414,25.116334 61.702573,25.083548 61.023497,24.832665 C 60.345906,24.590336 59.790163,24.155567 59.354781,23.545466 C 59.051649,23.102145 58.803496,22.476363 58.643014,21.665271 C 58.475102,20.847051 58.411207,19.930474 58.421608,18.915539 M 62.087433,18.43088 C 62.060686,20.090127 62.189963,21.20627 62.466348,21.766479 C 62.757593,22.333817 63.175144,22.576146 63.732373,22.493469 C 64.105345,22.442152 64.429281,22.266819 64.695265,21.966045 C 64.970164,21.673824 65.179683,21.240481 65.311932,20.671718 C 65.445667,20.10153 65.531851,19.229143 65.55414,18.058832 C 65.586831,16.33829 65.45904,15.20219 65.181168,14.646257 C 64.906269,14.096025 64.467915,13.85227 63.885425,13.923543 C 63.285104,13.999093 62.83932,14.358312 62.565907,14.996922 C 62.288035,15.641235 62.11418,16.785887 62.087433,18.43088 M 70.564744,17.2791 C 70.585548,16.063174 70.713339,15.01973 70.945146,14.14164 C 71.175467,13.264976 71.511291,12.555092 71.957074,12.016265 C 72.829323,10.947162 74.14587,10.307126 75.869565,10.103284 C 76.694264,10.007777 77.376313,10.033436 77.900851,10.178834 C 78.417959,10.325657 78.838482,10.54518 79.165389,10.838826 C 79.486353,11.126771 79.741936,11.448928 79.921735,11.79104 C 80.09559,12.133153 80.245671,12.542263 80.348201,13.014094 C 80.550289,13.916416 80.646876,14.872907 80.627558,15.875012 C 80.599325,17.00541 80.48045,18.000388 80.276876,18.852819 C 80.073301,19.70525 79.793944,20.422261 79.412056,20.998151 C 78.645309,22.158484 77.354023,22.885473 75.512938,23.162015 C 74.475749,23.320242 73.639163,23.278903 72.998721,23.036573 C 72.359765,22.794243 71.830769,22.368028 71.422134,21.775032 C 71.135347,21.348817 70.907997,20.738716 70.763861,19.951856 C 70.609323,19.157869 70.545427,18.2641 70.564744,17.2791 M 74.012135,16.822949 C 73.98093,18.435156 74.099806,19.517088 74.359846,20.063043 C 74.628802,20.611849 75.031493,20.845626 75.548601,20.771501 C 75.896312,20.72161 76.202417,20.55483 76.460971,20.269736 C 76.722497,19.984642 76.91567,19.561277 77.043461,19.011046 C 77.180168,18.455113 77.251493,17.61266 77.272296,16.47656 C 77.306473,14.805909 77.192055,13.698319 76.930529,13.159492 C 76.676433,12.620664 76.266312,12.386887 75.712055,12.453884 C 75.14591,12.525157 74.725388,12.871547 74.463862,13.490201 C 74.194906,14.117407 74.046312,15.227849 74.012135,16.822949 M 85.231014,12.76036 C 84.208684,12.697639 83.178925,12.634919 82.14025,12.576474 C 82.422579,11.503095 82.939688,10.643537 83.690089,10.003501 C 84.434547,9.3677414 85.467279,8.9714607 86.795713,8.8132335 C 88.312862,8.6336243 89.384228,8.8046807 90.036557,9.3135735 C 90.688887,9.8281682 91.009851,10.529499 90.989047,11.418993 C 90.975674,11.944991 90.827079,12.438204 90.549208,12.892929 C 90.272822,13.360483 89.8523,13.786698 89.295071,14.178703 C 89.740854,14.238572 90.079649,14.325526 90.306999,14.446691 C 90.676999,14.643406 90.959328,14.934202 91.165875,15.310526 C 91.364991,15.68685 91.464549,16.154404 91.448204,16.71889 C 91.425915,17.420221 91.232742,18.117276 90.876116,18.820033 C 90.518003,19.512811 90.00981,20.08585 89.344107,20.53915 C 88.67989,20.982471 87.807641,21.300351 86.724387,21.458578 C 85.669367,21.616805 84.829809,21.616805 84.225029,21.450025 C 83.608362,21.283245 83.110571,20.965365 82.718282,20.514917 C 82.328965,20.07017 82.033262,19.472898 81.831173,18.728803 C 82.932258,18.419476 84.030371,18.114425 85.124026,17.809375 C 85.235471,18.47792 85.418243,18.928369 85.681255,19.153593 C 85.942781,19.375966 86.284548,19.46292 86.691697,19.404476 C 87.118163,19.337479 87.492621,19.116531 87.783866,18.740207 C 88.073625,18.372435 88.235593,17.904881 88.245994,17.348948 C 88.257882,16.784462 88.127119,16.362523 87.862621,16.091683 C 87.590693,15.820844 87.217721,15.711083 86.742219,15.77808 C 86.486636,15.810866 86.141897,15.927754 85.69017,16.120193 C 85.761496,15.301973 85.837279,14.482328 85.905632,13.659832 C 86.092861,13.659832 86.23254,13.659832 86.33507,13.648428 C 86.757078,13.592834 87.109247,13.401821 87.399006,13.081091 C 87.688765,12.763211 87.834388,12.403992 87.844789,12.019116 C 87.850733,11.642791 87.754147,11.359123 87.549087,11.162408 C 87.346998,10.965693 87.051295,10.891569 86.681295,10.935758 C 86.300893,10.982799 85.993303,11.143877 85.751094,11.416142 C 85.502941,11.689832 85.332058,12.141706 85.231014,12.76036"
   clip-rule="evenodd" /><path
   style="fill:url(#linearGradient2682);fill-rule:evenodd"
   id="path43093"
   d="M 60.027914,97.501701 C 62.167674,97.051252 64.298518,96.602229 66.41153,96.161759 C 66.548237,96.967149 66.687916,97.773965 66.839482,98.579356 C 66.132173,98.727605 65.432293,98.884406 64.722012,99.035506 C 64.941931,100.26569 65.157393,101.50014 65.380285,102.7346 C 65.607634,103.96478 65.830526,105.19496 66.045988,106.42514 C 65.359482,106.59192 64.66406,106.7587 63.968638,106.92121 C 63.742774,105.68532 63.518397,104.44944 63.292533,103.21213 C 63.06667,101.97055 62.848236,100.73182 62.628316,99.490231 C 61.912091,99.645607 61.188436,99.803835 60.466268,99.959211 C 60.316187,99.140991 60.172051,98.31992 60.027914,97.501701 M 73.529203,104.63618 C 72.977918,104.7716 72.416231,104.90274 71.859002,105.03531 C 71.783219,104.65899 71.720809,104.28124 71.655427,103.90491 C 71.484544,104.42948 71.292857,104.82434 71.071451,105.07665 C 70.851532,105.33751 70.554343,105.51427 70.176913,105.60265 C 69.674664,105.72524 69.234824,105.59694 68.870768,105.2192 C 68.506712,104.84287 68.248157,104.18573 68.083217,103.26488 C 67.949483,102.5165 67.81129,101.76528 67.671611,101.02261 C 67.533418,100.27139 67.410085,99.521592 67.274864,98.768943 C 67.891531,98.6378 68.506712,98.498104 69.118921,98.369812 C 69.347756,99.655586 69.572134,100.94706 69.802455,102.23284 C 69.88864,102.67188 69.994142,102.97551 70.139764,103.13373 C 70.285387,103.28911 70.45627,103.34898 70.655387,103.29766 C 70.872335,103.24777 71.029845,103.08954 71.120487,102.80873 C 71.217074,102.53076 71.205186,102.07318 71.089283,101.43457 C 70.88868,100.31558 70.69105,99.193733 70.500849,98.067612 C 71.09374,97.93932 71.688118,97.811028 72.294383,97.677033 C 72.499444,98.838791 72.700046,100.0034 72.909564,101.16088 C 73.125026,102.31694 73.324143,103.4787 73.529203,104.63618 M 79.177277,100.40396 C 78.016754,100.67052 76.856232,100.94136 75.682336,101.2065 C 75.786352,101.62416 75.927517,101.92636 76.083541,102.10597 C 76.310891,102.3597 76.553099,102.46091 76.827999,102.39819 C 76.994425,102.35685 77.151935,102.25137 77.279726,102.08744 C 77.359967,101.98338 77.434264,101.8166 77.508562,101.58282 C 78.094024,101.53293 78.675028,101.47876 79.261976,101.42602 C 79.120811,102.17154 78.89049,102.74173 78.573984,103.12375 C 78.258963,103.51148 77.755228,103.78945 77.056835,103.95623 C 76.460971,104.09735 75.95575,104.08167 75.566432,103.90919 C 75.168199,103.73528 74.804143,103.39317 74.478721,102.88142 C 74.144384,102.37111 73.911091,101.7382 73.771412,100.97415 C 73.581211,99.889363 73.659966,98.958531 74.004705,98.185926 C 74.346472,97.419023 74.928962,96.944342 75.731372,96.767583 C 76.383702,96.623611 76.929043,96.663524 77.362939,96.881621 C 77.781975,97.08974 78.149004,97.460362 78.446192,97.974957 C 78.740409,98.493828 78.966273,99.210839 79.120811,100.10603 C 79.137156,100.20439 79.156474,100.3056 79.177277,100.40396 M 77.197999,99.550101 C 77.064264,99.048335 76.90824,98.701946 76.722497,98.513784 C 76.541212,98.325622 76.32575,98.255774 76.083541,98.309942 C 75.805669,98.372663 75.613983,98.596462 75.501051,98.964233 C 75.438641,99.196584 75.419324,99.520166 75.46836,99.937829 C 76.05085,99.806686 76.622939,99.678393 77.197999,99.550101 M 79.811775,101.16516 C 80.374948,100.95419 80.920289,100.73752 81.473061,100.52655 C 81.594908,100.81877 81.734587,101.01691 81.877238,101.12097 C 82.027318,101.22503 82.204145,101.24926 82.415149,101.19937 C 82.642499,101.1452 82.798523,101.02831 82.901053,100.85013 C 82.97535,100.71756 83.002097,100.56931 82.969406,100.40538 C 82.938202,100.21722 82.850531,100.08893 82.70788,100.01908 C 82.602378,99.970615 82.340852,99.930701 81.930731,99.920723 C 81.314065,99.892214 80.878683,99.848024 80.617157,99.765347 C 80.367518,99.681244 80.137197,99.497359 79.918763,99.219392 C 79.701815,98.930021 79.551735,98.583632 79.483381,98.171671 C 79.401654,97.718372 79.423944,97.314964 79.535389,96.951469 C 79.651293,96.593676 79.847438,96.291477 80.114908,96.064827 C 80.389807,95.841028 80.774667,95.674248 81.278402,95.563061 C 81.80294,95.446173 82.202659,95.424791 82.474587,95.494639 C 82.745029,95.563061 82.991696,95.708459 83.205672,95.933684 C 83.40776,96.153206 83.61282,96.473937 83.798563,96.888748 C 83.278483,97.08974 82.76286,97.285029 82.245752,97.48602 C 82.164025,97.279327 82.068924,97.13678 81.951535,97.055528 C 81.795511,96.948618 81.623141,96.911556 81.434426,96.960022 C 81.244225,97.002786 81.11049,97.086889 81.048081,97.205203 C 80.975269,97.330644 80.951494,97.468915 80.975269,97.614313 C 81.009446,97.781093 81.091173,97.89513 81.211534,97.957851 C 81.333382,98.017721 81.59788,98.041954 81.978282,98.026273 C 82.560772,97.99919 82.996153,98.039103 83.2978,98.151715 C 83.599447,98.258625 83.855029,98.462467 84.051174,98.751838 C 84.25029,99.035506 84.388483,99.373343 84.453865,99.75822 C 84.522218,100.14595 84.511817,100.54365 84.424146,100.94849 C 84.336475,101.34904 84.153704,101.70114 83.863945,101.99621 C 83.569728,102.28843 83.14029,102.50653 82.572659,102.64337 C 81.77025,102.83581 81.161012,102.79875 80.752378,102.52791 C 80.340771,102.25137 80.036153,101.79522 79.811775,101.16516 M 88.528324,91.516152 C 88.792822,93.044256 89.055834,94.573785 89.327762,96.099038 C 89.59226,97.624291 89.853786,99.146693 90.124228,100.66909 C 89.619007,100.78883 89.1123,100.91142 88.607079,101.03116 C 88.549127,100.70473 88.489689,100.37687 88.436195,100.05044 C 88.290573,100.51657 88.147922,100.843 87.997842,101.03544 C 87.798725,101.28062 87.552058,101.43742 87.260813,101.51012 C 86.678323,101.64839 86.165672,101.41176 85.739206,100.78741 C 85.306797,100.16875 84.996234,99.354812 84.825351,98.361259 C 84.626234,97.250818 84.651495,96.361325 84.899648,95.691354 C 85.132941,95.02851 85.522259,94.63508 86.045311,94.522468 C 86.300893,94.465449 86.550532,94.486831 86.776396,94.569509 C 87.015633,94.662164 87.235552,94.820391 87.439127,95.052743 C 87.248926,93.993619 87.069127,92.928793 86.881898,91.862541 C 87.433183,91.749929 87.977038,91.633041 88.528324,91.516152 M 87.914629,97.711245 C 87.8225,97.189523 87.688765,96.8189 87.495593,96.5894 C 87.308364,96.365601 87.103303,96.278647 86.892299,96.322837 C 86.702098,96.369877 86.565391,96.52953 86.474749,96.80322 C 86.387078,97.081187 86.400452,97.510253 86.501496,98.096122 C 86.596596,98.639226 86.730331,99.026953 86.907159,99.242199 C 87.085472,99.468849 87.278645,99.555803 87.46736,99.510188 C 87.682821,99.460296 87.834388,99.293516 87.926516,99.008422 C 88.020131,98.717626 88.015673,98.287135 87.914629,97.711245 M 91.784027,95.640037 C 91.263947,95.669972 90.740895,95.702757 90.21487,95.731267 C 90.192581,95.292222 90.220814,94.945833 90.289168,94.674994 C 90.359007,94.411282 90.479368,94.164675 90.653224,93.940876 C 90.778043,93.779798 90.957843,93.632975 91.207481,93.513235 C 91.446718,93.387794 91.721618,93.286586 92.020293,93.223865 C 92.498767,93.119806 92.888084,93.077042 93.186759,93.104126 C 93.488405,93.125508 93.755875,93.250949 93.995112,93.471897 C 94.15708,93.630124 94.313105,93.862476 94.449811,94.184632 C 94.585032,94.508214 94.677161,94.820391 94.729169,95.125442 C 94.894109,96.090485 95.057563,97.048401 95.228446,98.006317 C 95.280454,98.308517 95.332462,98.550846 95.3919,98.717626 C 95.442422,98.884406 95.539008,99.093951 95.6668,99.343408 C 95.180896,99.460296 94.680133,99.575759 94.201659,99.695499 C 94.10953,99.541548 94.048606,99.418958 94.017402,99.334855 C 93.986197,99.256454 93.943104,99.119609 93.88961,98.934298 C 93.735072,99.302069 93.570132,99.575759 93.385875,99.75822 C 93.140695,100.0091 92.828646,100.17873 92.455674,100.26569 C 91.960855,100.38115 91.553706,100.29277 91.22977,99.98772 C 90.905834,99.689797 90.697802,99.267858 90.60716,98.734732 C 90.519489,98.231541 90.54475,97.796773 90.672541,97.429002 C 90.800332,97.068358 91.104951,96.746201 91.574509,96.473937 C 92.143626,96.15178 92.507682,95.930833 92.66965,95.813944 C 92.82716,95.701332 92.99953,95.554509 93.176357,95.387729 C 93.121377,95.079827 93.048566,94.871708 92.947522,94.766224 C 92.844992,94.662164 92.691939,94.625102 92.485393,94.673568 C 92.223867,94.730587 92.04704,94.843199 91.932622,95.001426 C 91.849409,95.128293 91.801859,95.343539 91.784027,95.640037 M 93.396277,96.65212 C 93.203104,96.824602 92.993586,96.988531 92.770694,97.138206 C 92.47202,97.344899 92.287763,97.525934 92.228325,97.678459 C 92.159971,97.836686 92.143626,98.004891 92.176317,98.174522 C 92.213465,98.372663 92.284791,98.520912 92.391779,98.632098 C 92.503224,98.736158 92.644389,98.768943 92.815273,98.726179 C 92.989128,98.684841 93.14218,98.579356 93.269972,98.409725 C 93.397763,98.235818 93.47206,98.044805 93.506237,97.836686 C 93.537442,97.628567 93.528526,97.364855 93.466116,97.054103 C 93.445313,96.92296 93.41708,96.78754 93.396277,96.65212 M 94.827241,92.770566 C 95.374069,92.647975 95.91941,92.531087 96.467724,92.409922 C 96.72925,93.098424 96.99672,93.788351 97.258246,94.474002 C 97.513828,95.158228 97.78427,95.845304 98.038367,96.528105 C 98.04431,95.785435 98.05174,95.038488 98.05174,94.292968 C 98.057684,93.550298 98.060656,92.806202 98.060656,92.063532 C 98.564391,91.956622 99.069612,91.848287 99.576319,91.735674 C 99.507965,92.938771 99.430696,94.143293 99.368287,95.347815 C 99.308849,96.550912 99.237524,97.755434 99.181058,98.965658 C 99.132022,99.792431 99.039893,100.36832 98.903186,100.68478 C 98.698126,101.14093 98.33407,101.436 97.782784,101.57142 C 97.562864,101.62416 97.210696,101.66265 96.727764,101.67833 C 96.588085,101.11242 96.448406,100.54365 96.298326,99.973466 C 96.544993,100.03761 96.803547,100.03048 97.079933,99.967764 C 97.262704,99.920723 97.399411,99.82094 97.485595,99.657011 C 97.577724,99.493082 97.62676,99.236498 97.647563,98.868726 C 97.178005,97.859494 96.701017,96.844559 96.238888,95.829624 C 95.76933,94.813264 95.2968,93.795479 94.827241,92.770566"
   clip-rule="evenodd" /><path
   style="fill:url(#linearGradient2679);fill-rule:evenodd"
   id="path43100"
   d="M 37.805618,36.903545 L 44.584496,35.774573 L 44.799958,37.79589 L 40.774535,38.471562 L 40.945419,40.11798 L 44.376464,39.54209 L 44.57558,41.446518 L 41.138591,42.013855 L 41.533852,45.865475 L 38.78337,46.324477 L 37.805618,36.903545 M 53.302531,41.095853 L 48.366224,41.914072 C 48.450923,42.331735 48.590601,42.623956 48.77783,42.799289 C 49.051244,43.058725 49.372208,43.149955 49.757068,43.091511 C 49.999277,43.050172 50.223654,42.950389 50.425743,42.782184 C 50.549076,42.673848 50.676867,42.507068 50.812088,42.280418 L 53.257952,42.113638 C 52.959277,42.857734 52.566988,43.425071 52.070683,43.809948 C 51.577349,44.194824 50.837349,44.46994 49.858112,44.63672 C 49.006666,44.779267 48.327589,44.762161 47.808995,44.586829 C 47.299316,44.411496 46.853533,44.077936 46.470159,43.57617 C 46.095701,43.07583 45.871324,42.448624 45.79554,41.697401 C 45.678151,40.628298 45.91293,39.717423 46.492448,38.949095 C 47.066023,38.180766 47.915983,37.70466 49.051244,37.512221 C 49.97253,37.362547 50.711044,37.38678 51.278675,37.596324 C 51.835904,37.797315 52.290603,38.163661 52.627912,38.673979 C 52.960763,39.191425 53.173253,39.892756 53.26984,40.795078 L 53.302531,41.095853 M 50.667951,40.260527 C 50.560963,39.758762 50.398996,39.416649 50.17016,39.232763 C 49.939839,39.048878 49.65008,38.990433 49.318714,39.040325 C 48.921967,39.107322 48.62775,39.325419 48.428634,39.691765 C 48.302328,39.926967 48.236947,40.243422 48.236947,40.661084 L 50.667951,40.260527 M 53.635382,34.263575 L 56.118395,33.845912 L 56.460162,37.113089 C 56.675624,36.79521 56.934178,36.545752 57.231367,36.360441 C 57.531528,36.168003 57.874781,36.042561 58.249239,35.975564 C 59.032331,35.850123 59.711408,36.042561 60.283496,36.55288 C 60.864501,37.061773 61.206268,37.879992 61.322171,38.998986 C 61.396469,39.743082 61.344461,40.42018 61.172091,41.020303 C 60.999721,41.630404 60.717392,42.106511 60.334018,42.457176 C 59.953617,42.807842 59.503376,43.024514 58.999641,43.108616 C 58.571689,43.184166 58.16454,43.149955 57.778194,43.017386 C 57.494379,42.900498 57.168957,42.658168 56.803415,42.290396 L 56.910403,43.301055 L 54.608675,43.685932 L 53.635382,34.263575 M 56.723174,39.842865 C 56.782612,40.427307 56.934178,40.836417 57.168957,41.061641 C 57.403737,41.295418 57.67715,41.379521 57.998114,41.32963 C 58.292331,41.279738 58.530082,41.104405 58.69948,40.820737 C 58.871849,40.528516 58.925343,40.069514 58.859962,39.459413 C 58.806468,38.916309 58.666789,38.539985 58.448355,38.314761 C 58.222492,38.096664 57.971367,38.013987 57.693496,38.055325 C 57.360644,38.115195 57.105062,38.290528 56.916347,38.589876 C 56.729118,38.890651 56.665222,39.308313 56.723174,39.842865 M 62.179561,35.482352 L 64.487233,35.097475 L 64.600164,36.207916 C 64.776992,35.69047 64.970164,35.322699 65.188598,35.097475 C 65.40406,34.880803 65.687875,34.738256 66.035586,34.679812 C 66.399643,34.621368 66.806791,34.672685 67.265948,34.839465 L 66.69386,36.835123 C 66.387755,36.75102 66.154462,36.726787 65.982092,36.75102 C 65.659643,36.81089 65.424863,36.99335 65.271811,37.302677 C 65.057835,37.745998 65.010285,38.514326 65.123217,39.600535 L 65.357996,41.888414 L 62.885385,42.307502 L 62.179561,35.482352 M 75.548601,40.19353 L 73.245388,40.578407 L 73.133942,39.467966 C 72.842697,39.985412 72.524705,40.361736 72.191853,40.612618 C 71.864945,40.863501 71.441451,41.030281 70.940688,41.121511 C 70.263098,41.229847 69.70884,41.104405 69.280889,40.736634 C 68.851451,40.368863 68.589924,39.743082 68.497796,38.840759 L 68.047555,34.504479 L 70.521652,34.088242 L 70.907997,37.838654 C 70.95109,38.273422 71.059564,38.565643 71.230447,38.716743 C 71.395387,38.87497 71.615307,38.924862 71.882777,38.883523 C 72.181452,38.832206 72.408801,38.675405 72.570769,38.398863 C 72.732737,38.130875 72.783259,37.688979 72.717877,37.063198 L 72.380568,33.780341 L 74.842778,33.371231 L 75.548601,40.19353 M 78.810249,34.956353 L 76.431252,35.081795 C 76.474344,34.631346 76.566473,34.263575 76.71061,33.987034 C 76.848802,33.711918 77.068722,33.452482 77.361453,33.210153 C 77.578401,33.043373 77.877076,32.885145 78.261935,32.751151 C 78.648281,32.608604 79.071775,32.500269 79.533903,32.424719 C 80.269446,32.299277 80.868281,32.249386 81.32298,32.257939 C 81.785109,32.275044 82.175912,32.391933 82.499848,32.62571 C 82.733141,32.783937 82.923342,33.026267 83.08531,33.361252 C 83.239848,33.694812 83.337921,34.021245 83.372097,34.346252 L 83.679688,37.361121 C 83.712379,37.679001 83.761415,37.929884 83.813423,38.105217 C 83.872861,38.280549 83.981334,38.497221 84.140331,38.756656 L 81.828201,39.141533 C 81.716756,38.983306 81.648402,38.857865 81.600852,38.773762 C 81.568161,38.682532 81.520611,38.548538 81.473061,38.356099 C 81.184788,38.740976 80.887599,39.024645 80.585952,39.217083 C 80.166916,39.485072 79.675068,39.660404 79.09555,39.760187 C 78.330289,39.885629 77.729967,39.792973 77.290128,39.485072 C 76.851774,39.175745 76.606593,38.740976 76.550128,38.190745 C 76.496634,37.673299 76.596192,37.221425 76.84583,36.836548 C 77.096955,36.451671 77.602176,36.119537 78.35555,35.82589 C 79.26049,35.475224 79.845952,35.241447 80.113422,35.114581 C 80.374948,34.990565 80.661735,34.830912 80.950008,34.655579 C 80.917318,34.329147 80.832619,34.121028 80.694426,34.012692 C 80.557719,33.902931 80.327398,33.878698 80.010892,33.928589 C 79.608201,33.995587 79.312498,34.112475 79.126755,34.286382 C 78.987076,34.420377 78.87563,34.638474 78.810249,34.956353 M 81.094145,35.967012 C 80.762779,36.15945 80.421012,36.32623 80.070329,36.49301 C 79.581454,36.709681 79.276835,36.910673 79.159446,37.061773 C 79.034626,37.228553 78.988562,37.403885 79.004907,37.587771 C 79.027197,37.787337 79.113381,37.946989 79.263462,38.055325 C 79.406112,38.156533 79.614144,38.197872 79.875671,38.147981 C 80.15057,38.106642 80.398723,37.989754 80.620129,37.814421 C 80.840048,37.630535 80.990129,37.429544 81.07037,37.212872 C 81.149125,36.987648 81.166956,36.721085 81.137237,36.394653 L 81.094145,35.967012 M 84.629206,31.73194 L 86.938363,31.347063 L 87.049809,32.466057 C 87.226637,31.948612 87.419809,31.573713 87.635271,31.355616 C 87.852219,31.128966 88.130091,30.987845 88.480774,30.929401 C 88.84483,30.869531 89.250493,30.929401 89.714107,31.096181 L 89.137561,33.084711 C 88.838886,33.000609 88.599649,32.976376 88.430251,33.009161 C 88.103344,33.059053 87.873022,33.242938 87.722942,33.560818 C 87.50748,33.995587 87.461416,34.763915 87.572862,35.85725 L 87.806155,38.146555 L 85.336516,38.555665 L 84.629206,31.73194 M 90.115312,30.821065 L 92.7172,30.386297 L 94.509249,34.705471 L 95.275996,29.960081 L 97.702543,29.550971 L 95.904551,37.269891 C 95.698005,38.156533 95.458767,38.765209 95.18684,39.108747 C 94.800494,39.593407 94.174912,39.902734 93.298205,40.052409 C 92.943064,40.110853 92.393265,40.143639 91.636919,40.169297 L 91.256517,38.37463 C 91.620574,38.440202 92.023264,38.433075 92.461618,38.357525 C 92.749891,38.307633 92.975755,38.199298 93.143666,38.032518 C 93.310092,37.857185 93.437883,37.580644 93.522582,37.197192 L 90.115312,30.821065"
   clip-rule="evenodd" /><path
   style="fill:none"
   id="path43127"
   d="M 128,128 L 0,128 L 0,0 L 128,0 L 128,128 z" />
</svg>