<?xml version="1.0" encoding="UTF-8" standalone="no"?>
<!-- Generator: Adobe Illustrator 10.0, SVG Export Plug-In . SVG Version: 3.0.0 Build 76)  -->
<svg
   xmlns:a="http://ns.adobe.com/AdobeSVGViewerExtensions/3.0/"
   xmlns:dc="http://purl.org/dc/elements/1.1/"
   xmlns:cc="http://creativecommons.org/ns#"
   xmlns:rdf="http://www.w3.org/1999/02/22-rdf-syntax-ns#"
   xmlns:svg="http://www.w3.org/2000/svg"
   xmlns="http://www.w3.org/2000/svg"
   xmlns:xlink="http://www.w3.org/1999/xlink"
   xmlns:sodipodi="http://sodipodi.sourceforge.net/DTD/sodipodi-0.dtd"
   xmlns:inkscape="http://www.inkscape.org/namespaces/inkscape"
   width="128"
   height="128"
   viewBox="0.378 -0.411 125 126"
   overflow="visible"
   enable-background="new 0.378 -0.411 125 126"
   xml:space="preserve"
   id="svg1"
   sodipodi:version="0.32"
   inkscape:version="0.46"
   sodipodi:docname="detalii1.svg"
   sodipodi:docbase="/home/jr/tmp"
   inkscape:output_extension="org.inkscape.output.svg.inkscape"
   version="1.0"
   style="overflow:visible"><defs
   id="defs257"><inkscape:perspective
   sodipodi:type="inkscape:persp3d"
   inkscape:vp_x="0 : 63 : 1"
   inkscape:vp_y="0 : 1000 : 0"
   inkscape:vp_z="125 : 63 : 1"
   inkscape:persp3d-origin="62.5 : 42 : 1"
   id="perspective8319" />
		
		
	<linearGradient
   inkscape:collect="always"
   xlink:href="#XMLID_1_"
   id="linearGradient1508"
   gradientUnits="userSpaceOnUse"
   x1="75.392601"
   y1="82.644501"
   x2="54.014801"
   y2="81.498802" />
<linearGradient
   inkscape:collect="always"
   xlink:href="#XMLID_2_"
   id="linearGradient1509"
   gradientUnits="userSpaceOnUse"
   x1="89.023399"
   y1="104.07"
   x2="60.771"
   y2="61.309898" />
<linearGradient
   inkscape:collect="always"
   xlink:href="#XMLID_3_"
   id="linearGradient1510"
   gradientUnits="userSpaceOnUse"
   x1="70.875"
   y1="26.5327"
   x2="67.821098"
   y2="88.005096" />
<linearGradient
   inkscape:collect="always"
   xlink:href="#XMLID_4_"
   id="linearGradient1511"
   gradientUnits="userSpaceOnUse"
   x1="69.876999"
   y1="73.993202"
   x2="69.876999"
   y2="4.1216002" />
<linearGradient
   inkscape:collect="always"
   xlink:href="#XMLID_5_"
   id="linearGradient1512"
   gradientUnits="userSpaceOnUse"
   x1="69.876999"
   y1="44.162102"
   x2="71.404404"
   y2="123.193" />
<linearGradient
   inkscape:collect="always"
   xlink:href="#XMLID_6_"
   id="linearGradient1513"
   gradientUnits="userSpaceOnUse"
   x1="69.049797"
   y1="28.4648"
   x2="70.568298"
   y2="65.677299" />
<linearGradient
   inkscape:collect="always"
   xlink:href="#XMLID_7_"
   id="linearGradient1514"
   gradientUnits="userSpaceOnUse"
   x1="65.359398"
   y1="26.5508"
   x2="64.596199"
   y2="51.7491" />
<linearGradient
   inkscape:collect="always"
   xlink:href="#XMLID_8_"
   id="linearGradient1515"
   gradientUnits="userSpaceOnUse"
   x1="27.1982"
   y1="51.623501"
   x2="35.215801"
   y2="90.617699" />
<linearGradient
   inkscape:collect="always"
   xlink:href="#XMLID_9_"
   id="linearGradient1516"
   gradientUnits="userSpaceOnUse"
   x1="33.332001"
   y1="10.3052"
   x2="33.332001"
   y2="91.4077" />
<linearGradient
   inkscape:collect="always"
   xlink:href="#XMLID_10_"
   id="linearGradient1517"
   gradientUnits="userSpaceOnUse"
   x1="31.7749"
   y1="59.920898"
   x2="32.5597"
   y2="162.325" />
<linearGradient
   inkscape:collect="always"
   xlink:href="#XMLID_11_"
   id="linearGradient1518"
   gradientUnits="userSpaceOnUse"
   x1="51.9683"
   y1="98.746101"
   x2="43.653599"
   y2="71.243797" />
<linearGradient
   inkscape:collect="always"
   xlink:href="#XMLID_12_"
   id="linearGradient1519"
   gradientUnits="userSpaceOnUse"
   x1="59.658199"
   y1="81.634804"
   x2="59.658199"
   y2="126.958" />
<linearGradient
   inkscape:collect="always"
   xlink:href="#XMLID_13_"
   id="linearGradient1520"
   gradientUnits="userSpaceOnUse"
   x1="59.818802"
   y1="132.78799"
   x2="59.818802"
   y2="77.7099" />
<linearGradient
   inkscape:collect="always"
   xlink:href="#XMLID_14_"
   id="linearGradient1521"
   gradientUnits="userSpaceOnUse"
   x1="59.269501"
   y1="108.168"
   x2="59.269501"
   y2="75.704102" />
<linearGradient
   inkscape:collect="always"
   xlink:href="#XMLID_15_"
   id="linearGradient1522"
   gradientUnits="userSpaceOnUse"
   x1="60.141102"
   y1="111.697"
   x2="60.119598"
   y2="84.804703" />
<linearGradient
   inkscape:collect="always"
   xlink:href="#XMLID_16_"
   id="linearGradient1523"
   gradientUnits="userSpaceOnUse"
   x1="67.614304"
   y1="77.200203"
   x2="67.614304"
   y2="127.211" />
<radialGradient
   inkscape:collect="always"
   xlink:href="#XMLID_17_"
   id="radialGradient1524"
   gradientUnits="userSpaceOnUse"
   gradientTransform="matrix(0.7071,0.7071,-0.7071,0.7071,4056.03,-1260.95)"
   cx="-1848.89"
   cy="3795.78"
   fx="-1848.89"
   fy="3795.78"
   r="10.8535" />
<radialGradient
   inkscape:collect="always"
   xlink:href="#XMLID_18_"
   id="radialGradient1525"
   gradientUnits="userSpaceOnUse"
   gradientTransform="matrix(0.7071,0.7071,-0.7071,0.7071,4056.03,-1260.95)"
   cx="-1847.9301"
   cy="3778.8999"
   fx="-1847.9301"
   fy="3778.8999"
   r="12.4261" />

			

			

		<linearGradient
   inkscape:collect="always"
   xlink:href="#XMLID_12_"
   id="linearGradient2700"
   gradientUnits="userSpaceOnUse"
   x1="59.658199"
   y1="81.634804"
   x2="59.658199"
   y2="126.958" /><linearGradient
   inkscape:collect="always"
   xlink:href="#XMLID_13_"
   id="linearGradient2702"
   gradientUnits="userSpaceOnUse"
   x1="59.818802"
   y1="132.78799"
   x2="59.818802"
   y2="77.7099" /><linearGradient
   inkscape:collect="always"
   xlink:href="#XMLID_14_"
   id="linearGradient2704"
   gradientUnits="userSpaceOnUse"
   x1="59.269501"
   y1="108.168"
   x2="59.269501"
   y2="75.704102" /><linearGradient
   inkscape:collect="always"
   xlink:href="#XMLID_15_"
   id="linearGradient2706"
   gradientUnits="userSpaceOnUse"
   x1="60.141102"
   y1="111.697"
   x2="60.119598"
   y2="84.804703" /><linearGradient
   inkscape:collect="always"
   xlink:href="#XMLID_16_"
   id="linearGradient2708"
   gradientUnits="userSpaceOnUse"
   x1="67.614304"
   y1="77.200203"
   x2="67.614304"
   y2="127.211" /><radialGradient
   inkscape:collect="always"
   xlink:href="#XMLID_17_"
   id="radialGradient2710"
   gradientUnits="userSpaceOnUse"
   gradientTransform="matrix(0.7071,0.7071,-0.7071,0.7071,4056.03,-1260.95)"
   cx="-1848.89"
   cy="3795.78"
   fx="-1848.89"
   fy="3795.78"
   r="10.8535" /><radialGradient
   inkscape:collect="always"
   xlink:href="#XMLID_18_"
   id="radialGradient2712"
   gradientUnits="userSpaceOnUse"
   gradientTransform="matrix(0.7071,0.7071,-0.7071,0.7071,4056.03,-1260.95)"
   cx="-1847.9301"
   cy="3778.8999"
   fx="-1847.9301"
   fy="3778.8999"
   r="12.4261" />
				<linearGradient
   id="XMLID_12_"
   gradientUnits="userSpaceOnUse"
   x1="59.658199"
   y1="81.634804"
   x2="59.658199"
   y2="126.958">
					<stop
   offset="0"
   style="stop-color:rgb(255,255,66)"
   id="stop149" />

					<stop
   offset="1"
   style="stop-color:rgb(255,131,0)"
   id="stop151" />

					<a:midPointStop
   offset="0"
   style="stop-color:#FFFF42"
   id="midPointStop153" />

					<a:midPointStop
   offset="0.5"
   style="stop-color:#FFFF42"
   id="midPointStop155" />

					<a:midPointStop
   offset="1"
   style="stop-color:#FF8300"
   id="midPointStop157" />

				</linearGradient>

				

				<linearGradient
   id="XMLID_13_"
   gradientUnits="userSpaceOnUse"
   x1="59.818802"
   y1="132.78799"
   x2="59.818802"
   y2="77.7099">
					<stop
   offset="0"
   style="stop-color:rgb(116,68,38)"
   id="stop164" />

					<stop
   offset="1"
   style="stop-color:rgb(222,151,43)"
   id="stop166" />

					<a:midPointStop
   offset="0"
   style="stop-color:#744426"
   id="midPointStop168" />

					<a:midPointStop
   offset="0.5"
   style="stop-color:#744426"
   id="midPointStop170" />

					<a:midPointStop
   offset="1"
   style="stop-color:#DE972B"
   id="midPointStop172" />

				</linearGradient>

				

				<linearGradient
   id="XMLID_14_"
   gradientUnits="userSpaceOnUse"
   x1="59.269501"
   y1="108.168"
   x2="59.269501"
   y2="75.704102">
					<stop
   offset="0"
   style="stop-color:rgb(255,202,33)"
   id="stop179" />

					<stop
   offset="1"
   style="stop-color:rgb(205,88,0)"
   id="stop181" />

					<a:midPointStop
   offset="0"
   style="stop-color:#FFCA21"
   id="midPointStop183" />

					<a:midPointStop
   offset="0.5"
   style="stop-color:#FFCA21"
   id="midPointStop185" />

					<a:midPointStop
   offset="1"
   style="stop-color:#CD5800"
   id="midPointStop187" />

				</linearGradient>

				

				<linearGradient
   id="XMLID_15_"
   gradientUnits="userSpaceOnUse"
   x1="60.141102"
   y1="111.697"
   x2="60.119598"
   y2="84.804703">
					<stop
   offset="0"
   style="stop-color:rgb(255,240,66)"
   id="stop194" />

					<stop
   offset="1"
   style="stop-color:rgb(255,131,0)"
   id="stop196" />

					<a:midPointStop
   offset="0"
   style="stop-color:#FFF042"
   id="midPointStop198" />

					<a:midPointStop
   offset="0.5"
   style="stop-color:#FFF042"
   id="midPointStop200" />

					<a:midPointStop
   offset="1"
   style="stop-color:#FF8300"
   id="midPointStop202" />

				</linearGradient>

				

				<linearGradient
   id="XMLID_16_"
   gradientUnits="userSpaceOnUse"
   x1="67.614304"
   y1="77.200203"
   x2="67.614304"
   y2="127.211">
					<stop
   offset="0"
   style="stop-color:rgb(255,240,66)"
   id="stop209" />

					<stop
   offset="1"
   style="stop-color:rgb(255,131,0)"
   id="stop211" />

					<a:midPointStop
   offset="0"
   style="stop-color:#FFF042"
   id="midPointStop213" />

					<a:midPointStop
   offset="0.5"
   style="stop-color:#FFF042"
   id="midPointStop215" />

					<a:midPointStop
   offset="1"
   style="stop-color:#FF8300"
   id="midPointStop217" />

				</linearGradient>

				

				<radialGradient
   id="XMLID_17_"
   cx="-1848.89"
   cy="3795.78"
   r="10.8535"
   fx="-1848.89"
   fy="3795.78"
   gradientTransform="matrix(0.7071,0.7071,-0.7071,0.7071,4056.03,-1260.95)"
   gradientUnits="userSpaceOnUse">
					<stop
   offset="0"
   style="stop-color:rgb(255,240,66)"
   id="stop224" />

					<stop
   offset="1"
   style="stop-color:rgb(255,131,0)"
   id="stop226" />

					<a:midPointStop
   offset="0"
   style="stop-color:#FFF042"
   id="midPointStop228" />

					<a:midPointStop
   offset="0.5"
   style="stop-color:#FFF042"
   id="midPointStop230" />

					<a:midPointStop
   offset="1"
   style="stop-color:#FF8300"
   id="midPointStop232" />

				</radialGradient>

				

				<radialGradient
   id="XMLID_18_"
   cx="-1847.9301"
   cy="3778.8999"
   r="12.4261"
   fx="-1847.9301"
   fy="3778.8999"
   gradientTransform="matrix(0.7071,0.7071,-0.7071,0.7071,4056.03,-1260.95)"
   gradientUnits="userSpaceOnUse">
					<stop
   offset="0"
   style="stop-color:rgb(255,240,66)"
   id="stop239" />

					<stop
   offset="1"
   style="stop-color:rgb(255,131,0)"
   id="stop241" />

					<a:midPointStop
   offset="0"
   style="stop-color:#FFF042"
   id="midPointStop243" />

					<a:midPointStop
   offset="0.5"
   style="stop-color:#FFF042"
   id="midPointStop245" />

					<a:midPointStop
   offset="1"
   style="stop-color:#FF8300"
   id="midPointStop247" />

				</radialGradient>

				

			<radialGradient
   inkscape:collect="always"
   xlink:href="#XMLID_18_"
   id="radialGradient2736"
   gradientUnits="userSpaceOnUse"
   gradientTransform="matrix(1.0596728,1.0596728,-1.0596728,1.0596728,6079.0609,-1952.8022)"
   cx="-1847.9301"
   cy="3778.8999"
   fx="-1847.9301"
   fy="3778.8999"
   r="12.4261" /><radialGradient
   inkscape:collect="always"
   xlink:href="#XMLID_17_"
   id="radialGradient2739"
   gradientUnits="userSpaceOnUse"
   gradientTransform="matrix(1.0596728,1.0596728,-1.0596728,1.0596728,6079.0609,-1952.8022)"
   cx="-1848.89"
   cy="3795.78"
   fx="-1848.89"
   fy="3795.78"
   r="10.8535" /><linearGradient
   inkscape:collect="always"
   xlink:href="#XMLID_16_"
   id="linearGradient2742"
   gradientUnits="userSpaceOnUse"
   x1="67.614304"
   y1="77.200203"
   x2="67.614304"
   y2="127.211"
   gradientTransform="matrix(1.498618,0,0,1.498618,0.621374,-63.11986)" /><linearGradient
   inkscape:collect="always"
   xlink:href="#XMLID_15_"
   id="linearGradient2745"
   gradientUnits="userSpaceOnUse"
   x1="60.141102"
   y1="111.697"
   x2="60.119598"
   y2="84.804703"
   gradientTransform="matrix(1.498618,0,0,1.498618,0.621374,-63.11986)" /><linearGradient
   inkscape:collect="always"
   xlink:href="#XMLID_14_"
   id="linearGradient2748"
   gradientUnits="userSpaceOnUse"
   x1="59.269501"
   y1="108.168"
   x2="59.269501"
   y2="75.704102"
   gradientTransform="matrix(1.498618,0,0,1.498618,0.621374,-63.11986)" /><linearGradient
   inkscape:collect="always"
   xlink:href="#XMLID_13_"
   id="linearGradient2751"
   gradientUnits="userSpaceOnUse"
   x1="59.818802"
   y1="132.78799"
   x2="59.818802"
   y2="77.7099"
   gradientTransform="matrix(1.498618,0,0,1.498618,0.621374,-63.11986)" /><linearGradient
   inkscape:collect="always"
   xlink:href="#XMLID_12_"
   id="linearGradient2754"
   gradientUnits="userSpaceOnUse"
   x1="59.658199"
   y1="81.634804"
   x2="59.658199"
   y2="126.958"
   gradientTransform="matrix(1.498618,0,0,1.498618,0.621374,-63.11986)" /><linearGradient
   inkscape:collect="always"
   xlink:href="#XMLID_8_"
   id="linearGradient2756"
   gradientUnits="userSpaceOnUse"
   x1="27.1982"
   y1="51.623501"
   x2="35.215801"
   y2="90.617699" /><linearGradient
   inkscape:collect="always"
   xlink:href="#XMLID_9_"
   id="linearGradient2758"
   gradientUnits="userSpaceOnUse"
   x1="33.332001"
   y1="10.3052"
   x2="33.332001"
   y2="91.4077" /><linearGradient
   inkscape:collect="always"
   xlink:href="#XMLID_10_"
   id="linearGradient2760"
   gradientUnits="userSpaceOnUse"
   x1="31.7749"
   y1="59.920898"
   x2="32.5597"
   y2="162.325" /><linearGradient
   inkscape:collect="always"
   xlink:href="#XMLID_11_"
   id="linearGradient2762"
   gradientUnits="userSpaceOnUse"
   x1="51.9683"
   y1="98.746101"
   x2="43.653599"
   y2="71.243797" />
				<linearGradient
   id="XMLID_8_"
   gradientUnits="userSpaceOnUse"
   x1="27.1982"
   y1="51.623501"
   x2="35.215801"
   y2="90.617699">
					<stop
   offset="0"
   style="stop-color:rgb(255,255,255)"
   id="stop92" />

					<stop
   offset="0.1671"
   style="stop-color:rgb(250,250,251)"
   id="stop94" />

					<stop
   offset="0.3543"
   style="stop-color:rgb(237,237,241)"
   id="stop96" />

					<stop
   offset="0.5513"
   style="stop-color:rgb(214,214,223)"
   id="stop98" />

					<stop
   offset="0.7551"
   style="stop-color:rgb(183,183,197)"
   id="stop100" />

					<stop
   offset="0.9621"
   style="stop-color:rgb(143,143,166)"
   id="stop102" />

					<stop
   offset="1"
   style="stop-color:rgb(135,135,159)"
   id="stop104" />

				</linearGradient>

				

				

				<linearGradient
   id="XMLID_9_"
   gradientUnits="userSpaceOnUse"
   x1="33.332001"
   y1="10.3052"
   x2="33.332001"
   y2="91.4077">
					<stop
   offset="0"
   style="stop-color:rgb(255,255,255)"
   id="stop113" />

					<stop
   offset="1"
   style="stop-color:rgb(84,84,119)"
   id="stop115" />

				</linearGradient>

				

				<linearGradient
   id="XMLID_10_"
   gradientUnits="userSpaceOnUse"
   x1="31.7749"
   y1="59.920898"
   x2="32.5597"
   y2="162.325">
					<stop
   offset="0"
   style="stop-color:rgb(255,255,255)"
   id="stop122" />

					<stop
   offset="1"
   style="stop-color:rgb(84,84,119)"
   id="stop124" />

				</linearGradient>

				

				<linearGradient
   id="XMLID_11_"
   gradientUnits="userSpaceOnUse"
   x1="51.9683"
   y1="98.746101"
   x2="43.653599"
   y2="71.243797">
					<stop
   offset="0"
   style="stop-color:rgb(255,255,255)"
   id="stop131" />

					<stop
   offset="0.1469"
   style="stop-color:rgb(246,246,248)"
   id="stop133" />

					<stop
   offset="0.3817"
   style="stop-color:rgb(223,223,230)"
   id="stop135" />

					<stop
   offset="0.6752"
   style="stop-color:rgb(185,185,199)"
   id="stop137" />

					<stop
   offset="1"
   style="stop-color:rgb(135,135,159)"
   id="stop139" />

				</linearGradient>

				

			<linearGradient
   inkscape:collect="always"
   xlink:href="#XMLID_11_"
   id="linearGradient2785"
   gradientUnits="userSpaceOnUse"
   x1="51.9683"
   y1="98.746101"
   x2="43.653599"
   y2="71.243797"
   gradientTransform="matrix(1.498618,0,0,1.498618,0.621374,-63.11986)" /><linearGradient
   inkscape:collect="always"
   xlink:href="#XMLID_10_"
   id="linearGradient2788"
   gradientUnits="userSpaceOnUse"
   x1="31.7749"
   y1="59.920898"
   x2="32.5597"
   y2="162.325"
   gradientTransform="matrix(1.498618,0,0,1.498618,0.621374,-63.11986)" /><linearGradient
   inkscape:collect="always"
   xlink:href="#XMLID_9_"
   id="linearGradient2791"
   gradientUnits="userSpaceOnUse"
   x1="33.332001"
   y1="10.3052"
   x2="33.332001"
   y2="91.4077"
   gradientTransform="matrix(1.498618,0,0,1.498618,0.621374,-63.11986)" /><linearGradient
   inkscape:collect="always"
   xlink:href="#XMLID_8_"
   id="linearGradient2795"
   gradientUnits="userSpaceOnUse"
   x1="27.1982"
   y1="51.623501"
   x2="35.215801"
   y2="90.617699"
   gradientTransform="matrix(1.498618,0,0,1.498618,0.621374,-63.11986)" /></defs>
<metadata
   id="metadata256">
  <rdf:RDF>
    <cc:Work
   rdf:about="">
      <dc:format>image/svg+xml</dc:format>
      <dc:type
   rdf:resource="http://purl.org/dc/dcmitype/StillImage" />
    </cc:Work>
  </rdf:RDF>
</metadata>
<sodipodi:namedview
   id="base"
   pagecolor="#ffffff"
   bordercolor="#666666"
   borderopacity="1.0"
   inkscape:pageopacity="0.0"
   inkscape:pageshadow="2"
   inkscape:zoom="2.4559706"
   inkscape:cx="79.155249"
   inkscape:cy="54.379571"
   inkscape:window-width="1274"
   inkscape:window-height="829"
   inkscape:window-x="0"
   inkscape:window-y="31"
   inkscape:current-layer="svg1"
   showgrid="false" />

	<path
   d="M 99.504685,77.540425 L 72.199866,50.235606 C 77.463012,37.10921 74.957323,21.757368 64.567404,11.36595 C 53.970676,0.77221981 38.223198,-1.6285662 24.931955,4.0467001 L 47.250873,26.362621 L 25.708239,47.905255 L 4.1071595,26.301177 C -0.35872217,39.067904 2.3462833,53.623981 12.328578,63.604777 C 22.309374,73.585573 36.86545,76.293575 49.630678,71.827694 L 77.424048,99.621063 L 99.504685,77.540425 z"
   style="fill:url(#linearGradient2795)"
   id="path107" /><path
   d="M 30.235564,48.912326 L 48.502219,30.64717 L 45.734272,27.879222 L 27.469115,46.144378 L 30.235564,48.912326 z"
   style="fill:none"
   id="path109" /><path
   d="M 65.586464,10.345392 C 54.845869,-0.39220637 38.666789,-3.3849465 24.368475,2.7204232 C 23.927881,2.9077505 23.608676,3.3033856 23.518758,3.772453 C 23.427343,4.2415205 23.577205,4.7270727 23.915892,5.0657604 C 23.915892,5.0657604 43.354466,24.505833 45.212753,26.362621 C 43.454874,28.1205 27.469115,44.107757 25.708239,45.865635 C 23.858945,44.014842 5.1247211,25.283616 5.1247211,25.283616 C 4.7740445,24.931441 4.2690102,24.786075 3.7849566,24.896972 C 3.5152054,24.958416 3.2754265,25.09479 3.0866006,25.283616 C 2.9352402,25.434976 2.818348,25.617808 2.7449157,25.827614 C -2.0881273,39.641875 1.1938461,54.509664 11.309518,64.625336 C 21.209388,74.525206 35.663559,77.859631 49.22755,73.462686 C 50.414456,74.65109 76.406486,100.64012 76.406486,100.64012 C 76.968468,101.2036 77.879628,101.2036 78.443108,100.64012 L 100.52524,78.560984 C 101.08723,77.999003 101.08723,77.084846 100.52524,76.521365 C 100.52524,76.521365 75.110182,51.106303 73.86483,49.86245 C 79.024572,36.012222 75.83851,20.601933 65.586464,10.345392 z M 63.546845,12.388008 C 73.205438,22.046601 76.078289,36.694093 70.860101,49.697602 C 70.645799,50.234107 70.770184,50.84854 71.179307,51.254666 C 71.179307,51.254666 95.545337,75.622194 97.466565,77.540425 C 95.699694,79.305797 79.18942,95.816072 77.424048,97.578447 C 75.50282,95.660216 50.651237,70.808633 50.651237,70.808633 C 50.260098,70.415996 49.677136,70.284117 49.154118,70.466949 C 36.393386,74.929833 22.672039,71.908619 13.346139,62.584218 C 4.5627393,53.802316 1.3781761,41.118014 4.7710472,29.007682 C 7.6364049,31.873039 24.690678,48.925813 24.690678,48.925813 C 25.254158,49.487795 26.166816,49.487795 26.730297,48.925813 L 48.271432,27.384678 C 48.834912,26.821198 48.834912,25.90854 48.271432,25.345059 C 48.271432,25.345059 30.234066,7.3076929 27.523066,4.5966929 C 40.213363,0.043891464 54.147513,2.9856786 63.546845,12.388008 z"
   style="fill:url(#linearGradient2791)"
   id="path118" /><path
   d="M 67.091077,48.524184 C 71.552463,37.393948 69.428921,24.378451 60.618546,15.565078 C 53.663459,8.6114906 44.094784,5.8255597 34.897765,7.1518366 L 50.65873,22.912802 C 52.573964,24.829535 52.573964,27.934671 50.65873,29.849905 L 29.615136,50.896496 C 27.699903,52.810231 24.591769,52.810231 22.678034,50.896496 L 7.7068399,35.922305 C 6.9620268,44.560339 9.8183927,53.357227 16.323893,59.864226 C 24.786589,68.325423 37.130706,70.621306 47.953725,66.835797 L 77.44353,96.327101 L 89.182205,70.61681 L 67.091077,48.524184 z"
   style="fill:url(#linearGradient2788)"
   id="path127" /><path
   d="M 85.696419,94.689111 C 84.737304,95.648227 83.187733,95.648227 82.228617,94.689111 L 55.19205,67.651045 C 54.235932,66.69193 54.235932,65.14086 55.19205,64.184742 L 65.045463,54.328331 C 66.004579,53.370714 67.555648,53.370714 68.514764,54.328331 L 95.551331,81.367896 C 96.508948,82.325513 96.508948,83.878081 95.551331,84.834199 L 85.696419,94.689111 z"
   style="fill:url(#linearGradient2785)"
   id="path142" /><path
   d="M 118.15948,90.597884 L 83.460481,55.897384 L 56.260564,83.094304 L 90.961064,117.7933 C 98.472138,125.30438 110.64841,125.30438 118.15798,117.7933 C 125.66756,110.28223 125.66756,98.107459 118.15948,90.597884 z"
   style="fill:url(#linearGradient2754)"
   id="path160" /><path
   d="M 84.641392,54.716473 C 83.989493,54.061577 82.932968,54.061577 82.276573,54.716473 L 55.081152,81.914891 C 54.427755,82.568289 54.427755,83.626313 55.081152,84.278212 L 89.778655,118.97721 C 97.928139,127.1267 111.18791,127.1267 119.34039,118.97571 C 127.48988,110.82473 127.48988,97.564959 119.34039,89.412477 L 84.641392,54.716473 z M 116.97707,91.778795 C 123.82276,98.624482 123.82276,109.76671 116.97707,116.61239 C 110.13139,123.45958 98.99066,123.45808 92.144972,116.61239 C 92.144972,116.61239 60.904782,85.370705 58.626882,83.094304 C 60.693477,81.030707 81.395386,60.327299 83.460481,58.262204 C 85.736882,60.540103 116.97707,91.778795 116.97707,91.778795 z"
   style="fill:url(#linearGradient2751)"
   id="path175" /><path
   d="M 111.92074,96.491949 C 113.42685,97.999558 114.49686,99.776919 115.13227,101.66967 C 115.19522,98.174897 113.89442,94.660638 111.22837,91.996095 L 82.624252,63.391973 L 63.756652,82.259574 L 70.112291,88.615212 L 87.076646,71.649358 L 111.92074,96.491949 z"
   style="fill:url(#linearGradient2748)"
   id="path190" /><path
   d="M 111.22688,110.8637 C 113.77303,108.32054 115.06933,105.0041 115.13078,101.66967 C 114.49536,99.776919 113.42535,97.999558 111.91924,96.491949 L 83.315115,67.887827 L 66.350759,84.852183 L 92.359275,110.8637 C 97.56997,116.07439 106.01768,116.07439 111.22688,110.8637 z"
   style="fill:url(#linearGradient2745)"
   id="path205" /><path
   d="M 112.41828,112.30087 C 106.63811,118.07954 97.264252,118.07954 91.482583,112.29937 C 85.700915,106.5192 85.700915,97.143848 91.482583,91.362179 C 97.264252,85.580511 106.63811,85.580511 112.41828,91.362179 C 118.19995,97.143848 118.19995,106.5177 112.41828,112.30087 z"
   style="fill:url(#linearGradient2742)"
   id="path220" /><path
   d="M 110.39215,110.27174 C 106.85091,113.81447 101.10221,113.81447 97.559479,110.27174 C 94.013749,106.73051 94.015248,100.98331 97.559479,97.439075 C 101.10071,93.896342 106.84941,93.894844 110.39215,97.439075 C 113.93488,100.98331 113.93488,106.73051 110.39215,110.27174 z"
   style="fill:url(#radialGradient2739)"
   id="path235" /><path
   d="M 108.02733,107.90842 C 105.79139,110.14586 102.16323,110.14586 99.924299,107.90692 C 97.686862,105.66949 97.686862,102.04133 99.924299,99.803894 C 102.16323,97.567956 105.79139,97.567956 108.02733,99.803894 C 110.26626,102.04133 110.26626,105.66949 108.02733,107.90842 z"
   style="fill:url(#radialGradient2736)"
   id="path250" />

</svg>