<?xml version="1.0" encoding="UTF-8" standalone="no"?>
<!-- Created with Inkscape (http://www.inkscape.org/) -->
<svg
   xmlns:dc="http://purl.org/dc/elements/1.1/"
   xmlns:cc="http://creativecommons.org/ns#"
   xmlns:rdf="http://www.w3.org/1999/02/22-rdf-syntax-ns#"
   xmlns:svg="http://www.w3.org/2000/svg"
   xmlns="http://www.w3.org/2000/svg"
   xmlns:xlink="http://www.w3.org/1999/xlink"
   xmlns:sodipodi="http://sodipodi.sourceforge.net/DTD/sodipodi-0.dtd"
   xmlns:inkscape="http://www.inkscape.org/namespaces/inkscape"
   width="128"
   height="128"
   id="svg5055"
   sodipodi:version="0.32"
   inkscape:version="0.46"
   sodipodi:docbase="/home/silvestre/Desktop/Neu/scalable/apps"
   sodipodi:docname="font.svg"
   version="1.0"
   inkscape:output_extension="org.inkscape.output.svg.inkscape">
  <defs
     id="defs3">
    <inkscape:perspective
       sodipodi:type="inkscape:persp3d"
       inkscape:vp_x="0 : 24 : 1"
       inkscape:vp_y="0 : 1000 : 0"
       inkscape:vp_z="48 : 24 : 1"
       inkscape:persp3d-origin="24 : 16 : 1"
       id="perspective3757" />
    <linearGradient
       inkscape:collect="always"
       id="linearGradient6553">
      <stop
         style="stop-color:black;stop-opacity:0.31330472"
         offset="0"
         id="stop6555" />
      <stop
         style="stop-color:black;stop-opacity:0;"
         offset="1"
         id="stop6557" />
    </linearGradient>
    <linearGradient
       id="linearGradient6766">
      <stop
         style="stop-color:#bfbfbf;stop-opacity:1;"
         offset="0"
         id="stop6768" />
      <stop
         id="stop6774"
         offset="0.5"
         style="stop-color:#575757;stop-opacity:1;" />
      <stop
         style="stop-color:black;stop-opacity:1"
         offset="1"
         id="stop6770" />
    </linearGradient>
    <linearGradient
       inkscape:collect="always"
       id="linearGradient5001">
      <stop
         style="stop-color:#f0f0f0;stop-opacity:1"
         offset="0"
         id="stop5003" />
      <stop
         style="stop-color:#dadada;stop-opacity:1"
         offset="1"
         id="stop5005" />
    </linearGradient>
    <linearGradient
       inkscape:collect="always"
       xlink:href="#linearGradient5001"
       id="linearGradient5007"
       x1="79.578094"
       y1="-0.63259059"
       x2="79.578094"
       y2="32.894043"
       gradientUnits="userSpaceOnUse"
       gradientTransform="matrix(2.8125372,0,0,2.8125372,-83.843827,59.391795)" />
    <linearGradient
       inkscape:collect="always"
       xlink:href="#linearGradient6766"
       id="linearGradient6772"
       x1="66.174919"
       y1="-16.689276"
       x2="66.174919"
       y2="16.576611"
       gradientUnits="userSpaceOnUse"
       gradientTransform="matrix(2.4424666,0,0,2.7001287,-65.102283,57.516016)" />
    <linearGradient
       inkscape:collect="always"
       xlink:href="#linearGradient6553"
       id="linearGradient6559"
       x1="109.1167"
       y1="3.4664507"
       x2="100.93536"
       y2="3.4664507"
       gradientUnits="userSpaceOnUse"
       gradientTransform="matrix(2.8125373,0,0,2.8125373,-83.843831,59.391798)" />
  </defs>
  <sodipodi:namedview
     id="base"
     pagecolor="#ffffff"
     bordercolor="#666666"
     borderopacity="1.0"
     inkscape:pageopacity="0.0"
     inkscape:pageshadow="2"
     inkscape:zoom="3.546875"
     inkscape:cx="64"
     inkscape:cy="63.802643"
     inkscape:document-units="px"
     inkscape:current-layer="g2106"
     inkscape:window-width="823"
     inkscape:window-height="684"
     inkscape:window-x="33"
     inkscape:window-y="45"
     inkscape:showpageshadow="false"
     width="48px"
     height="48px"
     showgrid="false"
     showborder="true" />
  <metadata
     id="metadata4">
    <rdf:RDF>
      <cc:Work
         rdf:about="">
        <dc:format>image/svg+xml</dc:format>
        <dc:type
           rdf:resource="http://purl.org/dc/dcmitype/StillImage" />
      </cc:Work>
    </rdf:RDF>
  </metadata>
  <g
     inkscape:label="Layer 1"
     inkscape:groupmode="layer"
     id="layer1">
    <g
       transform="matrix(0.684082,0,0,0.684082,-29.64407,24.41546)"
       id="g2106">
      <path
         style="fill:url(#linearGradient5007);fill-opacity:1;stroke:#b4b4b4;stroke-width:4.08354044;stroke-linecap:round;stroke-linejoin:round;stroke-miterlimit:4;stroke-dashoffset:0;stroke-opacity:1"
         d="M 53.924557,-21.977774 L 202.89252,-30.725443 L 219.49265,-23.377402 C 222.97236,-22.014652 225.11773,-20.868619 225.11773,-17.752328 L 225.11773,134.1694 C 225.11773,137.28569 222.79063,138.70427 219.49265,139.79447 L 201.80233,146.1759 L 53.924557,133.84605 C 50.808265,133.84605 48.299482,131.33727 48.299482,128.22098 L 48.299482,-16.352699 C 48.299482,-19.468991 50.808265,-21.977774 53.924557,-21.977774 z"
         id="rect4126"
         sodipodi:nodetypes="ccccccccccc" />
      <path
         style="fill:none;fill-opacity:1;stroke:#ffffff;stroke-width:3.89792466;stroke-linecap:round;stroke-linejoin:round;stroke-miterlimit:4;stroke-dashoffset:0;stroke-opacity:1"
         d="M 53.728734,-17.95917 L 202.51412,-26.596694 L 219.68846,-19.00889 C 220.46996,-19.00889 221.09912,-18.379743 221.09912,-17.598243 L 221.09912,134.01531 C 221.09912,134.79681 220.46996,135.42596 219.68846,135.42596 L 201.74188,142.16495 L 53.728734,129.47755 C 52.947234,129.47755 52.318086,128.84841 52.318086,128.0669 L 52.318086,-16.548522 C 52.318086,-17.330022 52.947234,-17.95917 53.728734,-17.95917 z"
         id="rect5016"
         sodipodi:nodetypes="ccccccccccc" />
      <path
         style="font-size:133.99008179px;font-style:normal;font-variant:normal;font-weight:bold;font-stretch:normal;line-height:100%;writing-mode:lr-tb;text-anchor:start;fill:url(#linearGradient6772);fill-opacity:1;stroke:none;stroke-width:1.28486145;stroke-linecap:round;stroke-linejoin:round;stroke-miterlimit:4;stroke-dasharray:none;stroke-opacity:1;font-family:Luxi Sans"
         d="M 58.591932,103.37783 L 89.168373,12.458233 L 105.57524,12.458233 L 136.04514,103.37783 L 119.2654,103.37783 L 111.22176,79.112136 L 78.621102,79.112136 L 70.577473,103.37783 L 58.591932,103.37783 M 82.66955,67.009997 L 107.17332,67.009997 L 94.921429,30.765014 L 82.66955,67.009997 M 193.8953,92.995812 L 194.26826,103.19355 C 190.82347,104.34029 187.85813,104.91363 185.37231,104.91363 C 179.15755,104.91363 175.0203,101.98538 172.96061,96.128855 L 172.26812,96.128855 C 168.25515,101.98538 163.31888,104.91363 157.45931,104.91363 C 152.38098,104.91363 148.24376,103.09116 145.04762,99.446187 C 141.85147,95.842176 140.25341,91.111907 140.25341,85.255355 C 140.25341,69.897344 149.52221,62.21833 168.05986,62.21829 L 172.26812,62.21829 L 172.26812,56.075073 C 172.26807,49.071858 169.17847,45.570229 162.99928,45.570171 C 157.7789,45.570229 151.91931,47.577011 145.42051,51.590524 L 145.42051,39.058362 C 152.06136,35.945865 158.82653,34.389585 165.71602,34.389517 C 180.16966,34.389585 187.39645,41.413324 187.3965,55.46075 L 187.3965,85.31678 C 187.39645,90.599954 188.83473,93.241541 191.71129,93.241541 C 192.38597,93.241541 193.11398,93.159642 193.8953,92.995812 M 172.26812,86.361136 L 172.26812,72.661756 L 168.53927,72.661756 C 159.76761,72.661788 155.3818,76.306758 155.38182,83.596685 C 155.3818,86.17686 156.12757,88.306493 157.61912,89.985626 C 159.07513,91.705735 160.93953,92.565786 163.21237,92.565786 C 166.69259,92.565786 169.71116,90.497579 172.26812,86.361136"
         id="text1538" />
      <path
         style="fill:none;fill-opacity:0.75;fill-rule:evenodd;stroke:#ffffff;stroke-width:4.11140394px;stroke-linecap:butt;stroke-linejoin:miter;stroke-opacity:0.80257509"
         d="M 204.65389,-24.544408 L 204.65389,139.91174"
         id="path4802" />
      <path
         style="opacity:0.87029269;fill:url(#linearGradient6559);fill-opacity:1;stroke:none;stroke-width:1;stroke-linecap:round;stroke-linejoin:miter;stroke-miterlimit:4;stroke-dashoffset:0;stroke-opacity:0.80257509"
         d="M 202.49106,-28.655807 L 223.04809,-19.752503 L 223.04809,136.39175 L 202.49106,144.02316 L 202.49106,-28.655807 z"
         id="rect5677"
         sodipodi:nodetypes="ccccc" />
    </g>
  </g>
</svg>
