<?xml version="1.0" encoding="UTF-8" standalone="no"?>
<svg
   xmlns:dc="http://purl.org/dc/elements/1.1/"
   xmlns:cc="http://creativecommons.org/ns#"
   xmlns:rdf="http://www.w3.org/1999/02/22-rdf-syntax-ns#"
   xmlns:svg="http://www.w3.org/2000/svg"
   xmlns="http://www.w3.org/2000/svg"
   xmlns:sodipodi="http://sodipodi.sourceforge.net/DTD/sodipodi-0.dtd"
   xmlns:inkscape="http://www.inkscape.org/namespaces/inkscape"
   width="128"
   height="128"
   id="svg37232"
   sodipodi:version="0.32"
   inkscape:version="0.46"
   sodipodi:docname="gear2.svg"
   inkscape:output_extension="org.inkscape.output.svg.inkscape">
  <metadata
     id="metadata37356">
    <rdf:RDF>
      <cc:Work
         rdf:about="">
        <dc:format>image/svg+xml</dc:format>
        <dc:type
           rdf:resource="http://purl.org/dc/dcmitype/StillImage" />
      </cc:Work>
    </rdf:RDF>
  </metadata>
  <sodipodi:namedview
     inkscape:window-height="829"
     inkscape:window-width="1440"
     inkscape:pageshadow="2"
     inkscape:pageopacity="0.0"
     guidetolerance="10.0"
     gridtolerance="10.0"
     objecttolerance="10.0"
     borderopacity="1.0"
     bordercolor="#666666"
     pagecolor="#ffffff"
     id="base"
     showgrid="false"
     inkscape:zoom="3.546875"
     inkscape:cx="64"
     inkscape:cy="62.937389"
     inkscape:window-x="0"
     inkscape:window-y="25"
     inkscape:current-layer="svg37232" />
  <defs
     id="defs603">
    <inkscape:perspective
       sodipodi:type="inkscape:persp3d"
       inkscape:vp_x="0 : 64 : 1"
       inkscape:vp_y="0 : 1000 : 0"
       inkscape:vp_z="128 : 64 : 1"
       inkscape:persp3d-origin="64 : 42.666667 : 1"
       id="perspective37358" />
    <linearGradient
       id="defitem30"
       gradientUnits="userSpaceOnUse"
       x1="64.8646"
       y1="123.023"
       x2="64.8646"
       y2="4.20176">
      <stop
         stop-color="#dfdfdf"
         offset="0"
         stop-opacity="1"
         id="stop605" />
      <stop
         stop-color="#f9f9f9"
         offset="0.8595"
         stop-opacity="1"
         id="stop606" />
    </linearGradient>
    <linearGradient
       id="defitem31"
       gradientUnits="userSpaceOnUse"
       x1="104.89"
       y1="32.536"
       x2="90.0927"
       y2="3.63759">
      <stop
         stop-color="#ffffff"
         offset="0"
         stop-opacity="1"
         id="stop608" />
      <stop
         stop-color="#dadad6"
         offset="1"
         stop-opacity="1"
         id="stop609" />
    </linearGradient>
    <linearGradient
       id="defitem32"
       gradientUnits="userSpaceOnUse"
       x1="11.227"
       y1="123.494"
       x2="116.32"
       y2="55.5854">
      <stop
         stop-color="#ffffff"
         offset="0"
         stop-opacity="1"
         id="stop611" />
      <stop
         stop-color="#f4f4f4"
         offset="1"
         stop-opacity="1"
         id="stop612" />
    </linearGradient>
    <linearGradient
       id="defitem33"
       gradientUnits="userSpaceOnUse"
       x1="-56.2222"
       y1="10.6514"
       x2="74.8195"
       y2="10.6514">
      <stop
         offset="0"
         style="stop-color:#ffffff;stop-opacity:1;"
         id="stop654" />
      <stop
         offset="1"
         style="stop-color:#f0951a;stop-opacity:1;"
         id="stop655" />
    </linearGradient>
    <linearGradient
       id="defitem0"
       gradientUnits="userSpaceOnUse"
       x1="81.0031"
       y1="164.639"
       x2="81.0031"
       y2="90.655">
      <stop
         stop-color="#ffa800"
         offset="0"
         stop-opacity="1"
         id="stop562" />
      <stop
         stop-color="#fff231"
         offset="1"
         stop-opacity="1"
         id="stop563" />
    </linearGradient>
    <linearGradient
       id="defitem1"
       gradientUnits="userSpaceOnUse"
       x1="118.725"
       y1="72.8819"
       x2="118.725"
       y2="72.8819">
      <stop
         stop-color="#ffa800"
         offset="0"
         stop-opacity="1"
         id="stop565" />
      <stop
         stop-color="#ffcc00"
         offset="1"
         stop-opacity="1"
         id="stop566" />
    </linearGradient>
    <linearGradient
       id="defitem2"
       gradientUnits="userSpaceOnUse"
       x1="128.299"
       y1="52.9607"
       x2="128.299"
       y2="139.704"
       gradientTransform="matrix(0.9201542,0,0,0.9201542,3.5594713,5.5330275)">
      <stop
         stop-color="#ffcd00"
         offset="0"
         stop-opacity="1"
         id="stop568" />
      <stop
         stop-color="#fff231"
         offset="1"
         stop-opacity="1"
         id="stop569" />
    </linearGradient>
    <linearGradient
       id="defitem3"
       gradientUnits="userSpaceOnUse"
       x1="140.146"
       y1="52.9604"
       x2="140.146"
       y2="139.705"
       gradientTransform="matrix(0.9201542,0,0,0.9201542,3.5594713,5.5330275)">
      <stop
         stop-color="#ffa800"
         offset="0"
         stop-opacity="1"
         id="stop571" />
      <stop
         stop-color="#fff231"
         offset="1"
         stop-opacity="1"
         id="stop572" />
    </linearGradient>
    <linearGradient
       id="defitem4"
       gradientUnits="userSpaceOnUse"
       x1="151.537"
       y1="-10.064"
       x2="-7.61855"
       y2="149.092"
       gradientTransform="matrix(0.9201542,0,0,0.9201542,3.5594713,5.5330275)">
      <stop
         stop-color="#ffa800"
         offset="0"
         stop-opacity="1"
         id="stop574" />
      <stop
         stop-color="#ffcc00"
         offset="1"
         stop-opacity="1"
         id="stop575" />
    </linearGradient>
    <linearGradient
       id="defitem5"
       gradientUnits="userSpaceOnUse"
       x1="111.214"
       y1="-19.5899"
       x2="-30.4089"
       y2="122.033"
       gradientTransform="matrix(0.9201542,0,0,0.9201542,3.5594713,5.5330275)">
      <stop
         stop-color="#ffa800"
         offset="0"
         stop-opacity="1"
         id="stop577" />
      <stop
         stop-color="#ffcc00"
         offset="1"
         stop-opacity="1"
         id="stop578" />
    </linearGradient>
    <linearGradient
       id="defitem6"
       gradientUnits="userSpaceOnUse"
       x1="135.978"
       y1="7.24011"
       x2="-9.08133"
       y2="152.3"
       gradientTransform="matrix(0.9201542,0,0,0.9201542,3.5594713,5.5330275)">
      <stop
         stop-color="#ffa800"
         offset="0"
         stop-opacity="1"
         id="stop580" />
      <stop
         stop-color="#ffcc00"
         offset="1"
         stop-opacity="1"
         id="stop581" />
    </linearGradient>
    <linearGradient
       id="defitem7"
       gradientUnits="userSpaceOnUse"
       x1="194.828"
       y1="32.2429"
       x2="2.31344"
       y2="224.757"
       gradientTransform="matrix(0.9201542,0,0,0.9201542,3.5594713,5.5330275)">
      <stop
         stop-color="#ffa800"
         offset="0"
         stop-opacity="1"
         id="stop583" />
      <stop
         stop-color="#ffcc00"
         offset="1"
         stop-opacity="1"
         id="stop584" />
    </linearGradient>
    <linearGradient
       id="defitem8"
       gradientUnits="userSpaceOnUse"
       x1="162.553"
       y1="22.0632"
       x2="-11.3941"
       y2="196.01"
       gradientTransform="matrix(0.9201542,0,0,0.9201542,3.5594713,5.5330275)">
      <stop
         stop-color="#ffa800"
         offset="0"
         stop-opacity="1"
         id="stop586" />
      <stop
         stop-color="#ffcc00"
         offset="1"
         stop-opacity="1"
         id="stop587" />
    </linearGradient>
    <linearGradient
       id="defitem9"
       gradientUnits="userSpaceOnUse"
       x1="166.992"
       y1="16.1914"
       x2="13.3132"
       y2="169.87"
       gradientTransform="matrix(0.9201542,0,0,0.9201542,3.5594713,5.5330275)">
      <stop
         stop-color="#ffa800"
         offset="0"
         stop-opacity="1"
         id="stop589" />
      <stop
         stop-color="#ffcc00"
         offset="1"
         stop-opacity="1"
         id="stop590" />
    </linearGradient>
    <linearGradient
       id="defitem10"
       gradientUnits="userSpaceOnUse"
       x1="125.164"
       y1="-25.1714"
       x2="-28.6134"
       y2="128.606"
       gradientTransform="matrix(0.9201542,0,0,0.9201542,3.5594713,5.5330275)">
      <stop
         stop-color="#ffa800"
         offset="0"
         stop-opacity="1"
         id="stop592" />
      <stop
         stop-color="#ffcc00"
         offset="1"
         stop-opacity="1"
         id="stop593" />
    </linearGradient>
    <linearGradient
       id="defitem11"
       gradientUnits="userSpaceOnUse"
       x1="59.6913"
       y1="39.0511"
       x2="-15.0772"
       y2="113.82"
       gradientTransform="matrix(0.9201542,0,0,0.9201542,3.5594713,5.5330275)">
      <stop
         stop-color="#ffa800"
         offset="0"
         stop-opacity="1"
         id="stop595" />
      <stop
         stop-color="#ffcc00"
         offset="1"
         stop-opacity="1"
         id="stop596" />
    </linearGradient>
    <linearGradient
       id="defitem12"
       gradientUnits="userSpaceOnUse"
       x1="74.1488"
       y1="30.0211"
       x2="9.02067"
       y2="95.1493"
       gradientTransform="matrix(0.9201542,0,0,0.9201542,3.5594713,5.5330275)">
      <stop
         stop-color="#ffa800"
         offset="0"
         stop-opacity="1"
         id="stop598" />
      <stop
         stop-color="#ffcc00"
         offset="1"
         stop-opacity="1"
         id="stop599" />
    </linearGradient>
    <linearGradient
       id="defitem13"
       gradientUnits="userSpaceOnUse"
       x1="47.2894"
       y1="24.6566"
       x2="47.2894"
       y2="153.559"
       gradientTransform="matrix(0.9201542,0,0,0.9201542,3.5594713,5.5330275)">
      <stop
         stop-color="#ffcd00"
         offset="0"
         stop-opacity="1"
         id="stop601" />
      <stop
         stop-color="#fff231"
         offset="1"
         stop-opacity="1"
         id="stop602" />
    </linearGradient>
    <linearGradient
       id="defitem14"
       gradientUnits="userSpaceOnUse"
       x1="6.90755"
       y1="31.9287"
       x2="150.519"
       y2="31.9287"
       gradientTransform="matrix(0.9201542,0,0,0.9201542,3.5594713,5.5330275)">
      <stop
         stop-color="#ffcd00"
         offset="0"
         stop-opacity="1"
         id="stop604" />
      <stop
         stop-color="#fff231"
         offset="1"
         stop-opacity="1"
         id="stop661" />
    </linearGradient>
    <linearGradient
       id="defitem15"
       gradientUnits="userSpaceOnUse"
       x1="78.5292"
       y1="24.6317"
       x2="78.5292"
       y2="153.556">
      <stop
         stop-color="#ffcd00"
         offset="0"
         stop-opacity="1"
         id="stop607" />
      <stop
         stop-color="#fff231"
         offset="1"
         stop-opacity="1"
         id="stop664" />
    </linearGradient>
    <linearGradient
       id="defitem16"
       gradientUnits="userSpaceOnUse"
       x1="51.9049"
       y1="37.3427"
       x2="8.57833"
       y2="80.6692"
       gradientTransform="matrix(0.9201542,0,0,0.9201542,3.5594713,5.5330275)">
      <stop
         stop-color="#ffa800"
         offset="0"
         stop-opacity="1"
         id="stop610" />
      <stop
         stop-color="#ffcc00"
         offset="1"
         stop-opacity="1"
         id="stop667" />
    </linearGradient>
    <linearGradient
       id="defitem17"
       gradientUnits="userSpaceOnUse"
       x1="7.33122"
       y1="84.2578"
       x2="52.4673"
       y2="78.3963"
       gradientTransform="matrix(0.9201542,0,0,0.9201542,3.5594713,5.5330275)">
      <stop
         stop-color="#ffa800"
         offset="0"
         stop-opacity="1"
         id="stop613" />
      <stop
         stop-color="#ffcc00"
         offset="1"
         stop-opacity="1"
         id="stop614" />
    </linearGradient>
    <linearGradient
       id="defitem18"
       gradientUnits="userSpaceOnUse"
       x1="105.901"
       y1="58.7793"
       x2="-36.0101"
       y2="169.092"
       gradientTransform="matrix(0.9201542,0,0,0.9201542,3.5594713,5.5330275)">
      <stop
         stop-color="#ffa800"
         offset="0"
         stop-opacity="1"
         id="stop616" />
      <stop
         stop-color="#ffcc00"
         offset="1"
         stop-opacity="1"
         id="stop617" />
    </linearGradient>
    <linearGradient
       id="defitem19"
       gradientUnits="userSpaceOnUse"
       x1="116.891"
       y1="53.1564"
       x2="43.3731"
       y2="125.55"
       gradientTransform="matrix(0.9201542,0,0,0.9201542,3.5594713,5.5330275)">
      <stop
         stop-color="#ffcd00"
         offset="0"
         stop-opacity="1"
         id="stop619" />
      <stop
         stop-color="#fff231"
         offset="1"
         stop-opacity="1"
         id="stop620" />
    </linearGradient>
    <linearGradient
       id="defitem20"
       gradientUnits="userSpaceOnUse"
       x1="21.2744"
       y1="157.238"
       x2="108.49"
       y2="70.0211"
       gradientTransform="matrix(0.9201542,0,0,0.9201542,3.5594713,5.5330275)">
      <stop
         stop-color="#ff1a00"
         offset="0"
         stop-opacity="1"
         id="stop622" />
      <stop
         stop-color="#970000"
         offset="1"
         stop-opacity="1"
         id="stop623" />
    </linearGradient>
    <linearGradient
       id="defitem21"
       gradientUnits="userSpaceOnUse"
       x1="21.2744"
       y1="157.238"
       x2="108.49"
       y2="70.0211">
      <stop
         stop-color="#ff1a00"
         offset="0"
         stop-opacity="1"
         id="stop625" />
      <stop
         stop-color="#970000"
         offset="1"
         stop-opacity="1"
         id="stop626" />
    </linearGradient>
    <linearGradient
       id="defitem22"
       gradientUnits="userSpaceOnUse"
       x1="40.4102"
       y1="65.5726"
       x2="115.828"
       y2="140.432">
      <stop
         stop-color="#ff0000"
         offset="0"
         stop-opacity="1"
         id="stop628" />
      <stop
         stop-color="#ff771c"
         offset="1"
         stop-opacity="1"
         id="stop629" />
    </linearGradient>
    <radialGradient
       href="#defitem0"
       id="radialGradient667" />
  </defs>
  <path
     id="path297"
     d="M 119.65956,76.150932 C 119.65956,76.150932 111.82132,70.307732 110.16209,69.070235 C 110.17166,68.829818 110.17313,68.787269 110.18124,68.588516 C 110.99097,68.02251 112.08706,67.315833 113.10511,66.663112 C 116.22039,64.664169 117.66024,63.695725 118.38017,62.812376 C 118.74161,62.369083 118.93226,61.81942 118.93226,61.261659 C 118.93226,61.022787 118.89767,60.783988 118.827,60.549239 C 117.65951,56.701744 115.99734,52.853438 113.88467,49.110029 C 113.53942,48.497575 112.94832,48.063262 112.26152,47.916773 C 112.26152,47.916773 103.92345,46.136827 103.20426,45.983723 C 101.95653,44.037413 100.54317,42.152937 99.006881,40.328824 C 100.20529,38.794006 101.87629,36.653359 101.87629,36.653359 C 102.22448,36.206533 102.39599,35.674315 102.39599,35.144279 C 102.39599,34.500907 102.14424,33.861952 101.65251,33.383472 C 98.761016,30.572953 95.64427,27.982535 92.392012,25.683621 C 91.672083,25.17496 90.735735,25.091778 89.937041,25.464992 C 89.937041,25.464992 86.181339,27.219911 84.608244,27.954562 C 82.646475,26.748792 80.612567,25.658593 78.526393,24.681758 C 78.563934,22.846603 78.631658,19.550979 78.631658,19.534047 C 78.631658,18.541017 78.03319,17.643682 77.111416,17.265315 C 73.150263,15.635539 69.057417,14.360575 64.946536,13.474282 C 63.731934,13.212221 62.513281,13.899761 62.109222,15.074612 C 62.109222,15.074612 61.185756,17.75999 60.542899,19.627535 C 58.584002,19.437615 56.647997,19.355906 54.753657,19.405962 C 53.604495,17.953591 49.737419,13.067942 49.737419,13.067942 C 49.234426,12.431932 48.450012,12.085953 47.641086,12.142634 C 44.225474,12.383347 40.938315,12.992121 37.798308,13.857802 C 37.419646,13.741494 37.035242,13.637701 36.627871,13.719411 C 35.589937,13.925525 34.801475,14.774274 34.671402,15.824722 C 34.569229,16.655805 34.534852,19.006247 34.534852,21.706347 C 34.534852,22.942298 34.543022,24.234931 34.553623,25.504008 C 32.224225,24.368906 25.495229,21.089476 25.495229,21.089476 C 24.629825,20.667677 23.591063,20.787666 22.849234,21.400857 C 20.189436,23.59892 17.89678,26.140019 16.035216,28.954218 C 15.818428,29.281056 15.683533,29.655744 15.641758,30.045889 C 15.564925,30.765081 15.173124,38.700518 15.054608,41.115003 C 15.052859,41.154754 15.052031,41.19524 15.052031,41.234991 C 15.052031,42.049143 15.456163,42.812504 16.134961,43.269636 C 16.134961,43.269636 17.254697,44.024163 17.841203,44.41946 C 15.274525,44.569629 12.575436,44.727161 12.575436,44.727161 C 11.413189,44.79562 10.459449,45.67087 10.290969,46.822895 L 8.3361933,60.240878 C 8.3189865,60.358657 8.3107971,60.476436 8.3107971,60.595027 C 8.3107971,60.698083 8.3173306,60.80195 8.3304878,60.905008 L 9.7674934,72.187349 C 9.9139821,73.334082 10.852907,74.224791 12.004479,74.322917 C 12.004479,74.322917 21.165996,75.129339 21.426859,75.153117 C 22.180282,76.78974 23.037406,78.40023 23.833983,79.771039 C 23.791471,79.8275 23.737551,79.839719 23.697432,79.905971 L 22.923766,81.160693 C 22.232547,83.007553 20.756251,86.579371 18.533895,91.776401 C 18.401393,92.086383 18.33597,92.4144 18.33597,92.740723 C 18.33597,93.270732 18.507762,93.796618 18.840675,94.231741 C 21.136551,97.233505 28.649886,104.83929 31.922414,105.61958 C 32.600384,105.7807 33.314424,105.64663 33.887874,105.24995 C 33.887874,105.24995 41.021718,100.3113 43.04937,98.907053 C 44.807011,99.99808 47.414507,101.56529 49.309658,102.49197 C 49.512459,104.29299 50.734424,115.16959 50.734424,115.16959 C 50.838364,116.09056 51.450966,116.87417 52.319592,117.19641 C 58.908706,119.63951 63.186392,120.70523 66.624088,120.76089 C 67.483733,120.77479 68.291849,120.33312 68.747362,119.60353 L 74.310026,110.7095 C 74.713274,110.06825 74.93735,109.70423 75.099297,109.42129 C 76.434183,109.34685 78.234152,109.19806 79.822706,108.91916 C 80.828251,110.21142 85.838306,116.65416 85.838306,116.65416 C 86.430149,117.41476 87.412138,117.75908 88.348487,117.53336 C 92.598126,116.51181 97.009778,113.3498 97.195281,113.21637 C 97.327783,113.12067 97.450716,113.01201 97.561135,112.89248 C 97.913738,112.51144 106.21647,103.53147 107.46126,102.06171 C 107.84846,101.60449 108.05016,101.04089 108.05016,100.47408 C 108.05016,100.06433 107.94489,99.652931 107.72994,99.277507 C 107.72994,99.277507 107.30741,98.538992 107.14914,98.261657 C 107.20877,98.219146 107.28017,98.201203 107.33685,98.152895 L 117.14422,89.773336 C 117.42174,89.536157 117.64258,89.240824 117.79128,88.90714 C 119.24733,85.642874 120.20281,82.107789 120.62977,78.40023 C 120.64007,78.306154 120.64596,78.212077 120.64596,78.118883 C 120.64596,77.350003 120.28452,76.618002 119.65881,76.151741 L 119.65956,76.150932 z M 81.022587,80.000857 C 73.078271,81.690702 63.445654,79.526499 55.257534,74.210069 C 44.948495,67.517824 38.921337,57.316038 38.990018,48.328266 C 46.131223,39.772315 61.309278,38.768242 73.586196,47.39339 C 84.21221,54.856503 89.239196,67.451574 87.741921,77.338594 C 85.794875,78.560558 83.54381,79.463487 81.022587,80.000857 z"
     style="font-size:12px;fill:#000000;fill-opacity:0.15;stroke-width:0" />
  <path
     id="path309"
     d="M 95.551344,90.210916 C 95.551344,90.418649 95.60139,90.628076 95.702975,90.820278 C 95.702975,90.820278 98.769665,96.570211 99.486649,97.915679 C 99.452052,97.955705 99.392426,98.026926 99.335744,98.094005 L 100.45465,97.527172 L 96.02687,89.2237 C 95.994481,89.250716 95.956938,89.266248 95.927493,89.296502 C 95.679419,89.545975 95.551344,89.875611 95.551344,90.210916 z"
     style="font-size:12px;fill:url(#defitem2);stroke-width:0" />
  <path
     id="path313"
     d="M 111.59809,72.553819 L 102.60192,65.839491 L 102.4282,62.712659 C 102.25079,62.930994 102.14037,63.065999 102.14037,63.065999 C 101.95193,63.297436 101.8496,63.587836 101.8496,63.884715 C 101.8496,63.908418 101.85108,63.932932 101.85108,63.956708 L 101.96665,66.037434 C 101.988,66.420218 102.17939,66.775251 102.48635,67.004259 C 102.48635,67.004259 109.94475,72.570161 111.00993,73.365984 C 110.86491,74.434983 110.12143,79.907692 109.85273,81.88536 L 110.25392,82.086617 L 111.59735,72.554628 L 111.59809,72.553819 z"
     style="font-size:12px;fill:url(#defitem3);stroke-width:0" />
  <path
     id="path317"
     d="M 25.075529,32.569375 L 17.736379,27.109539 C 17.729017,27.118372 13.998529,26.210732 13.991996,26.218094 C 13.916727,26.922563 13.416163,37.145117 13.416163,37.145117 L 22.568661,43.309414 L 25.074793,32.569375 L 25.075529,32.569375 z"
     style="font-size:12px;fill:url(#defitem4);stroke-width:0" />
  <path
     id="path321"
     d="M 54.098397,86.457496 L 42.858677,80.229083 L 31.746453,87.870043 L 21.278789,77.612606 C 21.129171,77.751659 21.438343,77.566819 16.700102,88.651954 C 19.323092,92.081478 26.282772,98.637908 28.40207,99.143441 C 38.893401,91.880296 38.893401,91.880296 38.893401,91.880296 C 38.893401,91.880296 45.718885,96.218492 47.501112,96.722368 C 49.084588,110.80603 47.501112,96.722368 49.084588,110.80603 C 54.6301,112.86221 59.123691,114.16192 62.576109,114.2175 C 68.950127,103.97563 68.927233,104.12939 68.950127,103.97563 L 54.248934,100.54125 L 54.098397,86.457496 z"
     style="font-size:12px;fill:url(#defitem5);stroke-width:0" />
  <path
     id="path325"
     d="M 81.626098,89.7529 L 70.985067,90.47673 L 68.456925,102.18842 C 68.458544,102.18842 69.183258,102.95398 69.184877,102.95398 C 69.184877,102.95398 74.298505,102.84034 76.720351,102.10091 C 83.687244,111.05797 76.720351,102.10091 83.687244,111.05797 C 87.515084,110.13781 91.671973,107.13691 91.671973,107.13691 C 91.671973,107.13691 100.27651,97.831392 101.50142,96.385371 L 90.103294,102.21225 L 81.626833,89.7529 L 81.626098,89.7529 z"
     style="font-size:12px;fill:url(#defitem6);stroke-width:0" />
  <path
     id="path329"
     d="M 103.23573,63.654088 C 104.24201,62.41821 111.311,58.493863 112.38795,57.17208 L 102.87208,57.115619 L 103.23573,63.654088 z"
     style="font-size:12px;fill:url(#defitem7);stroke-width:0" />
  <path
     id="path333"
     d="M 91.108839,86.459189 L 101.65453,92.196829 L 111.46191,83.817316 L 99.687611,76.950095 L 91.108839,86.459189 z"
     style="font-size:12px;fill:url(#defitem8);stroke-width:0" />
  <path
     id="path337"
     d="M 33.017518,12.03594 C 32.813022,13.691482 32.940593,23.738094 32.940593,23.738094 C 32.939783,23.744719 32.941402,23.731469 32.940593,23.738094 L 37.763011,20.410816 C 37.763011,20.410816 33.018327,12.03594 33.017518,12.03594 z"
     style="font-size:12px;fill:url(#defitem9);stroke-width:0" />
  <path
     id="path341"
     d="M 24.01956,56.63714 L 10.769431,55.370197 L 8.6305336,43.088577 L 6.6749298,56.505447 L 8.1120257,67.787789 C 8.1120257,67.787789 8.1120257,67.787789 18.986224,68.745559 C 20.734886,73.015883 23.828167,77.623206 23.828167,77.623206 L 29.297565,68.526341 L 24.01956,56.63714 z"
     style="font-size:12px;fill:url(#defitem10);stroke-width:0" />
  <path
     id="path345"
     d="M 8.6305336,43.088577 L 7.6882958,55.833145 L 8.1120257,67.787789 L 9.9302509,55.298204 L 8.6305336,43.088577 z"
     style="font-size:12px;fill:url(#defitem11);stroke-width:0" />
  <path
     id="path349"
     d="M 24.01956,56.63714 L 18.986224,68.745559 L 24.097313,77.623206 L 30.05337,67.694522 L 24.02048,56.636329 L 24.01956,56.63714 z"
     style="font-size:12px;fill:url(#defitem12);stroke-width:0" />
  <path
     id="path353"
     d="M 43.544081,10.274397 L 33.017518,12.035205 L 33.226061,12.403266 C 36.535378,11.396986 40.056476,10.758031 43.72318,10.500388 L 43.543272,10.273662 L 43.544081,10.274397 z"
     style="font-size:12px;fill:url(#defitem13);stroke-width:0" />
  <path
     id="path357"
     d="M 97.332016,99.114732 C 96.428793,99.572785 95.482147,100.05126 94.587021,100.50444 C 95.531468,100.07574 96.444252,99.610419 97.332016,99.114732 z"
     style="font-size:12px;fill:url(#defitem14);stroke-width:0" />
  <path
     id="path366"
     d="M 31.745643,87.870853 L 28.401242,99.142612 L 38.892591,91.879486 L 42.858677,80.229893 L 31.746453,87.870853 L 31.745643,87.870853 z"
     style="font-size:12px;fill:url(#defitem16);stroke-width:0" />
  <path
     id="path367"
     d="M 47.500303,96.721558 L 54.098397,86.457496 L 54.248934,100.54033 L 49.083777,110.8052 L 47.500303,96.721558 z"
     style="font-size:12px;fill:#ffffff;fill-opacity:0.4;stroke-width:0" />
  <path
     id="path368"
     d="M 81.562055,89.963136 L 76.720351,102.10091 L 83.687244,111.05797 L 90.103294,102.21225 L 81.563528,89.962253 L 81.562055,89.963136 z"
     style="font-size:12px;fill:#ffffff;fill-opacity:0.4;stroke-width:0" />
  <path
     id="path372"
     d="M 9.9302509,55.298204 L 8.1120257,67.787789 L 18.986224,68.745559 L 24.01956,56.63714 L 9.9302509,55.298204 z"
     style="font-size:12px;fill:url(#defitem17);fill-opacity:0.5;stroke-width:0" />
  <path
     id="path377"
     d="M 115.56947,72.061426 C 115.56947,72.061426 107.73123,66.218226 106.07201,64.980729 C 106.08158,64.740238 106.08379,64.697689 106.09188,64.498936 C 106.90162,63.932932 107.99771,63.226253 109.01576,62.573606 C 112.13031,60.574589 113.5709,59.606219 114.29009,58.722871 C 114.65226,58.279503 114.84218,57.729915 114.84218,57.17208 C 114.84218,56.933282 114.80832,56.69441 114.73691,56.459659 C 113.57016,52.612238 111.90799,48.764079 109.79532,45.020165 C 109.45007,44.40771 108.85897,43.973397 108.17143,43.826909 C 108.17143,43.826909 99.834099,42.046962 99.114907,41.894585 C 97.866442,39.947539 96.453085,38.063063 94.917541,36.23895 C 96.115205,34.704869 97.786205,32.563486 97.786205,32.563486 C 98.135127,32.116659 98.305908,31.584441 98.305908,31.054424 C 98.305908,30.411788 98.05489,29.772833 97.562423,29.294352 C 94.67094,26.483097 91.55493,23.89268 88.302,21.594503 C 87.582071,21.085841 86.645723,21.001923 85.847766,21.375137 C 85.847766,21.375137 82.091327,23.130792 80.518969,23.864707 C 78.556463,22.659673 76.523217,21.568738 74.436676,20.592639 C 74.474291,18.756748 74.542236,15.461859 74.542236,15.444192 C 74.542236,14.451897 73.943472,13.554563 73.021699,13.175459 C 69.060546,11.546419 64.9677,10.271454 60.856893,9.3844248 C 59.642289,9.1231015 58.423564,9.8099045 58.019505,10.985493 C 58.019505,10.985493 57.096112,13.670134 56.453183,15.53768 C 54.494284,15.347759 52.55828,15.266051 50.664014,15.316107 C 49.514851,13.864472 45.647701,8.9780846 45.647701,8.9780846 C 45.144708,8.3428105 44.360369,7.9968324 43.551443,8.0527779 C 40.135831,8.2934899 36.848598,8.9029996 33.708664,9.7679454 C 33.329929,9.6523742 32.945524,9.5478447 32.538228,9.6302899 C 31.500294,9.8364042 30.711832,10.685155 30.581759,11.735603 C 30.479512,12.56595 30.445134,14.917128 30.445134,17.617229 C 30.445134,18.852443 30.453305,20.145075 30.463979,21.414153 C 28.13449,20.279051 21.405586,17.000356 21.405586,17.000356 C 20.540273,16.577822 19.501511,16.698546 18.75959,17.311001 C 16.099792,19.509801 13.807136,22.050899 11.945573,24.864363 C 11.728877,25.191937 11.593798,25.565888 11.552207,25.956034 C 11.475282,26.675961 11.083481,34.610644 10.9657,37.025866 C 10.964044,37.066352 10.963307,37.106103 10.963307,37.14659 C 10.963307,37.960006 11.367348,38.724102 12.046146,39.181234 C 12.046146,39.181234 13.165881,39.935025 13.752387,40.330323 C 11.185709,40.481228 8.4866215,40.638759 8.4866215,40.638759 C 7.3243744,40.706482 6.3706341,41.581733 6.2021538,42.734502 L 4.2465505,56.151298 C 4.2293436,56.269077 4.2211542,56.386857 4.2211542,56.505447 C 4.2211542,56.608503 4.2276873,56.712445 4.2408456,56.815501 L 5.67785,68.09777 C 5.8243387,69.244502 6.7632647,70.135212 7.9149288,70.233337 C 7.9149288,70.233337 17.076352,71.039834 17.337307,71.063537 C 18.090546,72.70016 18.94767,74.310651 19.744431,75.68146 C 19.701828,75.73792 19.647907,75.750214 19.607789,75.816465 L 18.834031,77.071113 C 18.142903,78.917973 16.666608,82.489791 14.444343,87.686822 C 14.311841,87.996804 14.246418,88.32482 14.246418,88.651143 C 14.246418,89.181152 14.418119,89.707112 14.75103,90.142234 C 17.046908,93.143999 24.560243,100.74975 27.832679,101.53005 C 28.510833,101.69116 29.224872,101.5571 29.798156,101.16042 C 29.798156,101.16042 36.932074,96.221804 38.959653,94.817428 C 40.717367,95.90851 43.324864,97.475643 45.21994,98.402349 C 45.422815,100.20346 46.64478,111.08005 46.64478,111.08005 C 46.748647,112.00094 47.36125,112.78454 48.229874,113.10687 C 54.818989,115.54988 59.096674,116.61569 62.534371,116.67127 C 63.394015,116.68517 64.202132,116.2435 64.657718,115.514 L 70.220381,106.61988 C 70.623557,105.97871 70.847706,105.6147 71.009653,105.33166 C 72.344466,105.25731 74.144729,105.10843 75.733062,104.82953 C 76.738312,106.12189 81.749031,112.56453 81.749031,112.56453 C 82.340137,113.32522 83.322863,113.66954 84.259211,113.44375 C 88.508115,112.42228 92.919702,109.26017 93.105941,109.12684 C 93.238443,109.03114 93.360639,108.92238 93.471059,108.80294 C 93.823662,108.42182 102.12639,99.441939 103.37117,97.972177 C 103.75911,97.514879 103.96007,96.951376 103.96007,96.384561 C 103.96007,95.974761 103.85554,95.563342 103.64059,95.187919 C 103.64059,95.187919 103.21732,94.449366 103.05979,94.172068 C 103.11942,94.129595 103.19082,94.111559 103.24677,94.063343 L 113.05487,85.683756 C 113.33165,85.446577 113.5525,85.151319 113.70118,84.817634 C 115.15724,81.553294 116.11273,78.018283 116.53968,74.310651 C 116.54999,74.216575 116.55587,74.122572 116.55587,74.029305 C 116.55587,73.260498 116.19444,72.528423 115.56873,72.062236 L 115.56947,72.061426 z M 111.46117,83.817316 L 101.6538,92.196829 L 97.952568,90.18309 C 99.422607,92.735819 100.87719,95.271395 101.50068,96.38618 C 100.27577,97.832313 91.671236,107.13774 91.671236,107.13774 C 91.671236,107.13774 87.514349,110.13855 83.686507,111.0587 C 76.719468,102.10183 83.686507,111.0587 76.719468,102.10183 C 74.297621,102.84117 69.184067,102.95481 69.184067,102.95481 C 69.184067,102.95481 69.153813,102.92298 69.113694,102.8812 C 69.052374,103.28938 68.996724,103.65827 68.948508,103.97563 C 68.925615,104.12939 68.948508,103.97563 62.57449,114.2175 C 59.122071,114.16192 54.628405,112.86147 49.082968,110.80603 C 47.499493,96.722368 49.082968,110.80603 47.499493,96.722368 C 45.717265,96.217681 38.891782,91.880296 38.891782,91.880296 C 38.891782,91.880296 38.891782,91.880296 28.400414,99.143441 C 26.282035,98.638737 19.321528,92.081478 16.698445,88.651954 C 21.436687,77.566819 21.128343,77.751659 21.277132,77.612606 L 22.51382,78.824707 C 22.155603,78.405117 21.781745,77.991268 21.436687,77.566819 L 22.797595,76.007047 C 21.738498,74.288567 20.091974,71.451253 18.984476,68.745559 L 16.93244,68.564841 C 16.282168,68.507569 15.682595,68.455231 15.124797,68.406132 L 14.110603,68.316178 C 13.709048,68.280991 13.33519,68.248307 12.985991,68.21717 L 11.867911,68.118234 C 11.202916,68.060154 10.654044,68.011938 10.204273,67.971819 L 9.4713697,67.907187 C 9.3691411,67.898207 9.2774932,67.890036 9.1899863,67.882674 L 8.7835546,67.846678 C 8.7205245,67.840936 8.6632901,67.836079 8.6109333,67.831146 L 8.3843918,67.811492 C 8.3082947,67.80494 8.2527174,67.800082 8.2134275,67.79596 L 8.1250926,67.788598 C 8.1128548,67.787789 8.1120257,67.787789 8.1120257,67.787789 L 6.6749298,56.505447 L 8.6305336,43.088577 L 21.151256,42.354663 L 13.416991,37.14659 C 13.416991,37.14659 13.917554,26.9233 13.992824,26.218829 C 15.763568,23.543757 17.898326,21.207302 20.324221,19.202102 C 22.664357,20.351926 29.291951,23.574675 31.01114,24.409438 C 31.626244,23.912555 32.272414,23.451742 32.933231,23.009331 C 32.908718,20.675085 32.8474,13.421326 33.018327,12.035205 C 33.018327,12.035205 33.094369,12.170651 33.226871,12.403266 C 36.536187,11.396986 40.057285,10.758031 43.72399,10.500388 L 49.502558,17.801995 C 52.297397,17.644465 55.193602,17.771814 58.140597,18.178891 L 60.340723,11.782715 C 64.244679,12.624104 68.182939,13.837971 72.089252,15.444192 L 71.951891,22.111997 C 74.808859,23.354574 77.637045,24.855529 80.389411,26.633267 L 86.887172,23.597494 C 90.106239,25.871379 93.100788,28.377143 95.853145,31.052951 L 91.771349,36.280909 C 94.011373,38.74913 95.982702,41.370466 97.644869,44.088233 C 99.024364,44.382682 105.36975,45.73494 107.65909,46.22519 C 109.66944,49.788763 111.26389,53.461209 112.38868,57.170461 C 111.40669,58.3752 105.46618,61.734425 103.65311,63.25739 C 103.65679,63.434871 103.66709,63.614778 103.66709,63.791448 C 103.66709,64.544797 103.63029,65.288282 103.57361,66.024405 L 103.58686,66.187971 L 114.10238,74.026875 C 113.70634,77.464572 112.82962,80.745988 111.46117,83.814813 L 111.46117,83.817316 z"
     style="font-size:12px;fill:url(#defitem18);stroke-width:0" />
  <path
     id="path386"
     d="M 54.459088,99.320846 L 49.040411,110.66939 L 55.583738,100.85447 L 54.459088,99.320846 z"
     style="font-size:12px;fill:#ffffff;stroke-width:0" />
  <path
     id="path387"
     d="M 89.731552,101.67239 L 83.802078,110.87394 L 91.265633,101.87685 L 89.731552,101.67239 z"
     style="font-size:12px;fill:#ffffff;stroke-width:0" />
  <path
     id="path388"
     d="M 31.250821,87.461126 L 28.285855,99.014159 L 32.477644,87.358879 L 31.250821,87.461126 z"
     style="font-size:12px;fill:#ffffff;stroke-width:0" />
  <path
     id="path389"
     d="M 9.7805418,54.642245 L 8.1446918,67.626651 L 10.394008,55.357977 L 9.7805418,54.642245 z"
     style="font-size:12px;fill:#ffffff;stroke-width:0" />
  <path
     id="path362"
     d="M 103.58686,66.189591 L 103.57361,66.026024 C 103.62955,65.289091 103.66709,64.545606 103.66709,63.793068 C 103.66709,61.772042 103.45067,59.690432 103.03624,57.570396 L 112.38868,57.17208 C 111.26389,53.462018 109.66944,49.790382 107.65909,46.226661 C 105.36975,45.73714 99.022892,44.384145 97.644869,44.089696 C 95.982702,41.371928 94.011373,38.749857 91.771349,36.282371 L 95.853145,31.054424 C 93.100788,28.379351 90.106239,25.873587 86.887172,23.598966 L 80.389411,26.635475 C 77.637045,24.856265 74.808859,23.356046 71.951891,22.113469 L 72.089252,15.446401 C 68.182939,13.839443 64.244679,12.627048 60.340723,11.784187 L 58.140597,18.180363 C 55.193602,17.773286 52.297397,17.646673 49.502558,17.803467 L 43.723971,10.501859 C 40.057268,10.758767 36.536169,11.397722 33.226852,12.405475 L 37.762992,20.411553 C 35.29455,21.448014 33.02567,22.780397 31.011121,24.411647 C 29.291859,23.576147 22.664264,20.353399 20.324221,19.203574 C 17.898326,21.20951 15.763568,23.544494 13.992732,26.220302 L 24.237176,32.952886 C 22.832837,35.881184 22.03534,39.03989 21.795639,42.318583 L 8.6305336,43.088569 C 8.4456745,47.070259 8.8955371,51.176797 9.9302509,55.298204 L 24.01956,56.63714 C 25.425555,60.414262 27.461396,64.14729 30.052542,67.695405 L 21.438251,77.566819 C 24.409706,81.224469 27.856418,84.694103 31.746435,87.870844 L 42.858658,80.229893 L 42.902826,80.254479 C 43.54156,80.705943 44.191851,81.149237 44.855982,81.580311 C 47.821768,83.505632 50.928208,85.134968 54.098397,86.458297 L 54.248934,100.54125 C 59.128623,102.26046 64.07942,103.42105 68.950127,103.97563 C 69.467034,100.5395 70.892683,91.092635 70.985949,90.47753 C 74.659206,90.695938 78.245819,90.469359 81.626833,89.7537 L 90.103294,102.21308 C 91.658723,101.72144 93.155998,101.15306 94.587758,100.50527 C 95.48362,100.05209 96.428793,99.573613 97.332752,99.11556 C 98.804263,98.296071 100.1948,97.38487 101.50142,96.386981 C 100.25737,94.163888 95.707392,86.287368 94.327906,83.900709 C 96.367695,82.242012 98.124085,80.296143 99.55879,78.083725 C 99.611054,78.003561 99.654486,77.918465 99.706014,77.838301 L 111.46264,83.818117 C 112.8311,80.749301 113.70781,77.467001 114.10385,74.030114 L 103.58906,66.19121 L 103.58686,66.189591 z M 89.413546,68.785677 C 82.503557,79.43245 65.132076,80.424597 50.616534,71.003028 C 36.099353,61.57903 29.934762,45.30798 36.84696,34.660692 C 43.758349,24.011931 61.129259,23.020374 75.646421,32.443488 C 90.16292,41.868812 96.327208,58.138021 89.413546,68.785677 z"
     style="font-size:12px;fill:#ffffff;stroke-width:0" />
  <path
     id="path385"
     d="M 102.71602,65.446078 C 102.94937,63.639337 102.99428,59.251159 102.57984,57.130314 L 112.38786,57.172052 C 111.26306,53.461991 109.66861,49.790354 107.65753,46.226635 C 105.36818,45.737112 99.022064,44.384117 97.64404,44.089668 C 95.981875,41.3719 94.009855,38.749829 91.770568,36.282344 L 95.852316,31.054396 C 93.100006,28.379324 90.105456,25.87356 86.886389,23.598939 L 80.388628,26.635448 C 77.636263,24.856238 74.808031,23.356018 71.951063,22.113442 L 72.088424,15.446373 C 68.182111,13.839413 64.243851,12.627018 60.339895,11.784157 L 58.139696,18.180335 C 55.192774,17.773259 52.296569,17.646645 49.50173,17.80344 L 43.723171,10.501829 C 40.056467,10.758737 36.535369,11.397691 33.226052,12.405445 L 37.762192,20.411525 C 35.293748,21.447986 33.02487,22.78037 31.010321,24.411619 C 29.291151,23.576119 22.663501,20.353371 20.323456,19.203546 C 17.89747,21.209483 15.762712,23.544466 13.991876,26.220274 L 24.605302,32.594366 C 23.200871,35.522665 22.800143,38.994959 22.560444,42.272916 L 8.6305059,43.088541 C 8.4456479,47.070232 9.3935901,50.691738 10.428304,54.813218 L 24.605302,55.631126 C 26.011298,59.408248 28.829785,64.079319 31.420931,67.627433 L 23.241818,77.44246 C 25.616184,80.36568 26.965037,82.552776 31.557482,86.302873 C 31.557482,86.302873 31.420931,86.302873 42.735956,78.532732 C 45.053125,80.849902 51.970983,84.161564 55.141245,85.484966 L 55.550235,99.79859 C 60.429923,101.51781 62.948274,101.97016 67.818908,102.52464 C 68.335887,99.088599 69.633894,89.780688 69.727161,89.165583 C 73.400416,89.383991 78.887673,89.063336 82.267951,88.347677 L 90.583937,100.61642 C 93.037436,99.935141 98.682711,96.979975 99.990066,95.981239 C 98.746018,93.758146 94.55385,85.826896 93.174355,83.440163 C 95.214153,81.781465 97.873711,78.972788 99.308415,76.760294 C 99.360681,76.68013 111.1681,83.031247 111.1681,83.031247 C 112.53655,79.962431 113.70699,77.466163 114.10302,74.029277 L 102.71602,65.446078 z M 89.4135,68.78565 C 82.503511,79.432423 65.132058,80.424569 50.616515,71.003 C 36.099363,61.579002 29.93477,45.307952 36.846969,34.660664 C 43.758358,24.011904 61.12924,23.020346 75.646402,32.44346 C 90.162875,41.868784 96.327116,58.137993 89.4135,68.78565 z"
     style="font-size:12px;fill:url(#defitem19);stroke-width:0" />
  <path
     id="path381"
     d="M 51.167899,70.121299 C 37.046661,60.954134 30.944235,45.200506 37.564377,35.002244 C 44.183818,24.805472 61.056539,23.967029 75.177813,33.133236 C 83.36714,38.450991 89.264951,46.367262 90.954364,54.312683 C 92.063701,59.530913 91.31211,64.350092 88.77911,68.251546 C 86.246854,72.152191 82.150328,74.799805 76.932216,75.911351 C 68.987826,77.601122 59.355283,75.436919 51.167089,70.12049 L 51.167899,70.121299 z M 35.389573,33.591105 C 27.990715,44.986294 34.435853,62.349456 49.755388,72.296176 C 58.508742,77.977354 68.870047,80.277372 77.473736,78.446854 C 83.378918,77.191396 87.853987,74.2474 90.767553,69.755437 C 93.287994,65.472183 94.310994,62.486072 93.236962,53.987712 C 91.650772,45.417359 86.219959,37.958101 76.308793,31.262324 C 60.988337,21.316552 43.346571,22.556984 35.389573,33.589632 L 35.389573,33.591105 z"
     style="font-size:12px;fill:url(#defitem20);stroke-width:0" />
</svg>
