<?xml version="1.0" encoding="UTF-8" standalone="no"?>
<!-- Generator: Adobe Illustrator 10.0.3, SVG Export Plug-In . SVG Version: 3.0.0 Build 77)  -->
<svg
   xmlns:a="http://ns.adobe.com/AdobeSVGViewerExtensions/3.0/"
   xmlns:dc="http://purl.org/dc/elements/1.1/"
   xmlns:cc="http://creativecommons.org/ns#"
   xmlns:rdf="http://www.w3.org/1999/02/22-rdf-syntax-ns#"
   xmlns:svg="http://www.w3.org/2000/svg"
   xmlns="http://www.w3.org/2000/svg"
   xmlns:sodipodi="http://sodipodi.sourceforge.net/DTD/sodipodi-0.dtd"
   xmlns:inkscape="http://www.inkscape.org/namespaces/inkscape"
   width="128"
   height="128"
   viewBox="0 0 128 128"
   overflow="visible"
   enable-background="new 0 0 128 128"
   xml:space="preserve"
   id="svg19320"
   sodipodi:version="0.32"
   inkscape:version="0.46"
   sodipodi:docname="exec.svg"
   inkscape:output_extension="org.inkscape.output.svg.inkscape"><metadata
   id="metadata19379"><rdf:RDF><cc:Work
       rdf:about=""><dc:format>image/svg+xml</dc:format><dc:type
         rdf:resource="http://purl.org/dc/dcmitype/StillImage" /></cc:Work></rdf:RDF></metadata><defs
   id="defs19377"><inkscape:perspective
     sodipodi:type="inkscape:persp3d"
     inkscape:vp_x="0 : 64 : 1"
     inkscape:vp_y="0 : 1000 : 0"
     inkscape:vp_z="128 : 64 : 1"
     inkscape:persp3d-origin="64 : 42.666667 : 1"
     id="perspective19381" /></defs><sodipodi:namedview
   inkscape:window-height="682"
   inkscape:window-width="640"
   inkscape:pageshadow="2"
   inkscape:pageopacity="0.0"
   guidetolerance="10.0"
   gridtolerance="10.0"
   objecttolerance="10.0"
   borderopacity="1.0"
   bordercolor="#666666"
   pagecolor="#ffffff"
   id="base"
   showgrid="false"
   inkscape:zoom="3.546875"
   inkscape:cx="64"
   inkscape:cy="64"
   inkscape:window-x="73"
   inkscape:window-y="72"
   inkscape:current-layer="svg19320" />
	<g
   id="Layer_1">
		<linearGradient
   id="XMLID_1_"
   gradientUnits="userSpaceOnUse"
   x1="63.271"
   y1="34.5859"
   x2="63.271"
   y2="71.5838">
			<stop
   offset="0"
   style="stop-color:#003DC7"
   id="stop19324" />
			<stop
   offset="1"
   style="stop-color:#4CA4FF"
   id="stop19326" />
			<a:midPointStop
   offset="0"
   style="stop-color:#003DC7" />
			<a:midPointStop
   offset="0.5"
   style="stop-color:#003DC7" />
			<a:midPointStop
   offset="1"
   style="stop-color:#4CA4FF" />
		</linearGradient>
		<path
   fill="url(#XMLID_1_)"
   d="M48.859,36.605c-5.756,1.012-10.412,3.853-13.465,8.215l-0.096,0.137l0.008,0.17    c0.117,3.157,0.846,6.408,2.166,9.664l0.051,0.122c0.51,1.241,1.111,2.491,1.79,3.717c0.001,0.001,0.079,0.14,0.079,0.14    c0.037,0.064,1.031,1.734,1.031,1.734c0.043,0.066,0.094,0.146,0.094,0.146l1.195,1.77c0.064,0.086,0.117,0.158,0.117,0.158    l1.15,1.511l0.271,0.339c0.889,1.095,1.851,2.166,2.857,3.181c0,0.002,0.377,0.373,0.377,0.373c0,0.002,1.289,1.223,1.289,1.223    l0.334,0.309c0.001,0,1.661,1.416,1.661,1.416l0.367,0.289c0.001,0,1.428,1.096,1.428,1.096l0.501,0.365    c0.001,0,1.865,1.283,1.865,1.283l2.137,1.299c0.036,0.021,0.494,0.285,0.494,0.285l2.133,1.133l0.271,0.131    c0.001,0,1.97,0.904,1.97,0.904l0.469,0.203c0.001,0,2.161,0.844,2.161,0.844l0.398,0.139l-0.004-0.002l1.956,0.635    c0.003,0,0.372,0.109,0.372,0.109c0.002,0.002,2.179,0.564,2.179,0.564c0.003,0,0.447,0.098,0.447,0.098l2.053,0.398    c0.052,0.01,0.179,0.031,0.179,0.031c0.001,0,2.187,0.285,2.187,0.285l0.431,0.041c1.451,0.131,2.902,0.176,4.314,0.131    l0.374-0.012c0.002,0,2.097-0.154,2.097-0.154c0.088-0.01,0.129-0.016,0.129-0.016l1.957-0.289    c0.005-0.002,0.284-0.051,0.284-0.051l1.986-0.451l0.202-0.059c0.002,0,1.813-0.572,1.813-0.572    c0.065-0.02,0.158-0.051,0.158-0.051c0.004-0.002,1.82-0.75,1.82-0.75c-0.003,0,0.154-0.072,0.154-0.072    c0.094-0.045,1.814-0.941,1.814-0.941l0.209-0.109l0.028-0.219c2.4-11.555-4.386-25.566-16.504-34.077    C66.434,37.631,57.051,35.166,48.859,36.605z M49.032,37.586c7.933-1.395,17.044,1.011,24.997,6.598    c10.226,7.181,16.562,18.346,16.562,28.468c0,1.486-0.159,2.947-0.44,4.373c-0.324,0.168-1.429,0.744-1.429,0.744    c-0.1,0.047-0.236,0.111-0.236,0.111c-0.002,0.002-1.745,0.717-1.745,0.717c-0.067,0.023-0.152,0.053-0.152,0.053    c-0.002,0-1.744,0.549-1.744,0.549l-0.212,0.061l-1.901,0.432l-0.278,0.049c0.004,0-1.891,0.279-1.891,0.279    c-0.062,0.008-0.113,0.016-0.113,0.016c-0.007,0-2.038,0.148-2.038,0.148l-0.364,0.012c-1.371,0.045-2.783,0-4.194-0.127    c-0.002,0-0.418-0.039-0.418-0.039l-2.129-0.277l-0.177-0.031l-2.003-0.389c-0.003-0.002-0.436-0.096-0.436-0.096l-2.123-0.549    l-0.368-0.109l-1.908-0.619l-0.389-0.135L61.791,77l-0.459-0.199l-1.928-0.885l-0.266-0.129c-0.001,0-2.088-1.111-2.088-1.111    c-0.002,0-0.447-0.254-0.447-0.254c-0.037-0.021-2.129-1.295-2.129-1.295l-1.826-1.256l-0.492-0.357l-1.397-1.072l-0.36-0.283    l-1.625-1.389l-0.326-0.299l-1.261-1.197l-0.369-0.365c-0.984-0.994-1.924-2.039-2.792-3.106l-0.266-0.333l-1.122-1.475    c-0.062-0.084-0.116-0.156-0.116-0.156l-1.166-1.725c-0.041-0.066-0.091-0.146-0.091-0.146l-0.968-1.621    c-0.039-0.069-0.113-0.199-0.113-0.199c-0.658-1.191-1.244-2.407-1.738-3.609l-0.049-0.12c-1.254-3.09-1.94-6.168-2.072-9.156    C39.223,41.201,43.605,38.54,49.032,37.586z"
   id="path19328" />
		<path
   fill="#FFFFFF"
   d="M120.214,56.626l-5.558-0.048l-2.366,0.094l0.479,8.619L120.214,56.626z"
   id="path19330" />
		<linearGradient
   id="XMLID_2_"
   gradientUnits="userSpaceOnUse"
   x1="68.251"
   y1="-3.418"
   x2="68.251"
   y2="58.0832">
			<stop
   offset="0"
   style="stop-color:#000051"
   id="stop19333" />
			<stop
   offset="1"
   style="stop-color:#58B1FF"
   id="stop19335" />
			<a:midPointStop
   offset="0"
   style="stop-color:#000051" />
			<a:midPointStop
   offset="0.5"
   style="stop-color:#000051" />
			<a:midPointStop
   offset="1"
   style="stop-color:#58B1FF" />
		</linearGradient>
		<path
   fill="url(#XMLID_2_)"
   d="M82.396,29.821C65.97,19.158,46.313,20.28,38.492,32.327c-2.484,3.827-3.471,8.297-3.141,12.954    c7.217-11.231,24.555-12.152,39.086-1.945C86.959,52.129,93.355,66.35,90.7,77.602c2.943-1.611,5.439-3.83,7.273-6.66    C105.798,58.895,98.821,40.483,82.396,29.821z"
   id="path19337" />
		
			<radialGradient
   id="XMLID_3_"
   cx="73.4268"
   cy="136.7842"
   r="53.1517"
   fx="73.4268"
   fy="136.7842"
   gradientUnits="userSpaceOnUse">
			<stop
   offset="0"
   style="stop-color:#FFFFFF"
   id="stop19340" />
			<stop
   offset="1"
   style="stop-color:#006ACA"
   id="stop19342" />
			<a:midPointStop
   offset="0"
   style="stop-color:#FFFFFF" />
			<a:midPointStop
   offset="0.5"
   style="stop-color:#FFFFFF" />
			<a:midPointStop
   offset="1"
   style="stop-color:#006ACA" />
		</radialGradient>
		<path
   fill="url(#XMLID_3_)"
   d="M19.898,80.158l-3.252,11.545l11.188,12.652l10.904-7.891l13.312,8.186l0.141,15.479l14.225,2.832    l8.206-10.895l0.486-3.291l7.53-0.254l7.648,11.756l10.621-5.654l9.384-11.068l-0.002-0.002l0.177-0.09l-4.715-8.844l5.494,2.889    l10.263-10.762l1.567-11.539l-10.179-7.598l-0.128-2.318l7.27-8.924l-5.166-10.483l-8.507-1.822l-7.596-10.026l3.646-4.862    l-8.659-8.052l-6.532,3.189l-10.938-7.443l-0.152-5.47L64.283,6.385l-2.734,7.141l-9.724-1.824l-5.317-6.684L34.691,6.497    l-1.517,12.241l-2.616,1.169L20.227,14.74l-6.662,7.736l-1.381,12.767l6.475,5.91L6.816,41.473L4.893,54.197l1.416,13.694    l13.028,1.338l3.864,7.857L19.898,80.158z M97.974,70.941c-7.819,12.051-27.476,13.174-43.901,2.51    c-16.426-10.664-23.401-29.074-15.58-41.125c7.821-12.047,27.478-13.169,43.903-2.506C98.821,40.483,105.798,58.895,97.974,70.941    z"
   id="path19344" />
		
			<radialGradient
   id="XMLID_4_"
   cx="80.6709"
   cy="122.6865"
   r="116.7806"
   fx="80.6709"
   fy="122.6865"
   gradientUnits="userSpaceOnUse">
			<stop
   offset="0"
   style="stop-color:#CAFFFF"
   id="stop19347" />
			<stop
   offset="1"
   style="stop-color:#0090FF"
   id="stop19349" />
			<a:midPointStop
   offset="0"
   style="stop-color:#CAFFFF" />
			<a:midPointStop
   offset="0.5"
   style="stop-color:#CAFFFF" />
			<a:midPointStop
   offset="1"
   style="stop-color:#0090FF" />
		</radialGradient>
		<path
   fill="url(#XMLID_4_)"
   d="M112.163,67.471l-0.599-10.769l7.63-0.301l-5.086-10.321l-8.376-1.794l-7.479-9.872l3.59-4.787    l-8.525-7.929l-6.432,3.143l-10.771-7.33l-0.148-5.385l-11.67-4.934l-2.691,7.029l-9.572-1.794l-5.235-6.583L35.73,7.339    l5.084,8.825l-9.723,4.339l-10.17-5.086l-6.133,7.478l9.424,7.181l-2.545,11.219L8.355,42.041l1.497,13.764l13.761,1.345    l6.881,13.311l-9.723,9.277l11.816,12.711l11.518-7.928l14.061,8.227l0.148,15.557l16.155,2.992l2.094-14.209l13.911-0.451    l8.077,11.816l11.219-5.682l-7.18-13.463l7.328-9.123l10.771,5.385l1.495-10.621L112.163,67.471z M97.47,70.752    c-7.698,11.861-27.053,12.967-43.224,2.469C38.072,62.723,31.204,44.596,38.905,32.733c7.7-11.863,27.054-12.969,43.226-2.47    C98.304,40.764,105.171,58.889,97.47,70.752z"
   id="path19351" />
		
			<radialGradient
   id="XMLID_5_"
   cx="69.9482"
   cy="120.5879"
   r="95.4979"
   fx="69.9482"
   fy="120.5879"
   gradientUnits="userSpaceOnUse">
			<stop
   offset="0"
   style="stop-color:#FFFFFF"
   id="stop19354" />
			<stop
   offset="1"
   style="stop-color:#0095FF"
   id="stop19356" />
			<a:midPointStop
   offset="0"
   style="stop-color:#FFFFFF" />
			<a:midPointStop
   offset="0.5"
   style="stop-color:#FFFFFF" />
			<a:midPointStop
   offset="1"
   style="stop-color:#0095FF" />
		</radialGradient>
		<path
   fill="url(#XMLID_5_)"
   d="M112.163,67.471l-0.599-10.769l7.63-0.301l-5.086-10.321l-8.376-1.794l-7.479-9.872l3.59-4.787    l-8.525-7.929l-6.432,3.143l-10.771-7.33l-0.148-5.385l-11.67-4.934l-2.691,7.029l-9.572-1.794l-5.235-6.583L35.73,7.339    l5.084,8.825l-9.723,4.339l-10.17-5.086l-6.133,7.478l9.424,7.181l-2.545,11.219L8.355,42.041l1.497,13.764l13.761,1.345    l6.881,13.311l-9.723,9.277l11.816,12.711l11.518-7.928l14.061,8.227l0.148,15.557l16.155,2.992l2.094-14.209l13.911-0.451    l8.077,11.816l11.219-5.682l-7.18-13.463l7.328-9.123l10.771,5.385l1.495-10.621L112.163,67.471z M97.47,70.752    c-7.698,11.861-27.053,12.967-43.224,2.469C38.072,62.723,31.204,44.596,38.905,32.733c7.7-11.863,27.054-12.969,43.226-2.47    C98.304,40.764,105.171,58.889,97.47,70.752z"
   id="path19358" />
		<linearGradient
   id="XMLID_6_"
   gradientUnits="userSpaceOnUse"
   x1="63.9995"
   y1="59.0845"
   x2="63.9995"
   y2="145.0817">
			<stop
   offset="0"
   style="stop-color:#003DC7"
   id="stop19361" />
			<stop
   offset="1"
   style="stop-color:#4CA4FF"
   id="stop19363" />
			<a:midPointStop
   offset="0"
   style="stop-color:#003DC7" />
			<a:midPointStop
   offset="0.5"
   style="stop-color:#003DC7" />
			<a:midPointStop
   offset="1"
   style="stop-color:#4CA4FF" />
		</linearGradient>
		<path
   fill="url(#XMLID_6_)"
   d="M46.446,4.521L34.242,6.049c0,0-1.463,11.812-1.529,12.347c-0.38,0.17-1.818,0.812-2.143,0.957    c-0.406-0.203-10.469-5.234-10.469-5.234l-7.018,8.149l-1.426,13.174c0,0,4.397,4.013,5.748,5.245    c-1.987,0.054-11.021,0.297-11.021,0.297L4.389,54.185l1.465,14.161c0,0,12.629,1.299,13.156,1.352    c0.22,0.447,3.287,6.686,3.578,7.275c-0.459,0.428-3.133,2.914-3.133,2.914L16.092,91.83l11.668,13.195c0,0,10.486-7.586,11-7.959    c0.535,0.328,12.35,7.592,12.794,7.865c0.005,0.533,0.142,15.609,0.142,15.609l14.931,2.973l8.472-11.248    c0,0,0.352-2.373,0.444-3.006c0.715-0.023,6.339-0.213,6.831-0.23c0.296,0.455,7.745,11.904,7.745,11.904l11.109-5.914    l9.446-11.143l-0.135,0.111l0.369-0.76c0,0-2.877-5.398-3.95-7.41c1.567,0.824,4.39,2.307,4.39,2.307l10.635-11.15l1.629-11.992    c0,0-9.866-7.363-10.228-7.633c-0.019-0.344-0.089-1.604-0.104-1.893c0.236-0.291,7.351-9.023,7.351-9.023l-5.415-10.988    c0,0-8.214-1.76-8.562-1.834c-0.211-0.278-6.834-9.021-7.256-9.578c0.397-0.531,3.689-4.92,3.689-4.92l-9.24-8.592    c0,0-6.099,2.978-6.58,3.213c-0.449-0.306-10.089-6.866-10.486-7.136c-0.014-0.464-0.154-5.536-0.154-5.536l-12.623-5.34    c0,0-2.504,6.539-2.771,7.235c-0.737-0.138-8.793-1.649-9.13-1.713c-0.222-0.279-5.376-6.758-5.376-6.758L46.446,4.521z     M46.292,5.548c0.327,0.411,5.258,6.61,5.258,6.61l10.316,1.936c0,0,2.378-6.207,2.699-7.047    c0.855,0.362,10.538,4.458,11.077,4.687c0.017,0.569,0.15,5.404,0.15,5.404l11.391,7.75c0,0,5.924-2.893,6.484-3.166    c0.455,0.423,7.487,6.962,8.078,7.512c-0.463,0.617-3.602,4.803-3.602,4.803l7.936,10.475c0,0,8.004,1.714,8.451,1.81    c0.2,0.405,4.654,9.445,4.917,9.978c-0.383,0.47-7.188,8.825-7.188,8.825l0.151,2.746c0,0,9.68,7.225,10.13,7.561    c-0.074,0.547-1.465,10.783-1.506,11.088c-0.213,0.223-9.401,9.857-9.891,10.369c-0.589-0.309-6.293-3.479-6.293-3.479    s4.611,9.232,4.976,9.916c-0.15,0.178-9.117,10.758-9.238,10.9c-0.16,0.086-9.391,4.998-10.133,5.395    c-0.467-0.719-7.552-11.609-7.552-11.609l-8.229,0.277c0,0-0.494,3.346-0.528,3.578c-0.147,0.195-7.584,10.068-7.94,10.543    c-0.573-0.115-12.782-2.545-13.519-2.691c-0.007-0.771-0.139-15.35-0.139-15.35l-13.834-8.504c0,0-10.12,7.322-10.807,7.818    c-0.559-0.633-10.366-11.723-10.707-12.107c0.141-0.496,3.067-10.891,3.141-11.148c0.192-0.18,3.472-3.229,3.472-3.229    l-4.149-8.439c0,0-12.141-1.248-12.899-1.326c-0.079-0.758-1.356-13.103-1.368-13.225c0.018-0.12,1.736-11.477,1.852-12.247    c0.779-0.021,12.664-0.342,12.664-0.342s-6.852-6.252-7.205-6.574c0.053-0.479,1.305-12.064,1.338-12.36    c0.188-0.22,5.844-6.786,6.306-7.323c0.651,0.325,10.195,5.098,10.195,5.098l3.091-1.381c0,0,1.412-11.41,1.502-12.134    C35.845,6.856,45.778,5.613,46.292,5.548z"
   id="path19365" />
		
			<radialGradient
   id="XMLID_7_"
   cx="-11.0435"
   cy="-11.376"
   r="103.4305"
   fx="-11.0435"
   fy="-11.376"
   gradientUnits="userSpaceOnUse">
			<stop
   offset="0"
   style="stop-color:#FFFFFF"
   id="stop19368" />
			<stop
   offset="1"
   style="stop-color:#8BCEFF"
   id="stop19370" />
			<a:midPointStop
   offset="0"
   style="stop-color:#FFFFFF" />
			<a:midPointStop
   offset="0.5"
   style="stop-color:#FFFFFF" />
			<a:midPointStop
   offset="1"
   style="stop-color:#8BCEFF" />
		</radialGradient>
		<path
   fill="url(#XMLID_7_)"
   d="M53.429,74.479c-9.618-6.242-16.562-15.617-18.573-25.072c-1.383-6.499-0.418-12.547,2.791-17.49    c3.209-4.944,8.34-8.288,14.84-9.67c9.456-2.012,20.844,0.515,30.461,6.759c3.586,2.328,6.716,5.032,9.364,7.958    c1.515-3.42,2.784-6.968,3.799-10.619c-1.306-1.214-2.542-2.364-3.061-2.846c-1.356,0.663-5.506,2.69-5.506,2.69    c-0.483,0.236-1.057,0.195-1.502-0.107l-10.771-7.33c-0.398-0.271-0.643-0.717-0.655-1.199c0,0-0.087-3.121-0.122-4.421    c-1.316-0.556-7.341-3.104-9.352-3.954c-0.699,1.827-2.136,5.579-2.136,5.579c-0.259,0.676-0.965,1.071-1.677,0.938L51.757,13.9    c-0.354-0.066-0.673-0.258-0.897-0.541c0,0-3.848-4.838-4.705-5.916c-1.129,0.153-5.445,0.736-8.01,1.083    c1.359,2.36,3.969,6.889,3.969,6.889c0.133,0.23,0.201,0.488,0.201,0.749c0,0.156-0.025,0.312-0.074,0.463    c-0.131,0.404-0.428,0.733-0.814,0.906l-9.723,4.339c-0.41,0.183-0.88,0.173-1.281-0.028c0,0-7.385-3.693-9.1-4.55    c-0.953,1.161-3.204,3.906-4.389,5.35c1.867,1.422,8.188,6.239,8.188,6.239c0.377,0.287,0.592,0.731,0.592,1.193    c0,0.11-0.013,0.221-0.037,0.332l-2.545,11.219c-0.147,0.653-0.71,1.129-1.379,1.166c0,0-9.282,0.521-11.734,0.658    c0.242,2.221,1.002,9.217,1.194,10.98c2.018,0.197,12.547,1.227,12.547,1.227c0.507,0.049,0.953,0.352,1.187,0.804l6.881,13.312    c0.113,0.217,0.168,0.453,0.168,0.688c0,0.4-0.16,0.795-0.465,1.086c0,0-6.955,6.635-8.65,8.254    c0.65,0.699,2.264,2.436,4.016,4.32c10.194-1.068,19.812-4.002,28.512-8.43C54.74,75.303,54.08,74.902,53.429,74.479z"
   id="path19372" />
		<path
   fill="none"
   d="M128,128H0V0h128V128z"
   id="path19374" />
	</g>
</svg>