<?xml version="1.0" encoding="UTF-8" standalone="no"?>
<!-- Created with Inkscape (http://www.inkscape.org/) -->
<svg
   xmlns:dc="http://purl.org/dc/elements/1.1/"
   xmlns:cc="http://creativecommons.org/ns#"
   xmlns:rdf="http://www.w3.org/1999/02/22-rdf-syntax-ns#"
   xmlns:svg="http://www.w3.org/2000/svg"
   xmlns="http://www.w3.org/2000/svg"
   xmlns:xlink="http://www.w3.org/1999/xlink"
   xmlns:sodipodi="http://sodipodi.sourceforge.net/DTD/sodipodi-0.dtd"
   xmlns:inkscape="http://www.inkscape.org/namespaces/inkscape"
   width="128"
   height="128"
   id="svg1371"
   sodipodi:version="0.32"
   inkscape:version="0.46"
   sodipodi:docbase="/tmp"
   sodipodi:docname="month1.svg"
   inkscape:export-filename="/home/silvestre/Gion/PNGs/text-x-generic.png"
   inkscape:export-xdpi="90"
   inkscape:export-ydpi="90"
   inkscape:output_extension="org.inkscape.output.svg.inkscape"
   version="1.0">
  <defs
     id="defs1373">
    <inkscape:perspective
       sodipodi:type="inkscape:persp3d"
       inkscape:vp_x="0 : 24 : 1"
       inkscape:vp_y="0 : 1000 : 0"
       inkscape:vp_z="48 : 24 : 1"
       inkscape:persp3d-origin="24 : 16 : 1"
       id="perspective34043" />
    <linearGradient
       inkscape:collect="always"
       id="linearGradient4137">
      <stop
         style="stop-color:#ffffff;stop-opacity:1;"
         offset="0"
         id="stop4139" />
      <stop
         style="stop-color:#ffffff;stop-opacity:0;"
         offset="1"
         id="stop4141" />
    </linearGradient>
    <linearGradient
       inkscape:collect="always"
       id="linearGradient2198">
      <stop
         style="stop-color:#000000;stop-opacity:1;"
         offset="0"
         id="stop2200" />
      <stop
         style="stop-color:#000000;stop-opacity:0;"
         offset="1"
         id="stop2202" />
    </linearGradient>
    <linearGradient
       inkscape:collect="always"
       xlink:href="#linearGradient2198"
       id="linearGradient2204"
       x1="5.2010446"
       y1="70.319626"
       x2="5.2010446"
       y2="54.050976"
       gradientUnits="userSpaceOnUse" />
    <linearGradient
       inkscape:collect="always"
       xlink:href="#linearGradient4137"
       id="linearGradient4143"
       x1="22.884989"
       y1="29.59911"
       x2="22.884989"
       y2="46.639858"
       gradientUnits="userSpaceOnUse" />
  </defs>
  <sodipodi:namedview
     id="base"
     pagecolor="#ffffff"
     bordercolor="#666666"
     borderopacity="1.0"
     inkscape:pageopacity="0.0"
     inkscape:pageshadow="2"
     inkscape:zoom="4.5078125"
     inkscape:cx="25.844021"
     inkscape:cy="64"
     inkscape:current-layer="layer4"
     showgrid="false"
     inkscape:grid-bbox="true"
     inkscape:document-units="px"
     inkscape:window-width="1440"
     inkscape:window-height="805"
     inkscape:window-x="0"
     inkscape:window-y="49"
     inkscape:showpageshadow="false"
     showborder="true" />
  <metadata
     id="metadata1376">
    <rdf:RDF>
      <cc:Work
         rdf:about="">
        <dc:format>image/svg+xml</dc:format>
        <dc:type
           rdf:resource="http://purl.org/dc/dcmitype/StillImage" />
        <dc:title>Text Generic</dc:title>
        <dc:creator>
          <cc:Agent>
            <dc:title>Silvestre Herrera</dc:title>
          </cc:Agent>
        </dc:creator>
        <cc:license
           rdf:resource="http://creativecommons.org/licenses/GPL/2.0/" />
      </cc:Work>
      <cc:License
         rdf:about="http://creativecommons.org/licenses/GPL/2.0/">
        <cc:permits
           rdf:resource="http://web.resource.org/cc/Reproduction" />
        <cc:permits
           rdf:resource="http://web.resource.org/cc/Distribution" />
        <cc:requires
           rdf:resource="http://web.resource.org/cc/Notice" />
        <cc:permits
           rdf:resource="http://web.resource.org/cc/DerivativeWorks" />
        <cc:requires
           rdf:resource="http://web.resource.org/cc/ShareAlike" />
        <cc:requires
           rdf:resource="http://web.resource.org/cc/SourceCode" />
      </cc:License>
    </rdf:RDF>
  </metadata>
  <g
     id="layer1"
     inkscape:label="Layer 1"
     inkscape:groupmode="layer" />
  <g
     inkscape:groupmode="layer"
     id="layer3"
     inkscape:label="contents" />
  <g
     inkscape:groupmode="layer"
     id="layer2"
     inkscape:label="lights" />
  <g
     inkscape:groupmode="layer"
     id="layer4"
     inkscape:label="info">
    <path
       sodipodi:type="arc"
       style="opacity:1;fill:#800000;fill-opacity:1;stroke:#9c2429;stroke-width:1.00767267000000005;stroke-linecap:round;stroke-linejoin:round;stroke-miterlimit:4;stroke-dasharray:none;stroke-dashoffset:0;stroke-opacity:1"
       id="path2193"
       sodipodi:cx="31"
       sodipodi:cy="37"
       sodipodi:rx="11.588235"
       sodipodi:ry="11.588235"
       d="M 42.588235,37 A 11.588235,11.588235 0 1 1 19.411765,37 A 11.588235,11.588235 0 1 1 42.588235,37 z"
       transform="matrix(5.2780521,0,0,5.2780521,-99.539622,-131.58686)" />
    <path
       sodipodi:type="arc"
       style="opacity:1;fill:none;fill-opacity:1;stroke:url(#linearGradient4143);stroke-width:1.10364151;stroke-linecap:round;stroke-linejoin:round;stroke-miterlimit:4;stroke-dasharray:none;stroke-dashoffset:0;stroke-opacity:0.44725737"
       id="path3166"
       sodipodi:cx="31"
       sodipodi:cy="37"
       sodipodi:rx="11.588235"
       sodipodi:ry="11.588235"
       d="M 42.588235,37 A 11.588235,11.588235 0 1 1 19.411765,37 A 11.588235,11.588235 0 1 1 42.588235,37 z"
       transform="matrix(4.6416039,0,0,4.6416039,-79.809732,-108.03828)" />
    <path
       style="opacity:0.50000000000000000;fill:#aa0000;fill-opacity:1;stroke:none;stroke-width:1.10364151000000010;stroke-linecap:round;stroke-linejoin:round;stroke-miterlimit:4;stroke-dashoffset:0;stroke-opacity:0.44725736999999999"
       d="M 110.18398,50.894395 C 110.18398,72.102234 89.529388,79.06906 64.079982,79.06906 C 38.630578,79.06906 17.97599,72.102234 17.97599,50.894395 C 17.97599,29.686555 38.630578,12.474399 64.079982,12.474399 C 89.529388,12.474399 110.18398,29.686555 110.18398,50.894395 z"
       id="path4145"
       sodipodi:nodetypes="csssc" />
    <path
       style="font-size:40px;font-style:normal;font-variant:normal;font-weight:normal;font-stretch:normal;text-align:start;line-height:125%;writing-mode:lr-tb;text-anchor:start;fill:#ffffff;fill-opacity:1;stroke:none;stroke-width:1px;stroke-linecap:butt;stroke-linejoin:miter;stroke-opacity:1;font-family:URW Palladio L;-inkscape-font-specification:URW Palladio L"
       d="M 83.506778,46.308292 L 83.506778,84.316565 C 83.506778,92.448136 83.42127,92.630875 79.402535,92.996339 L 76.238849,93.270437 L 76.238849,96.925079 C 86.584951,96.650981 86.584963,96.650981 89.492131,96.650981 C 92.3993,96.650981 92.484818,96.650981 102.83092,96.925079 L 102.83092,93.270437 L 99.667231,92.996339 C 95.648498,92.630875 95.562989,92.448136 95.562989,84.316565 L 95.562989,47.039221 C 95.562989,38.999018 95.819508,38.450813 99.667231,38.085349 L 102.83092,37.81125 L 102.83092,34.430707 C 93.852899,34.704805 93.852888,34.704805 92.912332,34.704805 C 91.971779,34.704805 91.971768,34.704805 83.079252,34.430707 C 80.59961,40.734957 79.830061,42.653653 78.889505,44.75507 L 63.242082,79.291433 L 49.732285,49.140639 L 43.319407,34.430707 L 33.058802,34.704805 C 31.690723,34.704805 29.724103,34.613439 27.158954,34.522073 C 25.87638,34.522073 25.790871,34.522073 22.798197,34.430707 L 22.798197,37.81125 L 25.961883,38.085349 C 29.809608,38.450813 30.066125,38.999018 30.066125,47.039221 L 30.066125,84.316565 C 30.066125,92.35677 29.809608,92.904973 25.961883,93.270437 L 22.798197,93.544535 L 22.798197,96.925079 C 31.006674,96.650981 31.006683,96.650981 32.631277,96.650981 C 34.341377,96.650981 38.274614,96.742347 42.378852,96.925079 L 42.378852,93.544535 L 39.215165,93.270437 C 35.367442,92.904973 35.110923,92.448136 35.110923,84.316565 L 35.110923,46.216926 L 54.777083,89.98126 C 55.375618,91.35175 56.316176,93.54454 57.855264,97.564641 L 60.762436,97.564641 C 62.387032,93.361808 62.729056,92.448136 65.892739,85.504324 L 83.506778,46.308292"
       id="text2540" />
  </g>
</svg>
