<?xml version="1.0" encoding="UTF-8" standalone="no"?>
<!-- Created with Inkscape (http://www.inkscape.org/) -->
<!-- 
Created By Andrew Fitzsimon.
Much of this document has been manually cleaned and crafted in a text editor so that only the colour definitions and basic presentation related data remain in the XML. 
Changes to this document may compromise the structure of this palette.
-->
<svg
   xmlns:dc="http://purl.org/dc/elements/1.1/"
   xmlns:cc="http://creativecommons.org/ns#"
   xmlns:rdf="http://www.w3.org/1999/02/22-rdf-syntax-ns#"
   xmlns:svg="http://www.w3.org/2000/svg"
   xmlns="http://www.w3.org/2000/svg"
   xmlns:xlink="http://www.w3.org/1999/xlink"
   xmlns:sodipodi="http://sodipodi.sourceforge.net/DTD/sodipodi-0.dtd"
   xmlns:inkscape="http://www.inkscape.org/namespaces/inkscape"
   version="1.0"
   x="00"
   y="00"
   width="128"
   height="128"
   id="Etiquette"
   sodipodi:version="0.32"
   inkscape:version="0.46"
   sodipodi:docname="month.svg"
   sodipodi:docbase="/usr/share/icons/dlg-etiquette/scalable/apps"
   inkscape:output_extension="org.inkscape.output.svg.inkscape">
  <metadata
     id="About">
    <rdf:RDF>
      <cc:Work
         rdf:about="">
        <dc:format>image/svg+xml</dc:format>
        <dc:type
           rdf:resource="http://purl.org/dc/dcmitype/StillImage" />
        <dc:creator>
          <cc:Agent>
            <dc:title>Andrew Fitzsimon</dc:title>
          </cc:Agent>
        </dc:creator>
        <dc:date>2004-12-25</dc:date>
        <dc:title>Etiquette Icon</dc:title>
        <cc:license
           rdf:resource="http://creativecommons.org/licenses/by/2.0/" />
        <dc:rights>
          <cc:Agent>
            <dc:title>Andrew Fitzsimon</dc:title>
          </cc:Agent>
        </dc:rights>
      </cc:Work>
      <cc:License
         rdf:about="http://creativecommons.org/licenses/by/2.0/">
        <cc:permits
           rdf:resource="http://web.resource.org/cc/Reproduction" />
        <cc:permits
           rdf:resource="http://web.resource.org/cc/Distribution" />
        <cc:requires
           rdf:resource="http://web.resource.org/cc/Notice" />
        <cc:requires
           rdf:resource="http://web.resource.org/cc/Attribution" />
        <cc:prohibits
           rdf:resource="http://web.resource.org/cc/CommercialUse" />
        <cc:permits
           rdf:resource="http://web.resource.org/cc/DerivativeWorks" />
        <cc:requires
           rdf:resource="http://web.resource.org/cc/ShareAlike" />
      </cc:License>
    </rdf:RDF>
  </metadata>
  <sodipodi:namedview
     id="base"
     pagecolor="#ffffff"
     bordercolor="#666666"
     borderopacity="1.0"
     inkscape:pageopacity="0.0000000"
     inkscape:pageshadow="0"
     inkscape:zoom="5.5136168"
     inkscape:cx="33.804506"
     inkscape:cy="65"
     inkscape:window-width="1440"
     inkscape:window-height="805"
     inkscape:window-x="0"
     inkscape:window-y="49"
     inkscape:current-layer="Etiquette"
     showgrid="false"
     inkscape:grid-points="false"
     gridtolerance="40pt"
     showborder="true"
     inkscape:grid-bbox="false"
     showguides="true"
     inkscape:guide-bbox="true">
    <inkscape:grid
       id="GridFromPre046Settings"
       type="xygrid"
       originx="0px"
       originy="0.0000000pt"
       spacingx="2.0000000pt"
       spacingy="2.0000000pt"
       color="#3f3fff"
       empcolor="#3f3fff"
       opacity="0.082352941"
       empopacity="0.082352941"
       empspacing="2"
       units="pt"
       visible="true"
       enabled="true" />
  </sodipodi:namedview>
  <defs
     id="Gradients">
    <inkscape:perspective
       sodipodi:type="inkscape:persp3d"
       inkscape:vp_x="0 : 64 : 1"
       inkscape:vp_y="0 : 1000 : 0"
       inkscape:vp_z="128 : 64 : 1"
       inkscape:persp3d-origin="64 : 42.666667 : 1"
       id="perspective10439" />
    <linearGradient
       inkscape:collect="always"
       id="linearGradient96">
      <stop
         style="stop-color:#000000;stop-opacity:1;"
         offset="0"
         id="stop97" />
      <stop
         style="stop-color:#000000;stop-opacity:0;"
         offset="1"
         id="stop98" />
    </linearGradient>
    <linearGradient
       id="WhiteTransparent">
      <stop
         style="stop-color:#ffffff;stop-opacity:1.0000000;"
         offset="0.0000000"
         id="stopWhiteFull" />
      <stop
         style="stop-color:#ffffff;stop-opacity:0.0000000;"
         offset="1.0000000"
         id="stopWhiteTransparent" />
    </linearGradient>
    <linearGradient
       inkscape:collect="always"
       xlink:href="#WhiteTransparent"
       id="linearGradient5690"
       gradientUnits="userSpaceOnUse"
       gradientTransform="matrix(1.238344,0.000000,0.000000,0.728438,-22.93085,-25.41824)"
       x1="203.22814"
       y1="283.58530"
       x2="64.171749"
       y2="139.44981" />
    <linearGradient
       inkscape:collect="always"
       id="linearGradient230">
      <stop
         style="stop-color:#000000;stop-opacity:1;"
         offset="0"
         id="stop231" />
      <stop
         style="stop-color:#000000;stop-opacity:0;"
         offset="1"
         id="stop232" />
    </linearGradient>
    <linearGradient
       inkscape:collect="always"
       id="linearGradient217">
      <stop
         style="stop-color:#000000;stop-opacity:1;"
         offset="0"
         id="stop218" />
      <stop
         style="stop-color:#000000;stop-opacity:0;"
         offset="1"
         id="stop219" />
    </linearGradient>
    <linearGradient
       id="linearGradient204">
      <stop
         style="stop-color:#0079d2;stop-opacity:1.0000000;"
         offset="0.0000000"
         id="stop205" />
      <stop
         style="stop-color:#565248;stop-opacity:0;"
         offset="1"
         id="stop206" />
    </linearGradient>
    <linearGradient
       id="linearGradient1824">
      <stop
         style="stop-color:#000000;stop-opacity:1.0000000;"
         offset="0.0000000"
         id="stop1825" />
      <stop
         style="stop-color:#000000;stop-opacity:0.0000000;"
         offset="1.0000000"
         id="stop1826" />
    </linearGradient>
    <linearGradient
       id="linearGradient151">
      <stop
         style="stop-color:#ffffff;stop-opacity:1.0000000;"
         offset="0.0000000"
         id="stop152" />
      <stop
         style="stop-color:#ffffff;stop-opacity:0.0000000;"
         offset="1.0000000"
         id="stop153" />
    </linearGradient>
    <linearGradient
       inkscape:collect="always"
       xlink:href="#linearGradient1681"
       id="linearGradient5316"
       gradientUnits="userSpaceOnUse"
       gradientTransform="matrix(3.099975e-2,4.425737e-2,-0.222571,0.155900,34.56494,89.77171)"
       x1="201.18024"
       y1="54.402161"
       x2="201.18024"
       y2="-9.0048055" />
    <linearGradient
       inkscape:collect="always"
       xlink:href="#linearGradient1681"
       id="linearGradient5317"
       gradientUnits="userSpaceOnUse"
       gradientTransform="matrix(3.668485e-2,5.237381e-2,-0.188079,0.131740,34.56494,89.77171)"
       x1="179.40025"
       y1="62.500917"
       x2="179.40025"
       y2="-10.425566" />
    <linearGradient
       id="linearGradient1681">
      <stop
         style="stop-color:#ffffff;stop-opacity:1.0000000;"
         offset="0.0000000"
         id="stop1682" />
      <stop
         style="stop-color:#ffffff;stop-opacity:0.0000000;"
         offset="1.0000000"
         id="stop1683" />
    </linearGradient>
    <linearGradient
       inkscape:collect="always"
       xlink:href="#linearGradient1681"
       id="linearGradient5318"
       gradientUnits="userSpaceOnUse"
       gradientTransform="matrix(0.127140,0.181513,-4.533397,3.175417,114.2880,33.96752)"
       x1="66.824318"
       y1="14.651873"
       x2="51.313835"
       y2="14.687993" />
    <linearGradient
       id="linearGradient5269">
      <stop
         style="stop-color:#ffffff;stop-opacity:1.0000000;"
         offset="0.0000000"
         id="stop5270" />
      <stop
         style="stop-color:#ffffff;stop-opacity:0.0000000;"
         offset="1.0000000"
         id="stop5271" />
    </linearGradient>
    <linearGradient
       inkscape:collect="always"
       xlink:href="#linearGradient5269"
       id="linearGradient5319"
       gradientUnits="userSpaceOnUse"
       gradientTransform="matrix(0.361406,0.515968,-1.594821,1.117091,114.2880,33.96752)"
       x1="28.298992"
       y1="44.076271"
       x2="21.610971"
       y2="44.290691" />
    <linearGradient
       id="TransparentWhite">
      <stop
         style="stop-color:#ffffff;stop-opacity:0;"
         offset="0"
         id="stopwhitefull" />
      <stop
         style="stop-color:#ffffff;stop-opacity:1;"
         offset="1"
         id="stopwhitetransparent" />
    </linearGradient>
    <linearGradient
       id="MaterialSoftShadow">
      <stop
         style="stop-color:#000000;stop-opacity:0.215;"
         offset="0"
         id="stop2619" />
      <stop
         style="stop-color:#000000;stop-opacity:0.098;"
         offset="0.50000000"
         id="stop2621" />
      <stop
         style="stop-color:#000000;stop-opacity:0;"
         offset="1"
         id="stop2620" />
    </linearGradient>
    <linearGradient
       inkscape:collect="always"
       xlink:href="#MaterialSoftShadow"
       id="linearGradient439"
       gradientUnits="userSpaceOnUse"
       gradientTransform="scale(0.960547,1.041074)"
       x1="-59.549145"
       y1="197.54245"
       x2="76.516380"
       y2="66.194740" />
    <linearGradient
       inkscape:collect="always"
       xlink:href="#TransparentWhite"
       id="linearGradient532"
       gradientUnits="userSpaceOnUse"
       gradientTransform="matrix(1.404740,0.000000,0.000000,0.643993,-4.241857,-1.404757)"
       x1="61.080898"
       y1="68.733429"
       x2="61.080898"
       y2="30.723587" />
    <linearGradient
       inkscape:collect="always"
       xlink:href="#linearGradient1824"
       id="linearGradient196"
       gradientUnits="userSpaceOnUse"
       gradientTransform="matrix(3.078849e-2,4.395577e-2,-0.224099,0.156970,71.33639,90.31215)"
       x1="-34.266853"
       y1="-80.043289"
       x2="-246.55936"
       y2="-75.991661" />
    <linearGradient
       inkscape:collect="always"
       xlink:href="#linearGradient217"
       id="linearGradient220"
       gradientTransform="matrix(1.017545,-0.272650,0.207409,0.774062,-19.84147,11.41720)"
       x1="18.686439"
       y1="122.88339"
       x2="32.252308"
       y2="122.88339"
       gradientUnits="userSpaceOnUse" />
    <linearGradient
       inkscape:collect="always"
       xlink:href="#linearGradient151"
       id="linearGradient225"
       gradientTransform="matrix(1.012298,-0.271244,0.208485,0.778075,-19.95336,10.99961)"
       x1="58.157810"
       y1="105.24436"
       x2="51.798996"
       y2="109.97485"
       gradientUnits="userSpaceOnUse" />
    <linearGradient
       inkscape:collect="always"
       xlink:href="#linearGradient230"
       id="linearGradient233"
       gradientTransform="matrix(2.641170,-0.707699,7.990724e-2,0.298218,-19.84147,11.41720)"
       x1="7.6374406"
       y1="340.84872"
       x2="13.619628"
       y2="340.84872"
       gradientUnits="userSpaceOnUse" />
    <radialGradient
       inkscape:collect="always"
       xlink:href="#MaterialSoftShadow"
       id="radialGradient407"
       gradientUnits="userSpaceOnUse"
       cx="-289.09140"
       cy="598.36652"
       fx="-197.27432"
       fy="572.00757"
       r="125.20509" />
    <linearGradient
       inkscape:collect="always"
       xlink:href="#linearGradient204"
       id="linearGradient442"
       gradientUnits="userSpaceOnUse"
       gradientTransform="scale(0.948683,1.054093)"
       x1="57.884243"
       y1="-65.488770"
       x2="66.880379"
       y2="136.10635" />
    <linearGradient
       inkscape:collect="always"
       xlink:href="#TransparentWhite"
       id="linearGradient94"
       gradientTransform="scale(0.862409,1.159543)"
       x1="29.688217"
       y1="93.795441"
       x2="28.011480"
       y2="92.922554"
       gradientUnits="userSpaceOnUse" />
    <linearGradient
       inkscape:collect="always"
       xlink:href="#linearGradient5269"
       id="linearGradient108"
       gradientTransform="matrix(1.806850,1.036796e-16,-2.547214e-17,0.553449,-47.95968,26.62774)"
       x1="38.110889"
       y1="127.59668"
       x2="38.231152"
       y2="141.17212"
       gradientUnits="userSpaceOnUse" />
    <radialGradient
       inkscape:collect="always"
       xlink:href="#linearGradient96"
       id="radialGradient99"
       cx="-289.09140"
       cy="598.36652"
       fx="-289.09140"
       fy="598.36652"
       r="125.20509"
       gradientUnits="userSpaceOnUse" />
    <linearGradient
       inkscape:collect="always"
       xlink:href="#WhiteTransparent"
       id="linearGradient1171"
       gradientUnits="userSpaceOnUse"
       gradientTransform="matrix(1.152407,0.000000,0.000000,0.677887,-37.43458,-42.13350)"
       x1="203.22814"
       y1="283.58530"
       x2="64.171749"
       y2="139.44981" />
    <linearGradient
       inkscape:collect="always"
       xlink:href="#TransparentWhite"
       id="linearGradient1172"
       gradientUnits="userSpaceOnUse"
       gradientTransform="matrix(-1.977166,0.000000,0.000000,0.967191,109.4164,-79.79950)"
       x1="18.447243"
       y1="132.14793"
       x2="50.512375"
       y2="131.78046" />
    <linearGradient
       inkscape:collect="always"
       xlink:href="#TransparentWhite"
       id="linearGradient1173"
       gradientUnits="userSpaceOnUse"
       gradientTransform="matrix(1.662137,0.000000,0.000000,0.813086,-2.080115,-54.64458)"
       x1="37.356335"
       y1="126.20204"
       x2="55.953182"
       y2="125.81947" />
  </defs>
  <path
     style="fill:url(#linearGradient442);fill-opacity:1;fill-rule:nonzero;stroke:#8d3c3c;stroke-width:4.65000000000000036;stroke-linecap:butt;stroke-linejoin:round;stroke-miterlimit:4;stroke-dashoffset:0;stroke-opacity:1;stroke-dasharray:none"
     d="M 20.000000,13.000000 L 109.96550,13.051317 L 110.00000,113.00000 L 20.000000,113.00000 L 20.000000,13.000000 z "
     id="path441"
     sodipodi:nodetypes="ccccc" />
  <path
     style="opacity:0.42011830;fill:url(#linearGradient532);fill-opacity:1.0000000;fill-rule:nonzero;stroke:none;stroke-width:0.33413577;stroke-linecap:round;stroke-linejoin:round;stroke-miterlimit:4.0000000;stroke-dasharray:1.3365431 1.3365431 ;stroke-dashoffset:0.0000000;stroke-opacity:1.0000000"
     d="M 22.005013,32.285716 C 22.005013,20.380954 39.815163,18.007213 60.000000,18.000000 C 80.184837,17.992789 107.25564,20.233057 107.25564,32.166668 L 107.25564,60.738096 L 22.005013,60.857144 L 22.005013,32.285716 z "
     id="path2345"
     sodipodi:nodetypes="cscccc" />
  <path
     style="opacity:0.56999996;fill:#ffffff;fill-opacity:1;fill-rule:evenodd;stroke:none;stroke-width:2.5;stroke-linecap:butt;stroke-linejoin:miter;stroke-miterlimit:4;stroke-dashoffset:0;stroke-opacity:1"
     d="M 24.189832,41.229544 L 24.189832,47.320454 L 42.462559,47.320454 L 42.462559,41.229544 L 24.189832,41.229544 z M 45.508014,41.229544 L 45.508014,47.320454 L 63.780744,47.320454 L 63.780744,41.229544 L 45.508014,41.229544 z M 66.826194,41.229544 L 66.826194,47.320454 L 85.098924,47.320454 L 85.098924,41.229544 L 66.826194,41.229544 z M 88.144374,41.229544 L 88.144374,47.320454 L 106.4171,47.320454 L 106.4171,41.229544 L 88.144374,41.229544 z M 24.189832,50.365914 L 24.189832,56.456824 L 42.462559,56.456824 L 42.462559,50.365914 L 24.189832,50.365914 z M 45.508014,50.365914 L 45.508014,56.456824 L 63.780744,56.456824 L 63.780744,50.365914 L 45.508014,50.365914 z M 66.826194,50.365914 L 66.826194,56.456824 L 85.098924,56.456824 L 85.098924,50.365914 L 66.826194,50.365914 z M 88.144374,50.365914 L 88.144374,56.456824 L 106.4171,56.456824 L 106.4171,50.365914 L 88.144374,50.365914 z M 24.189832,59.502269 L 24.189832,65.593189 L 42.462559,65.593189 L 42.462559,59.502269 L 24.189832,59.502269 z M 45.508014,59.502269 L 45.508014,65.593189 L 63.780744,65.593189 L 63.780744,59.502269 L 45.508014,59.502269 z M 66.826194,59.502269 L 66.826194,65.593189 L 85.098924,65.593189 L 85.098924,59.502269 L 66.826194,59.502269 z M 88.144374,59.502269 L 88.144374,65.593189 L 106.4171,65.593189 L 106.4171,59.502269 L 88.144374,59.502269 z"
     id="rect172"
     sodipodi:nodetypes="cccccccccccccccccccccccccccccccccccccccccccccccccccccccccccc" />
  <path
     style="opacity:0.56999984;fill:#ffffff;fill-opacity:1;fill-rule:evenodd;stroke:none;stroke-width:2.5;stroke-linecap:butt;stroke-linejoin:miter;stroke-miterlimit:4;stroke-dashoffset:0;stroke-opacity:1"
     d="M 24.198866,68.778836 L 24.198866,74.869746 L 42.471593,74.869746 L 42.471593,68.778836 L 24.198866,68.778836 z"
     id="path18199" />
  <path
     style="opacity:0.56999984;fill:#ffffff;fill-opacity:1;fill-rule:evenodd;stroke:none;stroke-width:2.5;stroke-linecap:butt;stroke-linejoin:miter;stroke-miterlimit:4;stroke-dashoffset:0;stroke-opacity:1"
     d="M 45.517048,68.778836 L 45.517048,74.869746 L 63.789778,74.869746 L 63.789778,68.778836 L 45.517048,68.778836 z"
     id="path18197" />
  <path
     style="opacity:0.56999984;fill:#ffffff;fill-opacity:1;fill-rule:evenodd;stroke:none;stroke-width:2.5;stroke-linecap:butt;stroke-linejoin:miter;stroke-miterlimit:4;stroke-dashoffset:0;stroke-opacity:1"
     d="M 66.835228,68.778836 L 66.835228,74.869746 L 85.107958,74.869746 L 85.107958,68.778836 L 66.835228,68.778836 z"
     id="path18195" />
  <path
     style="opacity:0.56999984;fill:#ffffff;fill-opacity:1;fill-rule:evenodd;stroke:none;stroke-width:2.5;stroke-linecap:butt;stroke-linejoin:miter;stroke-miterlimit:4;stroke-dashoffset:0;stroke-opacity:1"
     d="M 88.153408,68.778836 L 88.153408,74.869746 L 106.42613,74.869746 L 106.42613,68.778836 L 88.153408,68.778836 z"
     id="path18193" />
  <path
     style="opacity:0.56999984;fill:#ffffff;fill-opacity:1;fill-rule:evenodd;stroke:none;stroke-width:2.5;stroke-linecap:butt;stroke-linejoin:miter;stroke-miterlimit:4;stroke-dashoffset:0;stroke-opacity:1"
     d="M 24.198866,77.915206 L 24.198866,84.006119 L 42.471593,84.006119 L 42.471593,77.915206 L 24.198866,77.915206 z"
     id="path18191" />
  <path
     style="opacity:0.56999984;fill:#ffffff;fill-opacity:1;fill-rule:evenodd;stroke:none;stroke-width:2.5;stroke-linecap:butt;stroke-linejoin:miter;stroke-miterlimit:4;stroke-dashoffset:0;stroke-opacity:1"
     d="M 45.517048,77.915206 L 45.517048,84.006119 L 63.789778,84.006119 L 63.789778,77.915206 L 45.517048,77.915206 z"
     id="path18189" />
  <path
     style="opacity:0.56999984;fill:#ffffff;fill-opacity:1;fill-rule:evenodd;stroke:none;stroke-width:2.5;stroke-linecap:butt;stroke-linejoin:miter;stroke-miterlimit:4;stroke-dashoffset:0;stroke-opacity:1"
     d="M 66.835228,77.915206 L 66.835228,84.006119 L 85.107958,84.006119 L 85.107958,77.915206 L 66.835228,77.915206 z"
     id="path18187" />
  <path
     style="opacity:0.56999984;fill:#ffffff;fill-opacity:1;fill-rule:evenodd;stroke:none;stroke-width:2.5;stroke-linecap:butt;stroke-linejoin:miter;stroke-miterlimit:4;stroke-dashoffset:0;stroke-opacity:1"
     d="M 88.153408,77.915206 L 88.153408,84.006119 L 106.42613,84.006119 L 106.42613,77.915206 L 88.153408,77.915206 z"
     id="path18185" />
  <path
     style="opacity:0.56999984;fill:#ff8080;fill-opacity:1;fill-rule:evenodd;stroke:none;stroke-width:2.5;stroke-linecap:butt;stroke-linejoin:miter;stroke-miterlimit:4;stroke-dashoffset:0;stroke-opacity:1"
     d="M 24.198866,87.051559 L 24.198866,93.142479 L 42.471593,93.142479 L 42.471593,87.051559 L 24.198866,87.051559 z"
     id="path18183" />
  <path
     style="opacity:0.56999984;fill:#ff8080;fill-opacity:1;fill-rule:evenodd;stroke:none;stroke-width:2.5;stroke-linecap:butt;stroke-linejoin:miter;stroke-miterlimit:4;stroke-dashoffset:0;stroke-opacity:1"
     d="M 45.517048,87.051559 L 45.517048,93.142479 L 63.789778,93.142479 L 63.789778,87.051559 L 45.517048,87.051559 z"
     id="path18181" />
  <path
     style="opacity:0.56999984;fill:#ff8080;fill-opacity:1;fill-rule:evenodd;stroke:none;stroke-width:2.5;stroke-linecap:butt;stroke-linejoin:miter;stroke-miterlimit:4;stroke-dashoffset:0;stroke-opacity:1"
     d="M 66.835228,87.051559 L 66.835228,93.142479 L 85.107958,93.142479 L 85.107958,87.051559 L 66.835228,87.051559 z"
     id="path18179" />
  <path
     style="opacity:0.56999984;fill:#ff8080;fill-opacity:1;fill-rule:evenodd;stroke:none;stroke-width:2.5;stroke-linecap:butt;stroke-linejoin:miter;stroke-miterlimit:4;stroke-dashoffset:0;stroke-opacity:1"
     d="M 88.153408,87.051559 L 88.153408,93.142479 L 106.42613,93.142479 L 106.42613,87.051559 L 88.153408,87.051559 z"
     id="path1175" />
  <path
     id="path18201"
     d="M 24.198866,95.98261 L 24.198866,102.07353 L 42.471593,102.07353 L 42.471593,95.98261 L 24.198866,95.98261 z"
     style="opacity:0.56999978;fill:#ff0000;fill-opacity:1;fill-rule:evenodd;stroke:none;stroke-width:2.5;stroke-linecap:butt;stroke-linejoin:miter;stroke-miterlimit:4;stroke-dashoffset:0;stroke-opacity:1" />
  <path
     id="path18203"
     d="M 45.517048,95.98261 L 45.517048,102.07353 L 63.789778,102.07353 L 63.789778,95.98261 L 45.517048,95.98261 z"
     style="opacity:0.56999978;fill:#ff0000;fill-opacity:1;fill-rule:evenodd;stroke:none;stroke-width:2.5;stroke-linecap:butt;stroke-linejoin:miter;stroke-miterlimit:4;stroke-dashoffset:0;stroke-opacity:1" />
  <path
     id="path18205"
     d="M 66.835228,95.98261 L 66.835228,102.07353 L 85.107958,102.07353 L 85.107958,95.98261 L 66.835228,95.98261 z"
     style="opacity:0.56999978;fill:#ff0000;fill-opacity:1;fill-rule:evenodd;stroke:none;stroke-width:2.5;stroke-linecap:butt;stroke-linejoin:miter;stroke-miterlimit:4;stroke-dashoffset:0;stroke-opacity:1" />
  <path
     id="path18207"
     d="M 88.153408,95.98261 L 88.153408,102.07353 L 106.42613,102.07353 L 106.42613,95.98261 L 88.153408,95.98261 z"
     style="opacity:0.56999978;fill:#ff0000;fill-opacity:1;fill-rule:evenodd;stroke:none;stroke-width:2.5;stroke-linecap:butt;stroke-linejoin:miter;stroke-miterlimit:4;stroke-dashoffset:0;stroke-opacity:1" />
  <path
     style="font-size:40px;font-style:normal;font-variant:normal;font-weight:normal;font-stretch:normal;text-align:start;line-height:125%;writing-mode:lr-tb;text-anchor:start;fill:#ff0000;fill-opacity:1;stroke:none;stroke-width:1px;stroke-linecap:butt;stroke-linejoin:miter;stroke-opacity:1;font-family:URW Palladio L;-inkscape-font-specification:URW Palladio L"
     d="M 52.77676,33.42297 C 52.77676,34.966596 52.676993,35.103375 51.504752,35.181533 L 50.656747,35.240152 L 50.656747,35.826339 C 51.804047,35.78726 52.552289,35.767721 53.849237,35.767721 C 55.245949,35.767721 56.14384,35.78726 57.615377,35.826339 L 57.615377,35.240152 L 56.418193,35.181533 C 55.270894,35.122914 55.146185,34.966596 55.146185,33.42297 L 55.146185,24.649693 C 55.146185,23.125607 55.270894,22.949749 56.418193,22.89113 L 57.465729,22.832511 L 57.465729,22.246324 C 55.57019,22.304943 55.570187,22.304943 55.146185,22.304943 C 54.772067,22.304943 54.772063,22.304943 52.77676,22.246324 L 46.242132,33.110336 L 39.657622,22.246324 C 37.662318,22.304943 37.662314,22.304943 37.288196,22.304943 C 36.914076,22.304943 36.914074,22.304943 34.91877,22.246324 L 34.91877,22.832511 L 36.016188,22.89113 C 37.163489,22.949749 37.288196,23.125607 37.288196,24.649693 L 37.288196,33.42297 C 37.288196,34.947056 37.163489,35.122914 36.016188,35.181533 L 34.91877,35.240152 L 34.91877,35.826339 C 37.387959,35.767721 37.387961,35.767721 37.811964,35.767721 C 38.186083,35.767721 38.186087,35.767721 40.804922,35.826339 L 40.804922,35.240152 L 39.707504,35.181533 C 38.560205,35.122914 38.435496,34.947056 38.435496,33.42297 L 38.435496,24.473837 L 45.394126,36.021735 L 45.892953,36.021735 C 46.067543,35.728641 46.217191,35.416007 46.366839,35.122914 C 46.7659,34.360871 47.065197,33.813761 47.239786,33.540208 L 51.679342,26.154242 C 52.028519,25.587594 52.327817,25.138183 52.77676,24.473837 L 52.77676,33.42297 M 68.273118,22.090007 L 67.474995,22.090007 L 66.502283,23.946269 L 65.180393,26.310558 L 60.740837,34.224093 C 60.441542,34.790741 59.942714,35.142454 59.394005,35.181533 L 58.471176,35.240152 L 58.471176,35.826339 C 60.790717,35.767721 60.79072,35.767721 61.189781,35.767721 C 61.514017,35.767721 61.514021,35.767721 64.207681,35.826339 L 64.207681,35.240152 L 63.284852,35.181533 C 62.411907,35.122914 62.087668,34.986137 62.087668,34.673504 C 62.087668,34.419489 62.436848,33.579285 62.960615,32.602307 L 63.658972,31.293154 L 70.842074,31.293154 L 71.989375,33.540208 C 72.413377,34.360869 72.513143,34.614885 72.513143,34.790741 C 72.513143,35.005676 72.114081,35.142454 71.490549,35.181533 L 70.318307,35.240152 L 70.318307,35.826339 C 73.386086,35.767721 73.38609,35.767721 73.785151,35.767721 C 74.259035,35.767721 74.259038,35.767721 76.952698,35.826339 L 76.952698,35.240152 L 76.104693,35.181533 C 75.456219,35.103375 75.181864,34.7712 74.308918,33.188495 L 68.273118,22.090007 M 64.082975,30.511571 L 67.250523,24.688773 L 70.39313,30.511571 L 64.082975,30.511571 M 77.709511,22.480799 L 77.709511,23.047447 L 78.432811,23.106066 C 79.280815,23.203763 80.577766,24.219824 81.625301,25.646213 L 84.718025,29.866764 C 84.867673,30.06216 84.942496,30.335714 84.942496,30.648348 L 84.942496,33.42297 C 84.942496,34.966596 84.817789,35.122914 83.67049,35.181533 L 82.473306,35.240152 L 82.473306,35.826339 C 83.944843,35.78726 84.817792,35.767721 86.114739,35.767721 C 87.411687,35.767721 88.309577,35.78726 89.781114,35.826339 L 89.781114,35.240152 L 88.58393,35.181533 C 87.436631,35.122914 87.311923,34.966596 87.311923,33.42297 L 87.311923,30.902362 C 87.311923,29.827686 87.661103,29.163337 89.107699,27.443855 C 90.953354,25.274963 91.776421,24.395677 93.796671,22.500339 L 93.796671,22.207245 L 91.801361,22.207245 C 90.853592,23.653173 90.080409,24.708313 89.107699,25.919767 L 86.538741,29.10472 L 82.972132,24.004887 C 82.174011,22.871592 81.151415,21.97277 80.702471,21.992309 C 80.702471,21.992309 80.652588,21.992309 80.577765,22.011849 L 77.709511,22.480799"
     id="text18209" />
</svg>
