<?xml version="1.0" encoding="UTF-8" standalone="no"?>
<!-- Created with Inkscape (http://www.inkscape.org/) -->
<svg
   xmlns:dc="http://purl.org/dc/elements/1.1/"
   xmlns:cc="http://creativecommons.org/ns#"
   xmlns:rdf="http://www.w3.org/1999/02/22-rdf-syntax-ns#"
   xmlns:svg="http://www.w3.org/2000/svg"
   xmlns="http://www.w3.org/2000/svg"
   xmlns:xlink="http://www.w3.org/1999/xlink"
   xmlns:sodipodi="http://sodipodi.sourceforge.net/DTD/sodipodi-0.dtd"
   xmlns:inkscape="http://www.inkscape.org/namespaces/inkscape"
   id="svg1568"
   sodipodi:version="0.32"
   inkscape:version="0.46"
   width="128"
   height="128"
   sodipodi:docbase="/usr/share/icons/dlg-etiquette/scalable/stock"
   sodipodi:docname="print-preview.svg"
   inkscape:output_extension="org.inkscape.output.svg.inkscape"
   version="1.0">
  <defs
     id="defs1570">
    <inkscape:perspective
       sodipodi:type="inkscape:persp3d"
       inkscape:vp_x="0 : 80 : 1"
       inkscape:vp_y="0 : 1000 : 0"
       inkscape:vp_z="160 : 80 : 1"
       inkscape:persp3d-origin="80 : 53.333333 : 1"
       id="perspective13154" />
    <linearGradient
       id="linearGradient2201">
      <stop
         offset="0.0000000"
         style="stop-color:#ffffff;stop-opacity:0.53389829;"
         id="stop2203" />
      <stop
         offset="1.0000000"
         style="stop-color:#cbd5e8;stop-opacity:0.53389829;"
         id="stop2202" />
    </linearGradient>
    <linearGradient
       inkscape:collect="always"
       id="linearGradient84">
      <stop
         style="stop-color:#000000;stop-opacity:1;"
         offset="0"
         id="stop85" />
      <stop
         style="stop-color:#000000;stop-opacity:0;"
         offset="1"
         id="stop86" />
    </linearGradient>
    <linearGradient
       id="linearGradient1492">
      <stop
         style="stop-color:#e5e5e5;stop-opacity:1.0000000;"
         offset="0.0000000"
         id="stop1493" />
      <stop
         style="stop-color:#f9f9f9;stop-opacity:1.0000000;"
         offset="0.34923077"
         id="stop1496" />
      <stop
         style="stop-color:#ffffff;stop-opacity:1.0000000;"
         offset="1.0000000"
         id="stop1494" />
    </linearGradient>
    <linearGradient
       inkscape:collect="always"
       xlink:href="#linearGradient1492"
       id="linearGradient7980"
       x1="76.923798"
       y1="78.52478"
       x2="76.923798"
       y2="40.786755"
       gradientTransform="matrix(0.9726154,0,0,0.5824477,2.0215469,2.5804647)"
       gradientUnits="userSpaceOnUse" />
    <linearGradient
       inkscape:collect="always"
       id="linearGradient2529">
      <stop
         style="stop-color:#ffffff;stop-opacity:0.0000000;"
         offset="0.0000000"
         id="stop2530" />
      <stop
         style="stop-color:#fff;stop-opacity:1;"
         offset="1"
         id="stop2532" />
    </linearGradient>
    <linearGradient
       inkscape:collect="always"
       xlink:href="#linearGradient2529"
       id="linearGradient7987"
       x1="33.681587"
       y1="174.26285"
       x2="33.681587"
       y2="121.15584"
       gradientTransform="matrix(1.9027926,0,0,0.3353874,-1.5595605,-2.7214206)"
       gradientUnits="userSpaceOnUse" />
    <linearGradient
       id="linearGradient2541">
      <stop
         style="stop-color:#000000;stop-opacity:0.0000000;"
         offset="0.0000000"
         id="stop2542" />
      <stop
         style="stop-color:#000000;stop-opacity:0.55084747;"
         offset="1.0000000"
         id="stop2543" />
    </linearGradient>
    <linearGradient
       inkscape:collect="always"
       xlink:href="#linearGradient2541"
       id="linearGradient7975"
       x1="31.095657"
       y1="330.08148"
       x2="31.503284"
       y2="286.7713"
       gradientTransform="matrix(2.3225412,0,0,0.2747727,-2.3818073,-2.0090265)"
       gradientUnits="userSpaceOnUse" />
    <linearGradient
       id="linearGradient1568">
      <stop
         style="stop-color:#dedede;stop-opacity:1.0000000;"
         offset="0.0000000"
         id="stop1569" />
      <stop
         style="stop-color:#c6deee;stop-opacity:1.0000000;"
         offset="0.42928788"
         id="stop1574" />
      <stop
         style="stop-color:#e3e3e3;stop-opacity:1.0000000;"
         offset="0.58570588"
         id="stop3320" />
      <stop
         style="stop-color:#ffffff;stop-opacity:1.0000000;"
         offset="1.0000000"
         id="stop1570" />
    </linearGradient>
    <linearGradient
       xlink:href="#linearGradient1568"
       id="linearGradient1495"
       x1="73.81842"
       y1="125.53583"
       x2="71.848419"
       y2="196.4209"
       gradientTransform="matrix(1.2323721,0,0,0.5178402,-2.3818076,-2.0090264)"
       gradientUnits="userSpaceOnUse" />
    <linearGradient
       id="linearGradient1806">
      <stop
         style="stop-color:#000000;stop-opacity:0.53103447;"
         offset="0.0000000"
         id="stop1807" />
      <stop
         style="stop-color:#000000;stop-opacity:0.073446326;"
         offset="0.64777780"
         id="stop3276" />
      <stop
         style="stop-color:#000000;stop-opacity:0.0000000;"
         offset="1.0000000"
         id="stop1808" />
    </linearGradient>
    <radialGradient
       xlink:href="#linearGradient1806"
       id="radialGradient1505"
       cx="24.825565"
       cy="176.56438"
       r="51.667702"
       fx="27.010122"
       fy="137.43433"
       gradientUnits="userSpaceOnUse" />
    <linearGradient
       inkscape:collect="always"
       xlink:href="#linearGradient1492"
       id="linearGradient1743"
       gradientTransform="matrix(1.6049144,0,0,0.3976353,-2.3818076,-2.0090264)"
       x1="48.756077"
       y1="228.23079"
       x2="49.343483"
       y2="263.54617"
       gradientUnits="userSpaceOnUse" />
    <radialGradient
       inkscape:collect="always"
       xlink:href="#linearGradient1806"
       id="radialGradient1752"
       cx="24.825565"
       cy="176.56438"
       fx="27.010122"
       fy="137.43433"
       r="51.667702"
       gradientUnits="userSpaceOnUse" />
    <linearGradient
       inkscape:collect="always"
       xlink:href="#linearGradient84"
       id="linearGradient87"
       gradientTransform="matrix(2.1882348,0,0,0.2588832,2.0215472,1.484331)"
       x1="29.84944"
       y1="299.49295"
       x2="29.84944"
       y2="327.79507"
       gradientUnits="userSpaceOnUse" />
    <linearGradient
       inkscape:collect="always"
       xlink:href="#linearGradient2541"
       id="linearGradient99"
       gradientUnits="userSpaceOnUse"
       gradientTransform="matrix(0.9351906,0,0,0.5226844,4.4725717,7.2020994)"
       x1="85.403702"
       y1="53.834229"
       x2="85.403702"
       y2="87.322479" />
    <metadata
       id="metadata68">
      <rdf:RDF>
        <cc:Work
           rdf:about="">
          <dc:format>image/svg+xml</dc:format>
          <dc:type
             rdf:resource="http://purl.org/dc/dcmitype/StillImage" />
        </cc:Work>
      </rdf:RDF>
    </metadata>
    <defs
       id="defs192">
      <linearGradient
         id="XMLID_1_"
         gradientUnits="userSpaceOnUse"
         x1="86.394997"
         y1="86.276398"
         x2="312.32861"
         y2="312.2099">
        <stop
           offset="0"
           style="stop-color:#FFFFFF"
           id="stop161" />
        <stop
           offset="1"
           style="stop-color:#99CCFF"
           id="stop162" />
      </linearGradient>
      <linearGradient
         id="XMLID_2_"
         gradientUnits="userSpaceOnUse"
         x1="211.957"
         y1="220.91991"
         x2="223.1826"
         y2="208.0907"
         gradientTransform="matrix(0.9999,1.2e-2,-1.2e-2,0.9999,2.579,-2.6)">
        <stop
           offset="0.0000000"
           style="stop-color:#ff5800;stop-opacity:1.0000000;"
           id="stop173" />
        <stop
           offset="1.0000000"
           style="stop-color:#ffcc31;stop-opacity:1.0000000;"
           id="stop174" />
      </linearGradient>
      <linearGradient
         id="XMLID_3_"
         gradientUnits="userSpaceOnUse"
         x1="98.557602"
         y1="135.627"
         x2="189.6787"
         y2="135.627"
         spreadMethod="pad"
         xlink:href="#linearGradient2201" />
    </defs>
    <sodipodi:namedview
       id="namedview1166"
       inkscape:zoom="5.2885695"
       inkscape:cx="4.9960863"
       inkscape:cy="24.856355"
       inkscape:window-width="640"
       inkscape:window-height="538"
       inkscape:window-x="0"
       inkscape:window-y="26"
       inkscape:current-layer="svg153" />
    <linearGradient
       inkscape:collect="always"
       xlink:href="#XMLID_2_"
       id="linearGradient1566"
       gradientUnits="userSpaceOnUse"
       gradientTransform="matrix(0.631095,7.573896e-3,-7.573896e-3,0.631095,-154.7527,-27.92565)"
       x1="211.957"
       y1="220.91991"
       x2="223.1826"
       y2="208.0907" />
    <linearGradient
       inkscape:collect="always"
       xlink:href="#linearGradient2201"
       id="linearGradient1567"
       gradientUnits="userSpaceOnUse"
       x1="98.557602"
       y1="135.627"
       x2="189.6787"
       y2="135.627"
       gradientTransform="matrix(0.631158,0,0,0.631158,-156.3804,-26.28464)" />
    <linearGradient
       inkscape:collect="always"
       xlink:href="#XMLID_2_"
       id="linearGradient1159"
       gradientUnits="userSpaceOnUse"
       gradientTransform="matrix(0.631095,7.573896e-3,-7.573896e-3,0.631095,-154.7527,-27.92565)"
       x1="211.957"
       y1="220.91991"
       x2="223.1826"
       y2="208.0907" />
    <linearGradient
       inkscape:collect="always"
       xlink:href="#linearGradient2201"
       id="linearGradient1160"
       gradientUnits="userSpaceOnUse"
       gradientTransform="matrix(0.631158,0,0,0.631158,-156.3804,-26.28464)"
       x1="98.557602"
       y1="135.627"
       x2="189.6787"
       y2="135.627" />
  </defs>
  <sodipodi:namedview
     id="base"
     pagecolor="#ffffff"
     bordercolor="#666666"
     borderopacity="1.0"
     inkscape:pageopacity="0.0"
     inkscape:pageshadow="2"
     inkscape:zoom="2.8284271"
     inkscape:cx="51.744726"
     inkscape:cy="69.948987"
     inkscape:window-width="1280"
     inkscape:window-height="939"
     inkscape:window-x="0"
     inkscape:window-y="31"
     inkscape:current-layer="svg1568"
     showgrid="false" />
  <metadata
     id="metadata1571">
    <rdf:RDF>
      <cc:Work
         rdf:about="">
        <dc:description>Created with Inkscape
http://www.inkscape.org/</dc:description>
        <dc:format>image/svg+xml</dc:format>
        <dc:type
           rdf:resource="http://purl.org/dc/dcmitype/StillImage" />
        <dc:creator>
          <cc:Agent>
            <dc:title>Andrew Fitzsimon</dc:title>
          </cc:Agent>
        </dc:creator>
        <cc:license
           rdf:resource="http://creativecommons.org/licenses/by/2.0/" />
      </cc:Work>
      <cc:License
         rdf:about="http://creativecommons.org/licenses/by/2.0/">
        <cc:permits
           rdf:resource="http://web.resource.org/cc/Reproduction" />
        <cc:permits
           rdf:resource="http://web.resource.org/cc/Distribution" />
        <cc:requires
           rdf:resource="http://web.resource.org/cc/Notice" />
        <cc:requires
           rdf:resource="http://web.resource.org/cc/Attribution" />
        <cc:prohibits
           rdf:resource="http://web.resource.org/cc/CommercialUse" />
        <cc:permits
           rdf:resource="http://web.resource.org/cc/DerivativeWorks" />
        <cc:requires
           rdf:resource="http://web.resource.org/cc/ShareAlike" />
      </cc:License>
    </rdf:RDF>
  </metadata>
  <path
     sodipodi:type="arc"
     style="fill:url(#radialGradient1752);fill-opacity:0.75;fill-rule:evenodd;stroke-width:1pt"
     id="path1809"
     sodipodi:cx="25.912205"
     sodipodi:cy="175.83524"
     sodipodi:rx="56.143108"
     sodipodi:ry="56.143108"
     d="M 82.055313,175.83524 A 56.143108,56.143108 0 1 1 -30.230904,175.83524 A 56.143108,56.143108 0 1 1 82.055313,175.83524 z"
     transform="matrix(1.1029115,0,0,0.3918631,37.845759,23.344092)" />
  <path
     sodipodi:type="arc"
     style="fill:url(#radialGradient1505);fill-opacity:0.75;fill-rule:evenodd;stroke-width:1pt"
     id="path8072"
     sodipodi:cx="25.912205"
     sodipodi:cy="175.83524"
     sodipodi:rx="56.143108"
     sodipodi:ry="56.143108"
     d="M 82.055313,175.83524 A 56.143108,56.143108 0 1 1 -30.230904,175.83524 A 56.143108,56.143108 0 1 1 82.055313,175.83524 z"
     transform="matrix(1.0902219,0,0,0.2256053,38.028069,46.856944)" />
  <path
     style="fill:url(#linearGradient1495);fill-opacity:1;fill-rule:evenodd;stroke:#000000;stroke-width:3.10472393;stroke-linecap:butt;stroke-linejoin:miter;stroke-miterlimit:4;stroke-dasharray:none;stroke-opacity:1"
     d="M 5.8835084,67.475999 L 5.8835084,79.528501 C 5.8835084,85.640986 14.060263,91.581026 20.544684,91.581026 L 35.205861,91.581026 L 49.867036,91.581026 L 64.528216,91.581026 L 79.189387,91.581026 L 93.850571,91.581026 L 108.51174,91.581026 C 114.99616,91.581026 123.17292,85.640986 123.17292,79.528501 L 123.17292,67.475999 C 123.17292,55.251052 106.81941,43.370989 93.850571,43.370989 L 79.189387,43.370989 L 64.528216,43.370989 L 49.867036,43.370989 L 35.205861,43.370989 C 22.237017,43.370989 5.8835084,55.251052 5.8835084,67.475999 z"
     id="rect7969"
     sodipodi:nodetypes="czzccccczzzzccczz" />
  <path
     style="fill:#333333;fill-opacity:1;fill-rule:evenodd;stroke:none;stroke-width:0.96216879pt;stroke-linecap:butt;stroke-linejoin:miter;stroke-opacity:1"
     d="M 18.42418,55.982097 C 18.42418,61.489643 21.525803,61.471929 28.294959,61.471929 L 47.239416,61.471929 C 60.325858,69.222755 80.264356,66.962099 91.637779,61.471929 L 104.07278,61.471929 C 110.50394,61.471929 115.35396,62.287278 113.70843,56.498321 C 111.90309,50.147132 104.33615,44.659468 96.584871,44.659468 L 34.505009,44.659468 C 26.980702,44.659468 18.42418,50.175604 18.42418,55.982097 z"
     id="path7972"
     sodipodi:nodetypes="czcczzzzz" />
  <rect
     style="fill:url(#linearGradient7975);fill-opacity:0.75;fill-rule:evenodd;stroke:none;stroke-width:1pt;stroke-linecap:butt;stroke-linejoin:miter;stroke-opacity:1"
     id="rect7973"
     width="84.21653"
     height="9.9634085"
     x="23.27235"
     y="78.725021"
     rx="4.0112047"
     ry="3.7811215" />
  <path
     style="fill:none;fill-opacity:0.75;fill-rule:evenodd;stroke:#000000;stroke-width:3.05567241;stroke-linecap:round;stroke-linejoin:round;stroke-miterlimit:4;stroke-opacity:1"
     d="M 30.849305,50.895132 L 98.889025,50.895132"
     id="path7971" />
  <path
     style="fill:url(#linearGradient7987);fill-opacity:0.52201257;fill-rule:evenodd;stroke:none;stroke-width:0.96216879pt;stroke-linecap:butt;stroke-linejoin:miter;stroke-opacity:1"
     d="M 21.317302,55.806789 C 21.317302,60.981008 24.231213,60.964371 30.590694,60.964371 L 101.78239,60.964371 C 107.82433,60.964371 112.38084,61.730373 110.8349,56.291762 C 109.13882,50.324955 102.48638,45.169407 95.204199,45.169407 L 35.387022,45.169407 C 28.318092,45.169407 21.317302,50.35171 21.317302,55.806789 z"
     id="path7986"
     sodipodi:nodetypes="czzzzzz" />
  <rect
     style="fill:url(#linearGradient7980);fill-opacity:1;fill-rule:evenodd;stroke:#000000;stroke-width:3.10472393;stroke-linecap:butt;stroke-linejoin:miter;stroke-miterlimit:4;stroke-dasharray:none;stroke-opacity:1"
     id="rect7979"
     width="60.442059"
     height="35.665127"
     x="35.500534"
     y="15.546258"
     rx="0"
     ry="0" />
  <path
     style="fill:#333333;fill-opacity:1;fill-rule:evenodd;stroke:none;stroke-width:0.95537262pt;stroke-linecap:butt;stroke-linejoin:miter;stroke-opacity:1"
     d="M 26.933323,82.586983 L 21.747824,102.12009 L 27.168952,102.12009 L 103.06473,102.12009 L 108.48585,102.12009 L 104.87345,82.586983 L 26.933323,82.586983 z"
     id="rect7981"
     sodipodi:nodetypes="ccccccc" />
  <path
     style="fill:url(#linearGradient1743);fill-opacity:1;fill-rule:evenodd;stroke:#000000;stroke-width:1.88165081;stroke-linecap:butt;stroke-linejoin:miter;stroke-miterlimit:4;stroke-dasharray:none;stroke-opacity:0.42763157"
     d="M 33.590763,79.736789 L 30.055253,97.220774 L 100.62324,97.220774 L 98.132739,79.736789 L 33.590763,79.736789 z"
     id="rect7989"
     sodipodi:nodetypes="ccccc" />
  <path
     style="fill:url(#linearGradient87);fill-opacity:1;fill-rule:evenodd;stroke:none;stroke-width:1pt;stroke-linecap:butt;stroke-linejoin:miter;stroke-opacity:1"
     d="M 27.283554,78.725019 L 54.074713,78.725019 C 63.850253,75.495506 75.681415,76.464362 84.429143,78.725019 L 103.47768,78.725019 C 105.69988,78.725019 107.48887,80.411393 107.48887,82.506138 L 107.48887,84.907303 C 107.48887,87.002048 105.69988,88.688423 103.47768,88.688423 L 27.283554,88.688423 C 25.061346,88.688423 23.272349,87.002048 23.272349,84.907303 L 23.272349,82.506138 C 23.272349,80.411393 25.061346,78.725019 27.283554,78.725019 z"
     id="rect7982"
     sodipodi:nodetypes="ccccccccccc" />
  <rect
     style="opacity:0.21301772;fill:url(#linearGradient99);fill-opacity:1;fill-rule:evenodd;stroke:none;stroke-width:2.5;stroke-linecap:butt;stroke-linejoin:miter;stroke-miterlimit:4;stroke-opacity:0.58641974"
     id="rect98"
     width="58.116394"
     height="32.005638"
     x="36.663364"
     y="18.837511"
     rx="0"
     ry="0" />
  <g
     id="g1149"
     transform="matrix(0.7752221,0,0,0.7307553,119.877,19.246652)">
    <path
       d="M 1.3598244,123.19062 L -29.416071,92.415355 C -30.997122,90.834304 -33.560254,90.834304 -35.141305,92.415355 L -35.499172,92.773222 L -39.560673,88.71172 C -33.047754,82.135054 -29.022228,73.089928 -29.022228,63.103115 C -29.022228,43.001995 -45.317466,26.706127 -65.419848,26.706127 C -85.520968,26.706127 -101.81621,43.001364 -101.81621,63.103115 C -101.81621,83.204867 -85.520968,99.500104 -65.419848,99.500104 C -56.763516,99.500104 -48.817868,96.47307 -42.570666,91.426962 L -38.362104,95.635523 L -38.720602,95.99339 C -40.301653,97.574441 -40.301653,100.13757 -38.720602,101.71799 L -7.9447069,132.49452 C -6.3630249,134.07494 -3.8005234,134.07494 -2.2194727,132.49452 L 1.3598244,128.91585 C 2.9408751,127.33543 2.9408751,124.77167 1.3598244,123.19062 z"
       id="path169"
       style="opacity:0.2;stroke:none" />
    <path
       d="M -45.376599,84.834712 L -32.994737,97.216574 L -30.131804,94.354904 L -42.513666,81.973042 L -45.376599,84.834712 z"
       id="path170"
       style="stroke:none"
       sodipodi:nodetypes="ccccc" />
    <path
       d="M -38.720602,92.207073 C -40.301653,93.788124 -40.301653,96.351257 -38.720602,97.931676 L -7.9447069,128.7082 C -6.3630249,130.28862 -3.8005234,130.28862 -2.2194727,128.7082 L 1.3598244,125.12954 C 2.9408751,123.54785 2.9408751,120.98472 1.3598244,119.40367 L -29.416071,88.628407 C -30.997122,87.047356 -33.560254,87.047356 -35.141305,88.628407 L -38.720602,92.207073 z"
       id="path171"
       style="fill:#000000;fill-opacity:1;stroke:none" />
    <path
       d="M -30.623476,89.914707 C -31.402956,89.116292 -32.687994,89.101145 -33.485778,89.880625 L -37.107362,93.417003 C -37.905777,94.195852 -37.920925,95.48089 -37.142076,96.278673 L -6.7373016,127.42064 C -5.9578215,128.22032 -4.6727838,128.23547 -3.8750001,127.45535 L -0.25404665,123.92024 C 0.54563054,123.14076 0.56077833,121.85572 -0.21933296,121.05794 L -30.623476,89.914707 z"
       id="path178"
       style="fill:url(#linearGradient1159);stroke:none" />
    <path
       d="M -99.728391,59.316799 C -99.728391,78.265473 -84.367885,93.625975 -65.419812,93.625975 C -46.470542,93.625975 -31.110042,78.265473 -31.110042,59.316799 C -31.110042,40.368725 -46.470542,25.007625 -65.419812,25.007625 C -84.36729,25.007625 -99.728391,40.368725 -99.728391,59.316799 z"
       id="path179"
       style="fill:none;stroke:#000000;stroke-width:4;stroke-miterlimit:4;stroke-opacity:1" />
    <path
       style="fill:#cccccc;stroke:none"
       d="M -65.416442,25.501105 C -84.06274,25.501104 -99.228942,40.667304 -99.228942,59.313605 C -99.228942,77.959898 -84.062112,93.126105 -65.416442,93.126105 C -46.769502,93.126105 -31.603942,77.959901 -31.603942,59.313605 C -31.603942,40.667301 -46.769512,25.501105 -65.416442,25.501105 z M -65.416442,28.532355 C -48.443972,28.532355 -34.635192,42.341763 -34.635192,59.313605 C -34.635192,76.286701 -48.443962,90.094855 -65.416442,90.094855 C -82.388281,90.094855 -96.197694,76.286698 -96.197692,59.313605 C -96.197692,42.341766 -82.388278,28.532356 -65.416442,28.532355 z"
       id="path180" />
    <path
       d="M -98.223653,59.822988 C -98.223653,41.177318 -83.05314,26.006804 -64.406839,26.006804 C -59.247122,26.006804 -54.355648,27.173184 -49.976042,29.248432 C -54.610004,26.859499 -59.856821,25.501247 -65.419848,25.501247 C -84.065517,25.501247 -99.236031,40.671129 -99.236031,59.31743 C -99.236031,72.804645 -91.297957,84.467815 -79.850013,89.891985 C -90.748849,84.271525 -98.223653,72.906893 -98.223653,59.822988 z"
       id="path181"
       style="fill:#ffffff;stroke:none" />
    <path
       d="M -94.174775,59.316799 C -94.174775,75.17275 -81.275168,88.072985 -65.419212,88.072985 C -49.562632,88.072985 -36.662392,75.173381 -36.662392,59.316799 C -36.662392,43.461479 -49.562002,30.56124 -65.419212,30.56124 C -81.275168,30.56124 -94.174775,43.461479 -94.174775,59.316799 z"
       id="path189"
       style="fill:url(#linearGradient1160);stroke:none" />
    <path
       d="M -92.912459,59.316799 C -92.912459,63.355579 -92.0301,67.189863 -90.459148,70.647347 C -89.423418,70.284431 -88.453328,69.765619 -87.584223,69.020222 C -73.643837,59.59009 -62.099326,45.367576 -47.934878,38.114939 C -52.690653,34.186612 -58.784484,31.823556 -65.419848,31.823556 C -80.579632,31.823556 -92.912459,44.157015 -92.912459,59.316799 z"
       id="path190"
       style="fill:#ffffff;fill-opacity:0.40807172;stroke:none" />
  </g>
</svg>
