<?xml version="1.0" encoding="UTF-8" standalone="no"?>
<!-- Created with Inkscape (http://www.inkscape.org/) -->
<svg
   xmlns:dc="http://purl.org/dc/elements/1.1/"
   xmlns:cc="http://creativecommons.org/ns#"
   xmlns:rdf="http://www.w3.org/1999/02/22-rdf-syntax-ns#"
   xmlns:svg="http://www.w3.org/2000/svg"
   xmlns="http://www.w3.org/2000/svg"
   xmlns:xlink="http://www.w3.org/1999/xlink"
   xmlns:sodipodi="http://sodipodi.sourceforge.net/DTD/sodipodi-0.dtd"
   xmlns:inkscape="http://www.inkscape.org/namespaces/inkscape"
   width="128"
   height="128"
   id="svg1371"
   sodipodi:version="0.32"
   inkscape:version="0.46"
   sodipodi:docbase="/tmp"
   sodipodi:docname="procent.svg"
   inkscape:export-filename="/home/silvestre/Gion/PNGs/text-x-generic.png"
   inkscape:export-xdpi="90"
   inkscape:export-ydpi="90"
   inkscape:output_extension="org.inkscape.output.svg.inkscape"
   version="1.0">
  <defs
     id="defs1373">
    <inkscape:perspective
       sodipodi:type="inkscape:persp3d"
       inkscape:vp_x="0 : 24 : 1"
       inkscape:vp_y="0 : 1000 : 0"
       inkscape:vp_z="48 : 24 : 1"
       inkscape:persp3d-origin="24 : 16 : 1"
       id="perspective34043" />
    <linearGradient
       inkscape:collect="always"
       id="linearGradient4148">
      <stop
         style="stop-color:#ffffff;stop-opacity:1;"
         offset="0"
         id="stop4150" />
      <stop
         style="stop-color:#ffffff;stop-opacity:0;"
         offset="1"
         id="stop4152" />
    </linearGradient>
    <linearGradient
       inkscape:collect="always"
       id="linearGradient4137">
      <stop
         style="stop-color:#ffffff;stop-opacity:1;"
         offset="0"
         id="stop4139" />
      <stop
         style="stop-color:#ffffff;stop-opacity:0;"
         offset="1"
         id="stop4141" />
    </linearGradient>
    <linearGradient
       inkscape:collect="always"
       id="linearGradient2198">
      <stop
         style="stop-color:#000000;stop-opacity:1;"
         offset="0"
         id="stop2200" />
      <stop
         style="stop-color:#000000;stop-opacity:0;"
         offset="1"
         id="stop2202" />
    </linearGradient>
    <linearGradient
       inkscape:collect="always"
       xlink:href="#linearGradient2198"
       id="linearGradient2204"
       x1="5.2010446"
       y1="70.319626"
       x2="5.2010446"
       y2="54.050976"
       gradientUnits="userSpaceOnUse" />
    <linearGradient
       inkscape:collect="always"
       xlink:href="#linearGradient4137"
       id="linearGradient4143"
       x1="22.884989"
       y1="29.59911"
       x2="22.884989"
       y2="46.639858"
       gradientUnits="userSpaceOnUse" />
    <linearGradient
       inkscape:collect="always"
       xlink:href="#linearGradient4148"
       id="linearGradient4154"
       x1="29.863899"
       y1="16.502802"
       x2="29.863899"
       y2="50.761833"
       gradientUnits="userSpaceOnUse"
       gradientTransform="matrix(3.9785174,0,0,3.3154312,-59.254055,-71.776561)" />
  </defs>
  <sodipodi:namedview
     id="base"
     pagecolor="#ffffff"
     bordercolor="#666666"
     borderopacity="1.0"
     inkscape:pageopacity="0.0"
     inkscape:pageshadow="2"
     inkscape:zoom="4.6796875"
     inkscape:cx="64"
     inkscape:cy="64"
     inkscape:current-layer="layer4"
     showgrid="false"
     inkscape:grid-bbox="true"
     inkscape:document-units="px"
     inkscape:window-width="1274"
     inkscape:window-height="829"
     inkscape:window-x="0"
     inkscape:window-y="31"
     inkscape:showpageshadow="false"
     showborder="true" />
  <metadata
     id="metadata1376">
    <rdf:RDF>
      <cc:Work
         rdf:about="">
        <dc:format>image/svg+xml</dc:format>
        <dc:type
           rdf:resource="http://purl.org/dc/dcmitype/StillImage" />
        <dc:title>Text Generic</dc:title>
        <dc:creator>
          <cc:Agent>
            <dc:title>Silvestre Herrera</dc:title>
          </cc:Agent>
        </dc:creator>
        <cc:license
           rdf:resource="http://creativecommons.org/licenses/GPL/2.0/" />
      </cc:Work>
      <cc:License
         rdf:about="http://creativecommons.org/licenses/GPL/2.0/">
        <cc:permits
           rdf:resource="http://web.resource.org/cc/Reproduction" />
        <cc:permits
           rdf:resource="http://web.resource.org/cc/Distribution" />
        <cc:requires
           rdf:resource="http://web.resource.org/cc/Notice" />
        <cc:permits
           rdf:resource="http://web.resource.org/cc/DerivativeWorks" />
        <cc:requires
           rdf:resource="http://web.resource.org/cc/ShareAlike" />
        <cc:requires
           rdf:resource="http://web.resource.org/cc/SourceCode" />
      </cc:License>
    </rdf:RDF>
  </metadata>
  <g
     id="layer1"
     inkscape:label="Layer 1"
     inkscape:groupmode="layer" />
  <g
     inkscape:groupmode="layer"
     id="layer3"
     inkscape:label="contents" />
  <g
     inkscape:groupmode="layer"
     id="layer2"
     inkscape:label="lights" />
  <g
     inkscape:groupmode="layer"
     id="layer4"
     inkscape:label="info">
    <path
       sodipodi:type="arc"
       style="opacity:1;fill:#3465a4;fill-opacity:1;stroke:#204a87;stroke-width:1.00767267;stroke-linecap:round;stroke-linejoin:round;stroke-miterlimit:4;stroke-dasharray:none;stroke-dashoffset:0;stroke-opacity:1"
       id="path2193"
       sodipodi:cx="31"
       sodipodi:cy="37"
       sodipodi:rx="11.588235"
       sodipodi:ry="11.588235"
       d="M 42.588235,37 A 11.588235,11.588235 0 1 1 19.411765,37 A 11.588235,11.588235 0 1 1 42.588235,37 z"
       transform="matrix(5.0836616,0,0,5.0836616,-93.513515,-124.39441)" />
    <path
       sodipodi:type="arc"
       style="opacity:1;fill:none;fill-opacity:1;stroke:url(#linearGradient4143);stroke-width:1.10364151;stroke-linecap:round;stroke-linejoin:round;stroke-miterlimit:4;stroke-dasharray:none;stroke-dashoffset:0;stroke-opacity:0.44725737"
       id="path3166"
       sodipodi:cx="31"
       sodipodi:cy="37"
       sodipodi:rx="11.588235"
       sodipodi:ry="11.588235"
       d="M 42.588235,37 A 11.588235,11.588235 0 1 1 19.411765,37 A 11.588235,11.588235 0 1 1 42.588235,37 z"
       transform="matrix(4.6416039,0,0,4.6416039,-79.809732,-108.03828)" />
    <path
       style="opacity:0.5;fill:url(#linearGradient4154);fill-opacity:1;stroke:none;stroke-width:1.10364151;stroke-linecap:round;stroke-linejoin:round;stroke-miterlimit:4;stroke-dashoffset:0;stroke-opacity:0.44725737"
       d="M 110.18398,50.894395 C 110.18398,72.102234 89.529388,79.06906 64.079982,79.06906 C 38.630578,79.06906 17.97599,72.102234 17.97599,50.894395 C 17.97599,29.686555 38.630578,12.474399 64.079982,12.474399 C 89.529388,12.474399 110.18398,29.686555 110.18398,50.894395 z"
       id="path4145"
       sodipodi:nodetypes="csssc" />
    <path
       style="font-size:40px;font-style:italic;font-variant:normal;font-weight:normal;font-stretch:normal;text-align:start;line-height:125%;writing-mode:lr-tb;text-anchor:start;fill:#ffffff;fill-opacity:1;stroke:none;stroke-width:1px;stroke-linecap:butt;stroke-linejoin:miter;stroke-opacity:1;font-family:URW Chancery L;-inkscape-font-specification:URW Chancery L Italic"
       d="M 87.388872,57.078248 C 81.835125,57.078248 75.572379,60.38687 72.027432,65.231626 C 68.009833,70.78537 65.410198,78.938765 65.410198,86.26498 C 65.410198,94.891009 68.482491,99.144956 74.627061,99.144956 C 80.771632,99.144956 86.207227,95.718166 89.75217,89.691764 C 93.178948,83.783522 95.660415,74.566647 95.660415,67.358594 C 95.660415,60.741366 92.706287,57.078248 87.388872,57.078248 M 83.489429,60.859525 C 86.91621,60.859525 88.925016,64.168147 88.925016,69.840058 C 88.925016,82.95635 83.607589,95.954503 78.172008,95.954503 C 74.508899,95.954503 72.145597,91.818727 72.145597,85.555991 C 72.145597,80.947565 73.209086,74.921146 74.745227,70.312717 C 76.872195,63.931819 79.708157,60.859525 83.489429,60.859525 M 40.122905,98.317801 C 42.958862,98.435967 43.667857,98.554132 45.440326,98.79046 C 55.484336,81.183907 79.353667,42.307621 87.743365,30.136646 C 85.734565,29.900321 84.907405,29.782156 82.662274,29.309494 C 70.018644,51.051815 57.020475,72.085217 40.122905,98.317801 M 53.948201,29.309494 C 48.394457,29.309494 42.131708,32.736281 38.586761,37.581035 C 34.569162,43.016616 31.969527,51.288174 31.969527,58.614392 C 31.969527,67.240421 35.04182,71.494368 41.186391,71.494368 C 47.212795,71.494368 52.64839,68.067578 56.193334,62.041173 C 59.738278,56.014768 62.101579,46.916059 62.101579,39.589841 C 62.101579,32.972612 59.147451,29.309494 53.948201,29.309494 M 50.048758,33.090769 C 53.357374,33.090769 55.366179,36.399393 55.366179,41.953139 C 55.366179,55.187597 50.048753,68.303914 44.613175,68.303914 C 41.068228,68.303914 38.704927,64.168135 38.704927,57.905403 C 38.704927,53.415142 39.768415,47.152392 41.304556,42.543963 C 43.313358,36.281228 46.267487,33.090769 50.048758,33.090769"
       id="text4173" />
  </g>
</svg>
