<?xml version="1.0" encoding="UTF-8" standalone="no"?>
<!-- Created with Inkscape (http://www.inkscape.org/) -->
<svg
   xmlns:dc="http://purl.org/dc/elements/1.1/"
   xmlns:cc="http://creativecommons.org/ns#"
   xmlns:rdf="http://www.w3.org/1999/02/22-rdf-syntax-ns#"
   xmlns:svg="http://www.w3.org/2000/svg"
   xmlns="http://www.w3.org/2000/svg"
   xmlns:xlink="http://www.w3.org/1999/xlink"
   xmlns:sodipodi="http://sodipodi.sourceforge.net/DTD/sodipodi-0.dtd"
   xmlns:inkscape="http://www.inkscape.org/namespaces/inkscape"
   width="128"
   height="128"
   id="svg1307"
   sodipodi:version="0.32"
   inkscape:version="0.46"
   sodipodi:docbase="/home/andreas/projekt/tango/scalable"
   sodipodi:docname="week.svg"
   inkscape:output_extension="org.inkscape.output.svg.inkscape"
   version="1.0">
  <defs
     id="defs1309">
    <inkscape:perspective
       sodipodi:type="inkscape:persp3d"
       inkscape:vp_x="0 : 24 : 1"
       inkscape:vp_y="0 : 1000 : 0"
       inkscape:vp_z="48 : 24 : 1"
       inkscape:persp3d-origin="24 : 16 : 1"
       id="perspective2550" />
    <linearGradient
       id="linearGradient4966">
      <stop
         style="stop-color:#2e3436;stop-opacity:1;"
         offset="0"
         id="stop4968" />
      <stop
         style="stop-color:#2e3436;stop-opacity:0;"
         offset="1"
         id="stop4970" />
    </linearGradient>
    <linearGradient
       inkscape:collect="always"
       id="linearGradient4936">
      <stop
         style="stop-color:#eeeeec"
         offset="0"
         id="stop4938" />
      <stop
         style="stop-color:#d3d7cf"
         offset="1"
         id="stop4940" />
    </linearGradient>
    <linearGradient
       id="linearGradient2994">
      <stop
         style="stop-color:#000000;stop-opacity:1;"
         offset="0"
         id="stop2996" />
      <stop
         style="stop-color:#c9c9c9;stop-opacity:1;"
         offset="1"
         id="stop2998" />
    </linearGradient>
    <linearGradient
       inkscape:collect="always"
       xlink:href="#linearGradient2994"
       id="linearGradient2326"
       gradientUnits="userSpaceOnUse"
       gradientTransform="matrix(0.866025,-0.5,0.5,0.866025,-7.891136,19.22495)"
       x1="25.71875"
       y1="31.046875"
       x2="25.514589"
       y2="30.703125" />
    <linearGradient
       inkscape:collect="always"
       id="linearGradient2984">
      <stop
         style="stop-color:#e7e2b8;stop-opacity:1;"
         offset="0"
         id="stop2986" />
      <stop
         style="stop-color:#e7e2b8;stop-opacity:0;"
         offset="1"
         id="stop2988" />
    </linearGradient>
    <radialGradient
       inkscape:collect="always"
       xlink:href="#linearGradient2984"
       id="radialGradient2324"
       gradientUnits="userSpaceOnUse"
       gradientTransform="matrix(2.531882,-1.461783,1.014859,1.757786,-70.15912,22.83318)"
       cx="29.053354"
       cy="27.640751"
       fx="29.053354"
       fy="27.640751"
       r="3.2408545" />
    <linearGradient
       id="linearGradient2974">
      <stop
         style="stop-color:#c1c1c1;stop-opacity:1;"
         offset="0"
         id="stop2976" />
      <stop
         style="stop-color:#acacac;stop-opacity:1;"
         offset="1"
         id="stop2978" />
    </linearGradient>
    <linearGradient
       inkscape:collect="always"
       xlink:href="#linearGradient2974"
       id="linearGradient2322"
       gradientUnits="userSpaceOnUse"
       gradientTransform="matrix(0.866025,-0.5,0.5,0.866025,-7.818316,19.03857)"
       x1="46"
       y1="19.8125"
       x2="47.6875"
       y2="22.625" />
    <linearGradient
       id="linearGradient2966">
      <stop
         style="stop-color:#ffd1d1;stop-opacity:1;"
         offset="0"
         id="stop2968" />
      <stop
         id="stop3006"
         offset="0.5"
         style="stop-color:#ff1d1d;stop-opacity:1;" />
      <stop
         style="stop-color:#6f0000;stop-opacity:1;"
         offset="1"
         id="stop2970" />
    </linearGradient>
    <linearGradient
       inkscape:collect="always"
       xlink:href="#linearGradient2966"
       id="linearGradient2320"
       gradientUnits="userSpaceOnUse"
       gradientTransform="matrix(0.866025,-0.5,0.5,0.866025,-7.818316,19.03857)"
       x1="48.90625"
       y1="17.376184"
       x2="50.988335"
       y2="22.250591" />
    <linearGradient
       inkscape:collect="always"
       xlink:href="#linearGradient4936"
       id="linearGradient4942"
       x1="20.07143"
       y1="7.7857146"
       x2="20.214283"
       y2="35.92857"
       gradientUnits="userSpaceOnUse"
       gradientTransform="matrix(3.6247362,0,0,2.6811522,-6.6204946,-4.8384573)" />
    <radialGradient
       inkscape:collect="always"
       xlink:href="#linearGradient4966"
       id="radialGradient4972"
       cx="23.223421"
       cy="43.927216"
       fx="23.223421"
       fy="43.927216"
       r="20.708128"
       gradientTransform="matrix(1.010133,-7.890436e-3,1.565376e-3,0.101415,-0.293998,39.78877)"
       gradientUnits="userSpaceOnUse" />
    <radialGradient
       inkscape:collect="always"
       xlink:href="#linearGradient4966"
       id="radialGradient4976"
       gradientUnits="userSpaceOnUse"
       gradientTransform="matrix(1.010133,-7.890436e-3,1.565376e-3,0.101415,-0.293998,39.78877)"
       cx="23.223421"
       cy="43.927216"
       fx="23.223421"
       fy="43.927216"
       r="20.708128" />
  </defs>
  <sodipodi:namedview
     id="base"
     pagecolor="#ffffff"
     bordercolor="#666666"
     borderopacity="1.0"
     inkscape:pageopacity="0.0"
     inkscape:pageshadow="2"
     inkscape:zoom="2.2421875"
     inkscape:cx="21.240756"
     inkscape:cy="37.519408"
     inkscape:current-layer="layer1"
     showgrid="false"
     inkscape:grid-bbox="true"
     inkscape:document-units="px"
     stroke="#eeeeec"
     fill="#2e3436"
     showguides="true"
     inkscape:guide-bbox="true"
     inkscape:window-width="1280"
     inkscape:window-height="802"
     inkscape:window-x="0"
     inkscape:window-y="49" />
  <metadata
     id="metadata1312">
    <rdf:RDF>
      <cc:Work
         rdf:about="">
        <dc:format>image/svg+xml</dc:format>
        <dc:type
           rdf:resource="http://purl.org/dc/dcmitype/StillImage" />
        <dc:title>Menu editor</dc:title>
        <dc:date>April 2006</dc:date>
        <dc:creator>
          <cc:Agent>
            <dc:title>Andreas Nilsson</dc:title>
          </cc:Agent>
        </dc:creator>
        <dc:publisher>
          <cc:Agent>
            <dc:title />
          </cc:Agent>
        </dc:publisher>
        <dc:source>http://tango-project.org</dc:source>
        <dc:subject>
          <rdf:Bag>
            <rdf:li>menu-editor</rdf:li>
            <rdf:li>menu</rdf:li>
          </rdf:Bag>
        </dc:subject>
        <cc:license
           rdf:resource="http://creativecommons.org/licenses/GPL/2.0/" />
      </cc:Work>
      <cc:License
         rdf:about="http://creativecommons.org/licenses/GPL/2.0/">
        <cc:permits
           rdf:resource="http://web.resource.org/cc/Reproduction" />
        <cc:permits
           rdf:resource="http://web.resource.org/cc/Distribution" />
        <cc:requires
           rdf:resource="http://web.resource.org/cc/Notice" />
        <cc:permits
           rdf:resource="http://web.resource.org/cc/DerivativeWorks" />
        <cc:requires
           rdf:resource="http://web.resource.org/cc/ShareAlike" />
        <cc:requires
           rdf:resource="http://web.resource.org/cc/SourceCode" />
      </cc:License>
    </rdf:RDF>
  </metadata>
  <g
     id="layer1"
     inkscape:label="Layer 1"
     inkscape:groupmode="layer">
    <path
       sodipodi:type="arc"
       style="opacity:0.7;fill:url(#radialGradient4972);fill-opacity:1;stroke:none;stroke-width:1.08584559;stroke-linecap:round;stroke-linejoin:round;stroke-miterlimit:4;stroke-dasharray:none;stroke-dashoffset:0;stroke-opacity:1"
       id="path4956"
       sodipodi:cx="23.233509"
       sodipodi:cy="44.060406"
       sodipodi:rx="20.708128"
       sodipodi:ry="2.5253813"
       d="M 43.941637,44.060406 A 20.708128,2.5253813 0 1 1 2.5253811,44.060406 A 20.708128,2.5253813 0 1 1 43.941637,44.060406 z"
       transform="matrix(2.404542,0,0,3.1973901,-5.0723847,-27.538253)" />
    <rect
       style="opacity:1;fill:url(#linearGradient4942);fill-opacity:1;stroke:#888a85;stroke-width:3.11744618;stroke-linecap:round;stroke-linejoin:round;stroke-miterlimit:4;stroke-dasharray:none;stroke-dashoffset:0;stroke-opacity:1"
       id="rect1315"
       width="101.42"
       height="109.88528"
       x="13.351851"
       y="4.5665441" />
    <rect
       style="opacity:0.5;fill:none;fill-opacity:1;stroke:#ffffff;stroke-width:3.11744928;stroke-linecap:round;stroke-linejoin:round;stroke-miterlimit:4;stroke-dasharray:none;stroke-dashoffset:0;stroke-opacity:1"
       id="rect2226"
       width="94.111168"
       height="104.49888"
       x="17.020199"
       y="7.2525659" />
    <rect
       style="opacity:0.29999999999999999;fill:#ff0000;fill-opacity:1;stroke:none;stroke-width:1;stroke-linecap:round;stroke-linejoin:round;stroke-miterlimit:4;stroke-dasharray:none;stroke-dashoffset:0;stroke-opacity:1"
       id="rect4946"
       width="61.231308"
       height="5.0236745"
       x="40.370811"
       y="17.051561" />
    <path
       sodipodi:type="arc"
       style="opacity:0.3;fill:url(#radialGradient4976);fill-opacity:1;stroke:none;stroke-width:1.08584559;stroke-linecap:round;stroke-linejoin:round;stroke-miterlimit:4;stroke-dasharray:none;stroke-dashoffset:0;stroke-opacity:1"
       id="path4974"
       sodipodi:cx="23.233509"
       sodipodi:cy="44.060406"
       sodipodi:rx="20.708128"
       sodipodi:ry="2.5253813"
       d="M 43.941637,44.060406 A 20.708128,2.5253813 0 1 1 2.5253811,44.060406 A 20.708128,2.5253813 0 1 1 43.941637,44.060406 z"
       transform="matrix(1.4297267,0,0,2.1315952,61.986458,24.804212)" />
    <path
       style="font-size:40px;font-style:normal;font-variant:normal;font-weight:normal;font-stretch:normal;text-align:start;line-height:125%;writing-mode:lr-tb;text-anchor:start;fill:#ff0000;fill-opacity:1;stroke:none;stroke-width:1px;stroke-linecap:butt;stroke-linejoin:miter;stroke-opacity:1;font-family:URW Palladio L;-inkscape-font-specification:URW Palladio L"
       d="M 30.382774,18.83836 C 30.382774,18.17149 30.433103,17.74369 30.558927,17.06424 C 29.552339,16.6616 28.986128,16.53578 28.294096,16.53578 C 26.419322,16.53578 25.06042,17.71852 25.06042,19.36682 C 25.06042,19.98335 25.223992,20.43632 25.588881,20.77604 C 26.016683,21.1661 26.595476,21.36742 27.815965,21.53099 C 28.78481,21.66939 29.225193,21.8078 29.552336,22.0972 C 29.879478,22.36143 30.030467,22.72632 30.030467,23.20445 C 30.030467,24.33686 29.086787,25.15472 27.778218,25.15472 C 26.771629,25.15472 25.790199,24.664 25.727287,24.14813 L 25.626628,23.30511 L 25.223992,23.30511 C 25.236574,23.53159 25.236574,23.73291 25.236574,23.8084 C 25.236574,24.38719 25.211409,24.66401 25.135915,25.23021 C 25.853111,25.54477 26.582893,25.70834 27.312669,25.70834 C 29.502006,25.70834 31.087388,24.38719 31.087388,22.56274 C 31.087388,21.97137 30.923817,21.55615 30.57151,21.22901 C 30.131126,20.81379 29.602665,20.65022 28.193437,20.46148 C 26.658388,20.26017 26.117342,19.84495 26.117342,18.8761 C 26.117342,17.81918 26.910036,17.06424 28.017283,17.06424 C 28.507997,17.06424 28.973546,17.1649 29.31327,17.35363 C 29.728489,17.56753 29.866896,17.75627 29.904643,18.12116 L 29.980137,18.83836 L 30.382774,18.83836"
       id="text2432" />
    <path
       style="font-size:40px;font-style:normal;font-variant:normal;font-weight:normal;font-stretch:normal;text-align:start;line-height:125%;writing-mode:lr-tb;text-anchor:start;fill:#000000;fill-opacity:1;stroke:none;stroke-width:1px;stroke-linecap:butt;stroke-linejoin:miter;stroke-opacity:1;font-family:URW Palladio L;-inkscape-font-specification:URW Palladio L"
       d="M 31.092781,34.95969 C 31.092781,35.9537 31.042451,36.04178 30.451079,36.09211 L 30.023278,36.12986 L 30.023278,36.50733 C 30.602067,36.48216 30.97954,36.46958 31.633824,36.46958 C 32.338438,36.46958 32.791405,36.48216 33.533766,36.50733 L 33.533766,36.12986 L 32.929811,36.09211 C 32.351022,36.05436 32.288109,35.9537 32.288109,34.95969 L 32.288109,29.3102 C 32.288109,28.32877 32.351022,28.21553 32.929811,28.17778 L 33.458272,28.14003 L 33.458272,27.76256 C 32.502011,27.80031 32.502009,27.80031 32.288109,27.80031 C 32.099373,27.80031 32.099372,27.80031 31.092781,27.76256 L 27.796193,34.75837 L 24.474441,27.76256 C 23.467849,27.80031 23.467849,27.80031 23.279113,27.80031 C 23.090377,27.80031 23.090377,27.80031 22.083786,27.76256 L 22.083786,28.14003 L 22.637411,28.17778 C 23.216201,28.21553 23.279113,28.32877 23.279113,29.3102 L 23.279113,34.95969 C 23.279113,35.94112 23.216201,36.05436 22.637411,36.09211 L 22.083786,36.12986 L 22.083786,36.50733 C 23.329443,36.46958 23.329443,36.46958 23.543344,36.46958 C 23.73208,36.46958 23.732083,36.46958 25.053231,36.50733 L 25.053231,36.12986 L 24.499606,36.09211 C 23.920816,36.05436 23.857904,35.94112 23.857904,34.95969 L 23.857904,29.19696 L 27.368392,36.63315 L 27.62004,36.63315 C 27.708117,36.44442 27.783611,36.2431 27.859105,36.05436 C 28.060424,35.56365 28.211413,35.21134 28.299489,35.03519 L 30.539156,30.27904 C 30.715309,29.91415 30.866299,29.62476 31.092781,29.19696 L 31.092781,34.95969"
       id="text2437" />
    <path
       style="font-size:40px;font-style:normal;font-variant:normal;font-weight:normal;font-stretch:normal;text-align:start;line-height:125%;writing-mode:lr-tb;text-anchor:start;fill:#000000;fill-opacity:1;stroke:none;stroke-width:1px;stroke-linecap:butt;stroke-linejoin:miter;stroke-opacity:1;font-family:URW Palladio L;-inkscape-font-specification:URW Palladio L"
       d="M 26.704329,63.59227 C 26.742076,64.02007 26.754658,64.30947 26.754658,64.85051 L 26.754658,70.17287 C 26.754658,71.16687 26.691746,71.26753 26.112956,71.30528 L 25.509001,71.34303 L 25.509001,71.7205 C 26.251362,71.69534 26.691749,71.68275 27.346031,71.68275 C 28.000315,71.68275 28.453285,71.69534 29.195643,71.7205 L 29.195643,71.34303 L 28.591688,71.30528 C 28.012901,71.26753 27.949986,71.16687 27.949986,70.17287 L 27.949986,64.85051 C 27.949986,64.2843 27.962568,64.00749 28.000315,63.59227 L 29.950587,63.59227 C 30.302894,63.59227 30.4413,63.70551 30.453883,64.00749 L 30.504212,65.0015 L 30.894266,65.0015 C 30.894266,64.18365 30.919431,63.69293 30.982346,62.97574 C 30.076414,62.98832 29.661192,62.98832 29.308885,63.0009 C 28.818174,63.01348 28.453282,63.01348 28.264546,63.01348 L 26.276527,63.01348 C 26.150703,63.01348 25.471254,63.0009 24.577904,62.98832 L 23.722301,62.97574 C 23.785213,63.69293 23.810378,64.18365 23.810378,65.0015 L 24.200432,65.0015 L 24.250762,64.00749 C 24.263344,63.70551 24.401753,63.59227 24.754057,63.59227 L 26.704329,63.59227"
       id="text2442" />
    <path
       style="font-size:40px;font-style:normal;font-variant:normal;font-weight:normal;font-stretch:normal;text-align:start;line-height:125%;writing-mode:lr-tb;text-anchor:start;fill:#000000;fill-opacity:1;stroke:none;stroke-width:1px;stroke-linecap:butt;stroke-linejoin:miter;stroke-opacity:1;font-family:URW Palladio L;-inkscape-font-specification:URW Palladio L"
       d="M 30.416487,59.80107 C 30.466817,59.61233 30.504564,59.43618 30.517146,59.37327 C 30.554893,59.24744 30.655553,58.86997 30.756212,58.53025 L 32.681318,51.76092 C 32.756813,51.53443 32.882637,51.42119 33.159449,51.39603 L 33.562086,51.35828 L 33.562086,50.98081 C 33.562086,50.98081 32.240934,51.01856 32.240934,51.01856 C 32.115111,51.01856 32.115111,51.01856 30.919783,50.98081 L 30.919783,51.35828 L 31.423079,51.39603 C 31.863463,51.43377 32.001869,51.49669 32.014451,51.69801 C 32.014451,51.73575 32.014451,51.7735 32.001869,51.81125 L 30.340993,57.96404 L 28.27748,52.16355 C 28.000667,51.40861 27.96292,51.30795 27.862261,50.88015 L 27.459624,50.88015 C 27.195394,51.66026 26.981493,52.22647 26.327209,53.91251 L 24.766991,57.87596 L 23.508752,52.22647 C 23.471005,52.07548 23.458422,51.93707 23.458422,51.81125 C 23.458422,51.53443 23.584246,51.42119 23.923971,51.39603 L 24.452432,51.35828 L 24.452432,50.98081 C 24.452432,50.98081 22.86705,51.01856 22.86705,51.01856 C 22.778973,51.01856 22.250512,51.00597 21.281668,50.98081 L 21.281668,51.35828 L 21.633975,51.39603 C 21.998864,51.43377 22.149853,51.57218 22.263095,52.02515 L 23.7604,58.50508 L 24.049795,59.80107 L 24.678915,59.80107 C 24.792156,59.39843 24.892815,59.09645 25.131881,58.50508 L 27.321218,52.94366 L 28.894017,57.20909 C 29.309236,58.32893 29.346983,58.42959 29.787367,59.80107 L 30.416487,59.80107"
       id="text2447" />
    <path
       id="path2452"
       d="M 27.265497,40.30388 C 27.303244,40.73168 27.315827,41.02108 27.315827,41.56212 L 27.315827,46.88447 C 27.315827,47.87848 27.252914,47.97914 26.674125,48.01689 L 26.07017,48.05463 L 26.07017,48.43211 C 26.81253,48.40694 27.252915,48.39436 27.907199,48.39436 C 28.561483,48.39436 29.014451,48.40694 29.756812,48.43211 L 29.756812,48.05463 L 29.152857,48.01689 C 28.574067,47.97914 28.511154,47.87848 28.511154,46.88447 L 28.511154,41.56212 C 28.511154,40.99591 28.523737,40.7191 28.561484,40.30388 L 30.511755,40.30388 C 30.864062,40.30388 31.002469,40.41712 31.015051,40.7191 L 31.065381,41.71311 L 31.455435,41.71311 C 31.455435,40.89525 31.4806,40.40454 31.543512,39.68734 C 30.63758,39.69992 30.22236,39.69992 29.870053,39.71251 C 29.37934,39.72509 29.01445,39.72509 28.825714,39.72509 L 26.837696,39.72509 C 26.711872,39.72509 26.032422,39.71251 25.139072,39.69992 L 24.283469,39.68734 C 24.346381,40.40454 24.371546,40.89525 24.371546,41.71311 L 24.761601,41.71311 L 24.81193,40.7191 C 24.824513,40.41712 24.962919,40.30388 25.315226,40.30388 L 27.265497,40.30388"
       style="font-size:40px;font-style:normal;font-variant:normal;font-weight:normal;font-stretch:normal;text-align:start;line-height:125%;writing-mode:lr-tb;text-anchor:start;fill:#000000;fill-opacity:1;stroke:none;stroke-width:1px;stroke-linecap:butt;stroke-linejoin:miter;stroke-opacity:1;font-family:URW Palladio L;-inkscape-font-specification:URW Palladio L" />
    <path
       id="path2454"
       d="M 29.260443,88.70353 C 29.260443,88.03667 29.310772,87.60886 29.436596,86.92941 C 28.430006,86.52678 27.863796,86.40095 27.171765,86.40095 C 25.29699,86.40095 23.938089,87.5837 23.938089,89.23199 C 23.938089,89.84853 24.101661,90.3015 24.46655,90.64122 C 24.894351,91.03128 25.473143,91.23259 26.693634,91.39616 C 27.662478,91.53457 28.102863,91.67298 28.430005,91.96237 C 28.757147,92.2266 28.908136,92.59149 28.908136,93.06962 C 28.908136,94.20204 27.964455,95.01989 26.655887,95.01989 C 25.649296,95.01989 24.667868,94.52918 24.604956,94.0133 L 24.504297,93.17028 L 24.10166,93.17028 C 24.114243,93.39677 24.114243,93.59808 24.114243,93.67358 C 24.114243,94.25237 24.089078,94.52918 24.013584,95.09539 C 24.73078,95.40995 25.46056,95.57352 26.190338,95.57352 C 28.379673,95.57352 29.965057,94.25237 29.965057,92.42792 C 29.965057,91.83655 29.801485,91.42133 29.449179,91.09419 C 29.008795,90.67897 28.480333,90.5154 27.071106,90.32666 C 25.536055,90.12534 24.995011,89.71012 24.995011,88.74128 C 24.995011,87.68436 25.787703,86.92941 26.894952,86.92941 C 27.385665,86.92941 27.851215,87.03007 28.190939,87.21881 C 28.606158,87.43271 28.744564,87.62145 28.782312,87.98634 L 28.857806,88.70353 L 29.260443,88.70353"
       style="font-size:40px;font-style:normal;font-variant:normal;font-weight:normal;font-stretch:normal;text-align:start;line-height:125%;writing-mode:lr-tb;text-anchor:start;fill:#ff0000;fill-opacity:1;stroke:none;stroke-width:1px;stroke-linecap:butt;stroke-linejoin:miter;stroke-opacity:1;font-family:URW Palladio L;-inkscape-font-specification:URW Palladio L" />
    <path
       style="font-size:40px;font-style:normal;font-variant:normal;font-weight:normal;font-stretch:normal;text-align:start;line-height:125%;writing-mode:lr-tb;text-anchor:start;fill:#000000;fill-opacity:1;stroke:none;stroke-width:1px;stroke-linecap:butt;stroke-linejoin:miter;stroke-opacity:1;font-family:URW Palladio L;-inkscape-font-specification:URW Palladio L"
       d="M 26.213618,79.07221 C 26.565925,79.04705 26.943397,79.03446 27.509605,79.03446 C 28.440699,79.03446 28.780427,79.07221 29.00691,79.18545 L 29.107569,79.50001 L 29.170481,80.24237 L 29.547953,80.24237 C 29.510206,79.07221 29.510206,79.07221 29.510206,78.84573 C 29.510206,78.64441 29.510206,78.64441 29.547953,77.38617 L 29.170481,77.38617 L 29.107569,78.04045 C 29.094987,78.1537 29.05724,78.26694 29.00691,78.3676 C 28.780427,78.46826 28.42812,78.506 27.597682,78.506 C 27.069221,78.506 26.64142,78.49342 26.213618,78.46826 L 26.213618,75.10876 C 26.59109,75.02068 26.817573,75.0081 27.559934,75.0081 C 28.163889,75.0081 28.868504,75.08359 29.258558,75.18425 C 29.560535,75.25975 29.598283,75.32266 29.598283,75.61205 L 29.598283,76.42991 L 30.038666,76.42991 C 30.038666,75.67497 30.101578,75.07101 30.239985,74.51738 C 29.623447,74.49222 29.245975,74.47964 28.704932,74.47964 L 27.358616,74.49222 C 26.742079,74.51738 26.301695,74.51738 25.987135,74.51738 C 25.622246,74.51738 25.622242,74.51738 23.772633,74.47964 L 23.772633,74.85711 L 24.376588,74.89486 C 24.955379,74.9326 25.018291,75.03327 25.018291,76.02727 L 25.018291,81.67677 C 25.018291,82.67078 24.955379,82.77144 24.376588,82.80918 L 23.772633,82.84693 L 23.772633,83.2244 C 24.514995,83.19924 24.955379,83.18665 25.609663,83.18665 C 26.263948,83.18665 26.716914,83.19924 27.459275,83.2244 L 27.459275,82.84693 L 26.85532,82.80918 C 26.27653,82.77144 26.213618,82.67078 26.213618,81.67677 L 26.213618,79.07221"
       id="text2456" />
    <rect
       y="29.447144"
       x="40.370811"
       height="5.0236745"
       width="61.231308"
       id="rect2461"
       style="opacity:0.3;fill:#000000;fill-opacity:1;stroke:none;stroke-width:1;stroke-linecap:round;stroke-linejoin:round;stroke-miterlimit:4;stroke-dasharray:none;stroke-dashoffset:0;stroke-opacity:1" />
    <rect
       style="opacity:0.3;fill:#000000;fill-opacity:1;stroke:none;stroke-width:1;stroke-linecap:round;stroke-linejoin:round;stroke-miterlimit:4;stroke-dasharray:none;stroke-dashoffset:0;stroke-opacity:1"
       id="rect2463"
       width="61.231308"
       height="5.0236745"
       x="40.370811"
       y="41.84272" />
    <rect
       y="54.2383"
       x="40.370811"
       height="5.0236745"
       width="61.231308"
       id="rect2465"
       style="opacity:0.3;fill:#000000;fill-opacity:1;stroke:none;stroke-width:1;stroke-linecap:round;stroke-linejoin:round;stroke-miterlimit:4;stroke-dasharray:none;stroke-dashoffset:0;stroke-opacity:1" />
    <rect
       style="opacity:0.3;fill:#000000;fill-opacity:1;stroke:none;stroke-width:1;stroke-linecap:round;stroke-linejoin:round;stroke-miterlimit:4;stroke-dasharray:none;stroke-dashoffset:0;stroke-opacity:1"
       id="rect2467"
       width="61.231308"
       height="5.0236745"
       x="40.370811"
       y="66.633881" />
    <rect
       y="79.029457"
       x="40.370811"
       height="5.0236745"
       width="61.231308"
       id="rect2469"
       style="opacity:0.3;fill:#000000;fill-opacity:1;stroke:none;stroke-width:1;stroke-linecap:round;stroke-linejoin:round;stroke-miterlimit:4;stroke-dasharray:none;stroke-dashoffset:0;stroke-opacity:1" />
    <rect
       style="opacity:0.29999999999999999;fill:#ff0000;fill-opacity:1;stroke:none;stroke-width:1;stroke-linecap:round;stroke-linejoin:round;stroke-miterlimit:4;stroke-dasharray:none;stroke-dashoffset:0;stroke-opacity:1"
       id="rect2471"
       width="61.231308"
       height="5.0236745"
       x="40.370811"
       y="91.425034" />
  </g>
</svg>
